<svg width="74" height="74" viewBox="0 0 74 74" fill="none" xmlns="http://www.w3.org/2000/svg">
<g id="Property 1=0">
<path id="Vector" d="M18.2944 67.0204L18.2963 67.0227C20.8948 70.1805 24.8311 71.7193 30.0022 71.7193C30.3409 71.7193 30.6765 71.7128 31.0088 71.6998C31.3346 71.7128 31.6657 71.7193 32.0021 71.7193C37.2083 71.7193 41.6528 70.1801 45.3054 67.0866C48.9534 63.997 51.2352 59.9373 52.1552 54.9343L58.8616 18.4658C59.7857 13.4405 59.0093 9.32349 56.4381 6.19782C53.8686 3.03773 49.9302 1.5 44.7312 1.5C44.3944 1.5 44.0607 1.50652 43.7301 1.51955C43.4025 1.50651 43.0696 1.5 42.7313 1.5C37.5542 1.5 33.1108 3.03972 29.4296 6.13142L29.4296 6.13144C25.7851 9.19248 23.5035 13.2533 22.5782 18.285L15.8718 54.7535C14.9527 59.7514 15.7306 63.8667 18.2944 67.0204ZM35.4206 57.6981C34.8198 58.2138 34.0899 58.5492 33.2147 58.6916C32.8535 58.6286 32.5415 58.5287 32.2741 58.3957L39.0493 43.7281L37.0218 54.7535C36.7963 55.9799 36.2602 56.9527 35.4206 57.6981ZM41.5181 14.5309C41.8781 14.5963 42.1886 14.7002 42.4546 14.8385L35.6632 29.6046L37.7116 18.4658C37.9374 17.2379 38.4711 16.2822 39.3018 15.568L39.3019 15.568L39.3075 15.563C39.9127 15.0265 40.6442 14.6786 41.5181 14.5309Z" fill="white" stroke="#D5DDE2"/>
<g id="Vector_2">
<path d="M30.0022 71.2193C24.9322 71.2193 21.1589 69.7146 18.6823 66.705C16.2358 63.6955 15.4628 59.7418 16.3635 54.8439L23.0699 18.3754C23.976 13.448 26.2031 9.49433 29.7511 6.5143C33.3346 3.50477 37.6613 2 42.7313 2C47.8313 2 51.6046 3.50477 54.0511 6.5143C56.5031 9.49433 57.276 13.448 56.3699 18.3754L49.6635 54.8439C48.7629 59.7418 46.5358 63.6955 42.9823 66.705C39.4289 69.7146 35.1022 71.2193 30.0022 71.2193ZM32.1997 59.2697C33.6397 59.2697 34.8229 58.8714 35.7494 58.0747C36.6813 57.2486 37.2694 56.1716 37.5135 54.8439L44.2199 18.3754C44.4641 17.0477 44.2694 15.9855 43.6359 15.1888C43.0078 14.3627 41.9738 13.9496 40.5338 13.9496C39.0938 13.9496 37.9078 14.3627 36.9759 15.1888C36.0494 15.9855 35.4641 17.0477 35.2199 18.3754L28.5135 54.8439C28.2694 56.1716 28.4613 57.2486 29.0894 58.0747C29.7229 58.8714 30.7597 59.2697 32.1997 59.2697ZM43.4138 13.9496H50.2538L29.3197 59.2697H22.5697L43.4138 13.9496Z" fill="#00FFFF" style="mix-blend-mode:multiply"/>
<path d="M32.0021 71.2193C26.9321 71.2193 23.1588 69.7146 20.6823 66.705C18.2357 63.6955 17.4628 59.7418 18.3635 54.8439L25.0698 18.3754C25.976 13.448 28.203 9.49433 31.751 6.5143C35.3345 3.50477 39.6612 2 44.7312 2C49.8312 2 53.6045 3.50477 56.051 6.5143C58.503 9.49433 59.276 13.448 58.3698 18.3754L51.6635 54.8439C50.7628 59.7418 48.5357 63.6955 44.9823 66.705C41.4288 69.7146 37.1021 71.2193 32.0021 71.2193ZM34.1996 59.2697C35.6396 59.2697 36.8228 58.8714 37.7493 58.0747C38.6813 57.2486 39.2693 56.1716 39.5135 54.8439L46.2198 18.3754C46.464 17.0477 46.2693 15.9855 45.6358 15.1888C45.0078 14.3627 43.9737 13.9496 42.5337 13.9496C41.0937 13.9496 39.9078 14.3627 38.9758 15.1888C38.0493 15.9855 37.464 17.0477 37.2198 18.3754L30.5135 54.8439C30.2693 56.1716 30.4613 57.2486 31.0893 58.0747C31.7228 58.8714 32.7596 59.2697 34.1996 59.2697ZM45.4137 13.9496H52.2537L31.3196 59.2697H24.5696L45.4137 13.9496Z" fill="#FF0000" style="mix-blend-mode:multiply"/>
</g>
</g>
</svg>
