<svg width="50" height="50" viewBox="0 0 50 50" fill="none" xmlns="http://www.w3.org/2000/svg">
<path d="M36.4398 7.83331L30.1261 42.1667H20.6488L25.3841 16.4167H25.1796L16.717 20.9095L18.1721 12.9967L27.7125 7.83331H36.4398Z" fill="white"/>
<path d="M34.4398 7.83331L28.1261 42.1667H18.6488L23.3841 16.4167H23.1796L14.717 20.9095L16.1721 12.9967L25.7125 7.83331H34.4398Z" fill="white"/>
<path fill-rule="evenodd" clip-rule="evenodd" d="M38.8412 5.83331L31.7919 44.1667H16.2475L20.4749 21.1788L14.002 24.6153L14.2184 23.4386L12.002 24.6153L14.3783 11.6935L25.2061 5.83331H38.8412ZM30.1261 42.1667L36.4398 7.83331H25.7125L16.1721 12.9967L14.717 20.9095L16.9334 19.7328L16.717 20.9095L23.1899 17.473L18.6488 42.1667H30.1261Z" fill="white"/>
<path d="M34.4399 7.83331L28.1261 42.1667H18.6488L23.3841 16.4167H23.1796L14.717 20.9095L16.1721 12.9967L25.7126 7.83331H34.4399Z" fill="#00FFFF" style="mix-blend-mode:multiply"/>
<path d="M36.4399 7.83331L30.1261 42.1667H20.6488L25.3841 16.4167H25.1796L16.717 20.9095L18.1721 12.9967L27.7126 7.83331H36.4399Z" fill="#FF0000" style="mix-blend-mode:multiply"/>
</svg>
