<svg width="51" height="50" viewBox="0 0 51 50" fill="none" xmlns="http://www.w3.org/2000/svg">
<path d="M23.0079 42.6361C20.2579 42.6361 17.9 42.1723 15.9343 41.2446C13.9819 40.3058 12.5488 39.015 11.6351 37.3721C10.7213 35.7292 10.455 33.8404 10.8362 31.7057H20.3816C20.2717 32.3651 20.3673 32.9575 20.6685 33.4827C20.983 33.9969 21.4658 34.3992 22.117 34.6898C22.7681 34.9804 23.5482 35.1257 24.4573 35.1257C25.3323 35.1257 26.1327 34.9748 26.8587 34.673C27.5867 34.3601 28.1885 33.9298 28.6642 33.3822C29.1399 32.8345 29.4369 32.2087 29.555 31.5046C29.6938 30.8116 29.5909 30.1969 29.2464 29.6605C28.9132 29.124 28.3823 28.7049 27.6537 28.4031C26.9251 28.1014 26.0495 27.9505 25.0267 27.9505H21.4813L22.6651 21.513H26.2106C27.1537 21.513 28.011 21.3621 28.7824 21.0604C29.5652 20.7586 30.2048 20.3395 30.7011 19.803C31.2089 19.2666 31.5208 18.6519 31.6369 17.959C31.7715 17.2884 31.7157 16.696 31.4693 16.1819C31.2229 15.6678 30.8197 15.2655 30.2595 14.9749C29.7106 14.6843 29.0385 14.539 28.243 14.539C27.3794 14.539 26.5789 14.6899 25.8416 14.9917C25.1157 15.2934 24.5102 15.7125 24.0252 16.249C23.5402 16.7855 23.2282 17.4001 23.0895 18.0931H14.0213C14.419 15.9919 15.3454 14.1367 16.8005 12.5273C18.2669 10.9179 20.1014 9.65502 22.304 8.73857C24.5066 7.82212 26.9261 7.36389 29.5625 7.36389C32.1421 7.36389 34.3413 7.79418 36.1604 8.65475C37.9907 9.51532 39.324 10.7 40.1602 12.2088C41.0098 13.7064 41.2511 15.422 40.8842 17.3554C40.5534 19.2778 39.5932 20.8536 38.0035 22.083C36.4251 23.3124 34.5756 24.0388 32.455 24.2624L32.4056 24.5306C35.1683 24.8323 37.1314 25.6817 38.295 27.0788C39.4606 28.4646 39.8388 30.2081 39.4297 32.3092C39.0711 34.321 38.1297 36.1036 36.6054 37.6571C35.0924 39.2106 33.1582 40.4288 30.8026 41.3117C28.4584 42.1946 25.8602 42.6361 23.0079 42.6361Z" fill="white"/>
<path d="M21.0079 42.6361C18.2579 42.6361 15.9 42.1723 13.9343 41.2446C11.9819 40.3058 10.5488 39.015 9.63505 37.3721C8.72127 35.7292 8.45497 33.8404 8.83616 31.7057H18.3816C18.2717 32.3651 18.3673 32.9575 18.6685 33.4827C18.983 33.9969 19.4658 34.3992 20.117 34.6898C20.7681 34.9804 21.5482 35.1257 22.4573 35.1257C23.3323 35.1257 24.1327 34.9748 24.8587 34.673C25.5867 34.3601 26.1885 33.9298 26.6642 33.3822C27.1399 32.8345 27.4369 32.2087 27.555 31.5046C27.6938 30.8116 27.5909 30.1969 27.2464 29.6605C26.9132 29.124 26.3823 28.7049 25.6537 28.4031C24.9251 28.1014 24.0494 27.9505 23.0267 27.9505H19.4813L20.6651 21.513H24.2106C25.1537 21.513 26.011 21.3621 26.7824 21.0604C27.5652 20.7586 28.2048 20.3395 28.7011 19.803C29.2089 19.2666 29.5208 18.6519 29.6369 17.959C29.7715 17.2884 29.7157 16.696 29.4693 16.1819C29.2229 15.6678 28.8197 15.2655 28.2595 14.9749C27.7106 14.6843 27.0385 14.539 26.243 14.539C25.3794 14.539 24.5789 14.6899 23.8416 14.9917C23.1157 15.2934 22.5102 15.7125 22.0252 16.249C21.5402 16.7855 21.2282 17.4001 21.0895 18.0931H12.0213C12.419 15.9919 13.3454 14.1367 14.8005 12.5273C16.2669 10.9179 18.1014 9.65502 20.304 8.73857C22.5066 7.82212 24.9261 7.36389 27.5625 7.36389C30.1421 7.36389 32.3413 7.79418 34.1604 8.65475C35.9907 9.51532 37.324 10.7 38.1602 12.2088C39.0098 13.7064 39.2511 15.422 38.8842 17.3554C38.5534 19.2778 37.5932 20.8536 36.0035 22.083C34.4251 23.3124 32.5756 24.0388 30.455 24.2624L30.4056 24.5306C33.1683 24.8323 35.1314 25.6817 36.295 27.0788C37.4606 28.4646 37.8388 30.2081 37.4297 32.3092C37.0711 34.321 36.1297 36.1036 34.6054 37.6571C33.0924 39.2106 31.1582 40.4288 28.8026 41.3117C26.4584 42.1946 23.8602 42.6361 21.0079 42.6361Z" fill="white"/>
<path fill-rule="evenodd" clip-rule="evenodd" d="M8.66901 33.6701C8.69024 35.0183 9.01224 36.2523 9.63505 37.3721C9.79337 37.6567 9.96731 37.9308 10.1568 38.1943C11.061 39.4517 12.3202 40.4685 13.9343 41.2446C14.4675 41.4963 15.0296 41.7138 15.6206 41.8971C15.6223 41.8977 15.624 41.8982 15.6257 41.8987C17.212 42.3903 19.006 42.6361 21.0079 42.6361C21.3563 42.6361 21.7009 42.6295 22.0416 42.6163C22.3582 42.6295 22.6803 42.6361 23.0079 42.6361C25.1552 42.6361 27.1585 42.3859 29.0177 41.8855C29.0174 41.8856 29.0181 41.8854 29.0177 41.8855C29.6279 41.7213 30.2235 41.5298 30.8026 41.3117C32.6538 40.6178 34.2447 39.7169 35.5755 38.6089C35.5768 38.6078 35.5781 38.6068 35.5794 38.6057C35.9406 38.3047 36.2826 37.9885 36.6054 37.6571C38.0343 36.2008 38.9511 34.5432 39.3556 32.6842C39.3578 32.6741 39.36 32.6639 39.3622 32.6537C39.3866 32.5396 39.4091 32.4248 39.4297 32.3092C39.5209 31.8409 39.573 31.3903 39.586 30.9575C39.5903 30.8131 39.5903 30.6706 39.5859 30.5301C39.5444 29.2031 39.1141 28.0526 38.295 27.0788C38.0251 26.7547 37.7122 26.4601 37.3562 26.1949C37.3544 26.1936 37.3525 26.1922 37.3507 26.1909C36.9726 25.9099 36.546 25.6621 36.071 25.4474C35.7386 25.2972 35.3825 25.1633 35.0026 25.0456C34.8006 24.983 34.5919 24.925 34.3765 24.8716C33.7947 24.7273 33.1639 24.6166 32.4842 24.5393C32.4581 24.5364 32.4319 24.5335 32.4056 24.5306L32.455 24.2624C33.3683 24.1661 34.2313 23.9765 35.044 23.6937C35.3873 23.5742 35.7216 23.4382 36.0469 23.2854C36.2624 23.1842 36.474 23.0757 36.6817 22.9599C36.6828 22.9593 36.6839 22.9587 36.6851 22.958C37.1438 22.702 37.5832 22.4103 38.0035 22.083C39.4911 20.9325 40.4276 19.4787 40.8127 17.7214C40.8151 17.7105 40.8175 17.6995 40.8199 17.6885C40.8435 17.5787 40.8649 17.4676 40.8842 17.3554C40.9857 16.8207 41.0407 16.3026 41.0491 15.8011C41.0506 15.7117 41.0506 15.6228 41.0492 15.5345C41.0292 14.3269 40.7329 13.2183 40.1602 12.2088C40.0028 11.9248 39.8279 11.6523 39.6353 11.3913C39.6319 11.3868 39.6286 11.3822 39.6252 11.3777C38.7952 10.2582 37.6402 9.35053 36.1604 8.65475C35.628 8.40288 35.0631 8.18787 34.4655 8.00972C34.465 8.00956 34.4644 8.00939 34.4639 8.00923C33.0202 7.579 31.3864 7.36389 29.5625 7.36389C29.2257 7.36389 28.8925 7.37137 28.5628 7.38632C28.236 7.37137 27.9025 7.36389 27.5625 7.36389C25.6046 7.36389 23.7663 7.61663 22.0476 8.1221C21.452 8.29725 20.8708 8.50273 20.304 8.73857C18.556 9.46588 17.0398 10.4114 15.7555 11.5751C15.7541 11.5764 15.7528 11.5776 15.7514 11.5788C15.4189 11.8803 15.1019 12.1965 14.8005 12.5273C13.8256 13.6055 13.0881 14.7941 12.5879 16.0931C12.3849 16.6201 12.221 17.1653 12.0962 17.7286C12.0694 17.8493 12.0444 17.9708 12.0213 18.0931H23.0895C23.1377 17.8522 23.2069 17.6208 23.297 17.3988C23.466 16.9823 23.7087 16.599 24.0252 16.249C24.0999 16.1663 24.1776 16.0864 24.2581 16.0093C24.2597 16.0078 24.2612 16.0063 24.2628 16.0048C24.7035 15.5837 25.2297 15.246 25.8416 14.9917C25.9734 14.9377 26.1072 14.8886 26.2431 14.8443C26.5494 14.7444 26.8659 14.669 27.1928 14.6182C27.5821 14.688 27.9322 14.804 28.2431 14.9663C28.2486 14.9691 28.254 14.972 28.2595 14.9749C28.8197 15.2655 29.2229 15.6678 29.4693 16.1819C29.494 16.2333 29.5167 16.2855 29.5375 16.3385C29.5397 16.3439 29.5417 16.3493 29.5438 16.3546C29.6257 16.5675 29.677 16.7929 29.6977 17.0309C29.7042 17.1052 29.7077 17.1807 29.7082 17.2575C29.7083 17.272 29.7083 17.2867 29.7082 17.3013C29.7075 17.3889 29.7029 17.4781 29.6946 17.5689C29.6926 17.59 29.6905 17.6112 29.6881 17.6325C29.6762 17.7392 29.6591 17.848 29.6369 17.959C29.5982 18.1895 29.538 18.4113 29.456 18.6245C29.4535 18.631 29.451 18.6375 29.4485 18.644C29.284 19.0641 29.0348 19.4505 28.7011 19.803C28.6086 19.903 28.5112 19.9989 28.4087 20.0908C28.4073 20.092 28.406 20.0932 28.4046 20.0944C27.9581 20.4936 27.4174 20.8156 26.7824 21.0604C26.5968 21.133 26.4062 21.1969 26.2106 21.252C25.5934 21.426 24.9267 21.513 24.2106 21.513H20.6651L19.4813 27.9505H23.0267C23.1926 27.9505 23.3546 27.9545 23.5127 27.9624C24.0645 27.9901 24.5692 28.0661 25.0268 28.1905C25.2466 28.2502 25.4556 28.3211 25.6537 28.4031C26.3336 28.6847 26.8414 29.0685 27.1769 29.5545C27.201 29.5893 27.2241 29.6246 27.2464 29.6605C27.4477 29.974 27.5666 30.3142 27.6028 30.6812C27.6039 30.6921 27.6049 30.7031 27.6059 30.7141C27.6112 30.777 27.6142 30.8407 27.6147 30.9052C27.6148 30.9212 27.6148 30.9373 27.6147 30.9534C27.6141 31.0066 27.612 31.0604 27.6082 31.1146C27.6067 31.1354 27.6051 31.1562 27.6031 31.1771C27.5933 31.2843 27.5772 31.3934 27.555 31.5046C27.5119 31.7615 27.445 32.0081 27.3542 32.2442C27.1964 32.6551 26.9663 33.0344 26.6642 33.3822C26.5884 33.4694 26.5095 33.5537 26.4272 33.635C26.4238 33.6384 26.4204 33.6418 26.4169 33.6452C25.9852 34.0694 25.4658 34.412 24.8587 34.673C24.7273 34.7276 24.5935 34.7773 24.4573 34.822C24.1323 34.9287 23.7935 35.0072 23.4408 35.0577C23.0884 35.0076 22.7605 34.9298 22.4573 34.8244C22.3402 34.7836 22.2267 34.7388 22.117 34.6898C21.4658 34.3992 20.983 33.9969 20.6685 33.4827C20.6661 33.4785 20.6637 33.4743 20.6613 33.4701C20.5251 33.2294 20.4319 32.9747 20.3816 32.706C20.37 32.6437 20.3606 32.5806 20.3536 32.5167C20.3514 32.4964 20.3494 32.4759 20.3476 32.4554C20.3415 32.3852 20.3382 32.3141 20.3377 32.2421C20.3376 32.2274 20.3375 32.2126 20.3377 32.1978C20.3381 32.1433 20.3401 32.0882 20.3436 32.0327C20.3505 31.9256 20.3631 31.8166 20.3816 31.7057H8.83616C8.71478 32.3854 8.65909 33.0402 8.66901 33.6701ZM24.0801 32.8307C23.8829 32.9119 23.671 32.9782 23.4422 33.0272C23.2417 32.9829 23.0732 32.9264 22.9321 32.8634C22.6064 32.7181 22.4629 32.5716 22.3902 32.4634C22.3487 32.3821 22.3161 32.2648 22.3544 32.0345L22.7018 29.9505H23.0268C23.8613 29.9505 24.4629 30.0747 24.8885 30.2509C25.3277 30.4329 25.4846 30.6145 25.5474 30.7156L25.5554 30.7285L25.5636 30.7412C25.5963 30.7922 25.6429 30.8674 25.594 31.1118L25.5878 31.1426L25.5826 31.1737C25.5264 31.5084 25.3926 31.7963 25.1544 32.0706C24.8958 32.3682 24.5517 32.6263 24.0801 32.8307ZM24.8513 19.4808C25.3039 19.4334 25.7019 19.3355 26.0539 19.1978L26.0631 19.1942C26.603 18.9861 26.973 18.726 27.2332 18.4447L27.2409 18.4364L27.2486 18.4282C27.4979 18.1649 27.6174 17.9087 27.6644 17.6286L27.6697 17.5968L27.676 17.5651C27.7429 17.2325 27.6895 17.0957 27.6658 17.0462C27.6271 16.9655 27.5569 16.8635 27.3386 16.7503L27.3311 16.7464L27.3237 16.7425C27.2741 16.7162 27.2151 16.6899 27.1452 16.6653C26.956 16.7118 26.776 16.7706 26.6042 16.8406C26.1298 17.0386 25.7777 17.2928 25.5088 17.5903C25.2595 17.8659 25.1168 18.1549 25.0505 18.4859L24.8513 19.4808ZM18.8927 20.0931H9.60719L10.0562 17.7211C10.5234 15.2532 11.6192 13.0639 13.317 11.186L13.3221 11.1803C15.0041 9.33437 17.0889 7.91008 19.5358 6.89202C22.0063 5.86411 24.6903 5.36389 27.5625 5.36389C27.9003 5.36389 28.2339 5.37069 28.5631 5.38444C28.8936 5.37073 29.2268 5.36389 29.5625 5.36389C32.3563 5.36389 34.8631 5.82902 37.0132 6.8457C39.1522 7.85173 40.8315 9.29877 41.9047 11.2306C43.0146 13.1921 43.2891 15.3928 42.8523 17.7118C42.4312 20.1348 41.1958 22.1416 39.2296 23.6631C38.9062 23.9148 38.5736 24.1485 38.232 24.3643C38.8312 24.7672 39.367 25.2415 39.8287 25.7951C41.4502 27.7253 41.892 30.1094 41.3959 32.6759C40.96 35.1029 39.8171 37.2386 38.0353 39.0555C36.2872 40.8494 34.0914 42.2147 31.5061 43.1839M18.8927 20.0931L17.125 29.7057H7.1617L6.86734 31.3541C6.41824 33.8691 6.71586 36.2382 7.88725 38.3442C9.03139 40.4013 10.8015 41.9574 13.0676 43.0471L13.0742 43.0503L13.0808 43.0534C15.3745 44.1357 18.0387 44.6361 21.008 44.6361C21.3545 44.6361 21.6982 44.63 22.039 44.6178C22.3583 44.63 22.6813 44.6361 23.008 44.6361C26.0668 44.6361 28.9069 44.1624 31.5046 43.1845" fill="white"/>
<path d="M21.0079 42.6361C18.2579 42.6361 15.9 42.1723 13.9342 41.2447C11.9819 40.3058 10.5488 39.015 9.635 37.3721C8.72122 35.7292 8.45492 33.8404 8.83611 31.7057H18.3816C18.2717 32.3651 18.3673 32.9575 18.6684 33.4828C18.983 33.9969 19.4658 34.3992 20.1169 34.6898C20.768 34.9804 21.5481 35.1257 22.4572 35.1257C23.3322 35.1257 24.1327 34.9748 24.8586 34.673C25.5866 34.3601 26.1885 33.9298 26.6642 33.3822C27.1399 32.8345 27.4368 32.2087 27.5549 31.5046C27.6937 30.8116 27.5908 30.1969 27.2463 29.6605C26.9131 29.124 26.3823 28.7049 25.6537 28.4032C24.9251 28.1014 24.0494 27.9505 23.0267 27.9505H19.4812L20.665 21.513H24.2105C25.1537 21.513 26.011 21.3621 26.7824 21.0604C27.5651 20.7586 28.2047 20.3395 28.7011 19.8031C29.2088 19.2666 29.5207 18.6519 29.6368 17.959C29.7715 17.2884 29.7156 16.6961 29.4693 16.182C29.2229 15.6678 28.8196 15.2655 28.2594 14.9749C27.7106 14.6843 27.0384 14.539 26.243 14.539C25.3793 14.539 24.5789 14.6899 23.8416 14.9917C23.1156 15.2934 22.5101 15.7126 22.0251 16.249C21.5401 16.7855 21.2282 17.4002 21.0894 18.0931H12.0212C12.419 15.992 13.3454 14.1367 14.8004 12.5273C16.2668 10.9179 18.1014 9.65503 20.304 8.73858C22.5066 7.82213 24.9261 7.3639 27.5625 7.3639C30.142 7.3639 32.3413 7.79419 34.1603 8.65476C35.9907 9.51533 37.324 10.7 38.1601 12.2088C39.0097 13.7064 39.2511 15.422 38.8841 17.3555C38.5534 19.2778 37.5931 20.8536 36.0034 22.083C34.4251 23.3124 32.5756 24.0388 30.4549 24.2624L30.4056 24.5306C33.1683 24.8324 35.1314 25.6817 36.2949 27.0788C37.4605 28.4646 37.8388 30.2081 37.4297 32.3093C37.0711 34.321 36.1296 36.1036 34.6053 37.6571C33.0924 39.2106 31.1581 40.4288 28.8026 41.3117C26.4584 42.1946 23.8602 42.6361 21.0079 42.6361Z" fill="#00FFFF" style="mix-blend-mode:multiply"/>
<path d="M23.0079 42.6361C20.2579 42.6361 17.9 42.1723 15.9342 41.2447C13.9819 40.3058 12.5488 39.015 11.635 37.3721C10.7212 35.7292 10.4549 33.8404 10.8361 31.7057H20.3816C20.2717 32.3651 20.3673 32.9575 20.6684 33.4828C20.983 33.9969 21.4658 34.3992 22.1169 34.6898C22.768 34.9804 23.5481 35.1257 24.4572 35.1257C25.3322 35.1257 26.1327 34.9748 26.8586 34.673C27.5866 34.3601 28.1885 33.9298 28.6642 33.3822C29.1399 32.8345 29.4368 32.2087 29.5549 31.5046C29.6937 30.8116 29.5908 30.1969 29.2463 29.6605C28.9131 29.124 28.3823 28.7049 27.6537 28.4032C26.9251 28.1014 26.0494 27.9505 25.0267 27.9505H21.4812L22.665 21.513H26.2105C27.1537 21.513 28.011 21.3621 28.7824 21.0604C29.5651 20.7586 30.2047 20.3395 30.7011 19.8031C31.2088 19.2666 31.5207 18.6519 31.6368 17.959C31.7715 17.2884 31.7156 16.6961 31.4693 16.182C31.2229 15.6678 30.8196 15.2655 30.2594 14.9749C29.7106 14.6843 29.0384 14.539 28.243 14.539C27.3793 14.539 26.5789 14.6899 25.8416 14.9917C25.1156 15.2934 24.5101 15.7126 24.0251 16.249C23.5401 16.7855 23.2282 17.4002 23.0894 18.0931H14.0212C14.419 15.992 15.3454 14.1367 16.8004 12.5273C18.2668 10.9179 20.1014 9.65503 22.304 8.73858C24.5066 7.82213 26.9261 7.3639 29.5625 7.3639C32.142 7.3639 34.3413 7.79419 36.1603 8.65476C37.9907 9.51533 39.324 10.7 40.1601 12.2088C41.0097 13.7064 41.2511 15.422 40.8841 17.3555C40.5534 19.2778 39.5931 20.8536 38.0034 22.083C36.4251 23.3124 34.5756 24.0388 32.4549 24.2624L32.4056 24.5306C35.1683 24.8324 37.1314 25.6817 38.2949 27.0788C39.4605 28.4646 39.8388 30.2081 39.4297 32.3093C39.0711 34.321 38.1296 36.1036 36.6053 37.6571C35.0924 39.2106 33.1581 40.4288 30.8026 41.3117C28.4584 42.1946 25.8602 42.6361 23.0079 42.6361Z" fill="#FF0000" style="mix-blend-mode:multiply"/>
</svg>
