<svg width="74" height="74" viewBox="0 0 74 74" fill="none" xmlns="http://www.w3.org/2000/svg">
<path d="M16.7244 67.5597L16.7263 67.562C19.3248 70.7198 23.2612 72.2586 28.4322 72.2586C28.771 72.2586 29.1065 72.2521 29.4388 72.2391C29.7647 72.2521 30.0958 72.2586 30.4322 72.2586C35.6384 72.2586 40.0829 70.7194 43.7355 67.6259C47.3834 64.5363 49.6652 60.4766 50.5853 55.4736L52.213 46.6221C52.7278 43.8229 52.6901 41.2829 52.0791 39.0136C51.816 37.986 51.457 37.0336 51.0015 36.1582C51.7794 35.3038 52.4897 34.3661 53.1323 33.3456C54.556 31.1327 55.5231 28.6223 56.0383 25.8209L57.2917 19.0052C58.2158 13.9798 57.4393 9.86279 54.8682 6.73712C52.2986 3.57704 48.3603 2.03931 43.1613 2.03931C42.8244 2.03931 42.4907 2.04582 42.1601 2.05886C41.8326 2.04582 41.4996 2.03931 41.1613 2.03931C35.9843 2.03931 31.5409 3.57902 27.8596 6.67073L27.8596 6.67074C24.2151 9.73178 21.9335 13.7926 21.0082 18.8243L20.3571 22.3649L20.2485 22.9554H20.8489H22.2485H22.8488H32.9989H33.4153H34.9988H35.4152L35.4905 22.5458L36.1417 19.0052C36.3675 17.7772 36.9012 16.8215 37.7319 16.1073L37.7319 16.1073L37.7376 16.1023C38.3428 15.5658 39.0743 15.2179 39.9481 15.0702C40.7469 15.2154 41.3023 15.5498 41.6679 16.0308L41.6678 16.0308L41.6746 16.0394C42.1912 16.689 42.3853 17.5896 42.1582 18.8243L40.9048 25.64C40.6793 26.8664 40.1432 27.8392 39.3036 28.5846C38.4839 29.2882 37.424 29.6562 36.0827 29.6562H31.0626H30.6462H29.0627H28.6463L28.571 30.0658L26.3735 42.0154L26.2649 42.6059H26.8652H28.2648H28.8652H33.8852C35.2336 42.6059 36.089 42.9896 36.5893 43.6477L36.5892 43.6478L36.596 43.6563C37.1126 44.3059 37.3067 45.2065 37.0796 46.4412L35.4518 55.2928C35.2263 56.5192 34.6902 57.492 33.8506 58.2374C33.2498 58.7531 32.5199 59.0885 31.6448 59.2309C30.8423 59.091 30.283 58.7687 29.9141 58.3071C29.3975 57.6247 29.2089 56.7044 29.4353 55.4736L30.0864 51.933L30.195 51.3426H29.5946H28.195H27.5947H17.4446H17.0282H15.4447H15.0283L14.9529 51.7522L14.3018 55.2928C13.3828 60.2907 14.1607 64.406 16.7244 67.5597Z" fill="white" stroke="#D5DDE2"/>
<path d="M28.4323 71.7587C23.3623 71.7587 19.589 70.2539 17.1125 67.2444C14.6659 64.2349 13.893 60.2811 14.7937 55.3833L15.4448 51.8426H27.5948L26.9437 55.3833C26.6995 56.711 26.8915 57.788 27.5195 58.6141C28.153 59.4107 29.1898 59.8091 30.6298 59.8091C32.0698 59.8091 33.253 59.4107 34.1795 58.6141C35.1115 57.788 35.6995 56.711 35.9437 55.3833L37.5714 46.5317C37.8156 45.204 37.6209 44.1418 36.9874 43.3451C36.3593 42.519 35.3253 42.1059 33.8853 42.1059H26.8653L29.0628 30.1563H36.0828C37.5228 30.1563 38.706 29.758 39.6325 28.9613C40.5645 28.1352 41.1525 27.0582 41.3967 25.7305L42.65 18.9148C42.8942 17.587 42.6995 16.5249 42.066 15.7282C41.438 14.9021 40.4039 14.489 38.9639 14.489C37.5239 14.489 36.338 14.9021 35.406 15.7282C34.4795 16.5249 33.8942 17.587 33.65 18.9148L32.9989 22.4554H20.8489L21.5 18.9148C22.4062 13.9874 24.6332 10.0337 28.1812 7.05367C31.7647 4.04413 36.0914 2.53937 41.1614 2.53937C46.2614 2.53937 50.0347 4.04413 52.4812 7.05367C54.9332 10.0337 55.7062 13.9874 54.8 18.9148L53.5467 25.7305C53.0421 28.4745 52.0967 30.9234 50.7106 33.0773C49.3545 35.2312 47.694 37.0015 45.729 38.3882L46.5917 33.6969C48.0358 35.1427 49.0371 36.9572 49.5956 39.1406C50.1841 41.324 50.226 43.7877 49.7214 46.5317L48.0937 55.3833C47.193 60.2811 44.9659 64.2349 41.4125 67.2444C37.859 70.2539 33.5323 71.7587 28.4323 71.7587Z" fill="#00FFFF" style="mix-blend-mode:multiply"/>
<path d="M30.4322 71.7587C25.3622 71.7587 21.5889 70.2539 19.1123 67.2444C16.6658 64.2349 15.8928 60.2811 16.7935 55.3833L17.4446 51.8426H29.5946L28.9435 55.3833C28.6994 56.711 28.8913 57.788 29.5194 58.6141C30.1529 59.4107 31.1897 59.8091 32.6297 59.8091C34.0697 59.8091 35.2529 59.4107 36.1794 58.6141C37.1113 57.788 37.6994 56.711 37.9435 55.3833L39.5713 46.5317C39.8155 45.204 39.6208 44.1418 38.9873 43.3451C38.3592 42.519 37.3252 42.1059 35.8852 42.1059H28.8652L31.0627 30.1563H38.0827C39.5227 30.1563 40.7059 29.758 41.6324 28.9613C42.5643 28.1352 43.1524 27.0582 43.3965 25.7305L44.6499 18.9148C44.8941 17.587 44.6994 16.5249 44.0659 15.7282C43.4378 14.9021 42.4038 14.489 40.9638 14.489C39.5238 14.489 38.3378 14.9021 37.4059 15.7282C36.4794 16.5249 35.8941 17.587 35.6499 18.9148L34.9988 22.4554H22.8488L23.4999 18.9148C24.406 13.9874 26.6331 10.0337 30.1811 7.05367C33.7646 4.04413 38.0913 2.53937 43.1613 2.53937C48.2613 2.53937 52.0346 4.04413 54.4811 7.05367C56.9331 10.0337 57.706 13.9874 56.7999 18.9148L55.5465 25.7305C55.0419 28.4745 54.0966 30.9234 52.7105 33.0773C51.3544 35.2312 49.6939 37.0015 47.7288 38.3882L48.5916 33.6969C50.0357 35.1427 51.037 36.9572 51.5955 39.1406C52.184 41.324 52.2259 43.7877 51.7213 46.5317L50.0935 55.3833C49.1928 60.2811 46.9658 64.2349 43.4123 67.2444C39.8589 70.2539 35.5322 71.7587 30.4322 71.7587Z" fill="#FF0000" style="mix-blend-mode:multiply"/>
</svg>
