<svg width="74" height="74" viewBox="0 0 74 74" fill="none" xmlns="http://www.w3.org/2000/svg">
<g id="Property 1=5">
<path id="Vector" d="M18.2944 66.6042L18.2963 66.6065C20.8948 69.7642 24.8311 71.3031 30.0022 71.3031C30.3409 71.3031 30.6765 71.2966 31.0088 71.2835C31.3346 71.2966 31.6657 71.3031 32.0021 71.3031C37.2083 71.3031 41.6528 69.7638 45.3054 66.6703C48.9534 63.5807 51.2352 59.5211 52.1552 54.5181L54.4341 42.1259C55.0481 38.787 54.9036 35.8308 53.9659 33.2778C53.0368 30.7039 51.4784 28.6963 49.2916 27.2765C47.1049 25.8568 44.4604 25.16 41.3837 25.16C41.0517 25.16 40.7268 25.1689 40.409 25.1867C40.0728 25.1689 39.7311 25.16 39.3838 25.16C38.2965 25.16 37.2848 25.2551 36.351 25.4483L38.1897 15.4496H54.2234H54.6398H56.2233H56.6397L56.715 15.0401L58.9125 3.09043L59.0211 2.5H58.4208H57.0212H56.4208H27.8208H27.4043H25.8208H25.4044L25.3291 2.90957L18.0367 42.5646L17.9281 43.1551H18.5285H19.9281H20.5284H30.6785H31.0949H32.6784H33.0948L33.1701 42.7455L33.2841 42.1259C33.5099 40.898 34.0436 39.9423 34.8743 39.228L34.8743 39.2281L34.88 39.223C35.4852 38.6865 36.2167 38.3387 37.0906 38.1909C37.8894 38.3361 38.4447 38.6705 38.8104 39.1515L38.8103 39.1516L38.8171 39.1601C39.3336 39.8097 39.5277 40.7103 39.3007 41.945L37.0218 54.3372C36.7963 55.5636 36.2602 56.5364 35.4206 57.2818C34.8198 57.7975 34.0899 58.133 33.2147 58.2753C32.4123 58.1355 31.853 57.8131 31.4841 57.3516C30.9674 56.6691 30.7789 55.7489 31.0052 54.5181L31.6563 50.9775L31.7649 50.387H31.1646H29.765H29.1647H19.0146H18.5981H17.0146H16.5982L16.5229 50.7966L15.8718 54.3372C14.9527 59.3351 15.7306 63.4505 18.2944 66.6042Z" fill="white" stroke="#D5DDE2"/>
<g id="Vector_2">
<path d="M30.0022 70.8031C24.9322 70.8031 21.1589 69.2983 18.6823 66.2888C16.2358 63.2792 15.4628 59.3255 16.3635 54.4277L17.0146 50.887H29.1647L28.5135 54.4277C28.2694 55.7554 28.4613 56.8323 29.0894 57.6585C29.7229 58.4551 30.7597 58.8534 32.1997 58.8534C33.6397 58.8534 34.8229 58.4551 35.7494 57.6585C36.6813 56.8323 37.2694 55.7554 37.5135 54.4277L39.7924 42.0355C40.0366 40.7077 39.8419 39.6455 39.2084 38.8489C38.5803 38.0227 37.5463 37.6097 36.1063 37.6097C34.6663 37.6097 33.4803 38.0227 32.5484 38.8489C31.6219 39.6455 31.0366 40.7077 30.7924 42.0355L30.6785 42.6551H18.5285L25.8208 3H56.4208L54.2234 14.9496H30.2834L36.7663 9.55017L32.5667 32.3872L30.7964 29.2892C31.8943 28.05 33.1275 27.1353 34.496 26.5452C35.8645 25.9551 37.4938 25.66 39.3838 25.66C42.3838 25.66 44.929 26.3387 47.0194 27.6959C49.1098 29.0531 50.6021 30.971 51.4963 33.4494C52.396 35.8984 52.5447 38.7604 51.9424 42.0355L49.6635 54.4277C48.7629 59.3255 46.5358 63.2792 42.9823 66.2888C39.4289 69.2983 35.1022 70.8031 30.0022 70.8031Z" fill="#00FFFF" style="mix-blend-mode:multiply"/>
<path d="M32.0021 70.8031C26.9321 70.8031 23.1588 69.2983 20.6823 66.2888C18.2357 63.2792 17.4628 59.3255 18.3635 54.4277L19.0146 50.887H31.1646L30.5135 54.4277C30.2693 55.7554 30.4613 56.8323 31.0893 57.6585C31.7228 58.4551 32.7596 58.8534 34.1996 58.8534C35.6396 58.8534 36.8228 58.4551 37.7493 57.6585C38.6813 56.8323 39.2693 55.7554 39.5135 54.4277L41.7923 42.0355C42.0365 40.7077 41.8418 39.6455 41.2083 38.8489C40.5803 38.0227 39.5462 37.6097 38.1062 37.6097C36.6662 37.6097 35.4803 38.0227 34.5483 38.8489C33.6218 39.6455 33.0365 40.7077 32.7923 42.0355L32.6784 42.6551H20.5284L27.8208 3H58.4208L56.2233 14.9496H32.2833L38.7662 9.55017L34.5666 32.3872L32.7963 29.2892C33.8942 28.05 35.1274 27.1353 36.4959 26.5452C37.8644 25.9551 39.4937 25.66 41.3837 25.66C44.3837 25.66 46.9289 26.3387 49.0193 27.6959C51.1097 29.0531 52.602 30.971 53.4963 33.4494C54.3959 35.8984 54.5446 38.7604 53.9423 42.0355L51.6635 54.4277C50.7628 59.3255 48.5357 63.2792 44.9823 66.2888C41.4288 69.2983 37.1021 70.8031 32.0021 70.8031Z" fill="#FF0000" style="mix-blend-mode:multiply"/>
</g>
</g>
</svg>
