<svg width="50" height="50" viewBox="0 0 50 50" fill="none" xmlns="http://www.w3.org/2000/svg">
<path d="M15.2548 42.6338L15.2548 42.6338L15.2626 42.6366C17.0987 43.3069 19.0905 43.6361 21.2283 43.6361C21.5744 43.6361 21.9174 43.6284 22.2573 43.6129C22.5775 43.6284 22.9012 43.6361 23.2283 43.6361C26.1044 43.6361 28.7641 43.1036 31.1932 42.0244C33.6167 40.9478 35.6488 39.4253 37.273 37.4564C38.9188 35.4752 39.9754 33.1647 40.4457 30.5458C40.8679 28.3119 40.7793 26.2605 40.1205 24.4271C39.4631 22.5975 38.3271 21.137 36.7263 20.0768C36.1119 19.667 35.4453 19.3403 34.7298 19.0931H39.3098H40.2283H41.3098H42.2283L42.3062 18.1779C42.4879 16.0435 42.1027 14.0606 41.1335 12.2585C40.1741 10.4379 38.7081 9.00154 36.779 7.94527C34.8217 6.87349 32.4748 6.36389 29.7829 6.36389C29.452 6.36389 29.1236 6.37224 28.7975 6.38895C28.465 6.37221 28.1268 6.36389 27.7829 6.36389C25.3739 6.36389 23.0927 6.80644 20.9484 7.69689C18.813 8.57336 16.8861 9.83966 15.1707 11.4877L15.1707 11.4877L15.1682 11.4901C13.4636 13.1393 12.0236 15.1255 10.8427 17.4369L10.8427 17.4369L10.8408 17.4406C9.66803 19.7593 8.81657 22.3544 8.27835 25.2176L8.27827 25.218C7.67988 28.4087 7.56756 31.1928 7.98858 33.5418L7.98949 33.5468C8.41752 35.8677 9.25808 37.8181 10.5543 39.3439C11.8247 40.8393 13.3968 41.9379 15.2548 42.6338ZM24.6941 19.1517C24.3058 19.275 23.9269 19.4136 23.5577 19.5676C23.7853 19.1542 24.0284 18.7699 24.2865 18.414C25.1215 17.2746 26.113 16.6108 27.2928 16.375C27.6873 16.4629 28.0217 16.607 28.3064 16.7965L28.3147 16.802L28.3232 16.8074C28.6984 17.0464 28.9426 17.423 28.9696 18.1312L28.9838 18.5016C28.9532 18.5014 28.9225 18.5013 28.8918 18.5013C27.4595 18.5013 26.0591 18.7183 24.6941 19.1517ZM24.6113 34.0735C24.2559 34.2609 23.8837 34.3983 23.4922 34.4849C23.1699 34.4038 22.8909 34.2801 22.648 34.1212L22.3388 34.5937L22.6479 34.1212C22.1776 33.8134 21.8433 33.4007 21.6324 32.8543C21.426 32.3197 21.3635 31.6738 21.4975 30.8826C21.6176 30.2895 21.8218 29.7523 22.1072 29.2649C22.4143 28.7523 22.7803 28.3187 23.2045 27.9575L23.2046 27.9576L23.2125 27.9507C23.6391 27.5797 24.1051 27.301 24.6141 27.1092L24.6141 27.1093L24.6219 27.1062C24.8262 27.0273 25.0342 26.9637 25.2461 26.9157C25.5747 26.9972 25.8554 27.1209 26.0964 27.2786L26.0964 27.2786L26.103 27.2829C26.581 27.5902 26.9089 27.9979 27.1072 28.5328L27.1109 28.5427L27.1147 28.5525C27.3163 29.0629 27.3728 29.7003 27.2147 30.5077L27.2124 30.5191L27.2105 30.5306C27.0753 31.3174 26.7786 32.0062 26.3215 32.6125L26.3214 32.6125L26.3155 32.6205C25.8617 33.235 25.2985 33.7161 24.6164 34.0708L24.6164 34.0708L24.6113 34.0735Z" fill="white" stroke="white" stroke-width="2"/>
<path d="M21.2279 42.6361C19.1938 42.6361 17.3196 42.3232 15.6051 41.6973C13.9041 41.0602 12.4744 40.06 11.316 38.6965C10.1577 37.333 9.37653 35.5559 8.97254 33.3654C8.57992 31.1749 8.676 28.5205 9.26078 25.4023C9.7839 22.6195 10.6079 20.116 11.7328 17.8919C12.8691 15.6678 14.2459 13.7735 15.8631 12.2088C17.4918 10.6441 19.314 9.44827 21.3297 8.62123C23.3475 7.78301 25.4984 7.3639 27.7825 7.3639C30.3507 7.3639 32.5226 7.85007 34.2984 8.8224C36.0741 9.79473 37.3915 11.0968 38.2505 12.7285C39.123 14.349 39.4759 16.1372 39.3095 18.0931H29.9686C29.9314 17.1208 29.562 16.4111 28.8601 15.964C28.1716 15.5058 27.3274 15.2767 26.3274 15.2767C24.3387 15.2767 22.7223 16.1261 21.4781 17.8249C20.2452 19.5236 19.3626 21.7589 18.8302 24.5306H19.0347C19.6711 23.48 20.507 22.5803 21.5424 21.8315C22.5779 21.0827 23.7292 20.5072 24.9963 20.1048C26.2635 19.7025 27.5619 19.5013 28.8914 19.5013C31.005 19.5013 32.7653 19.9707 34.1722 20.9095C35.5905 21.8483 36.5928 23.1336 37.1791 24.7653C37.7654 26.397 37.8596 28.2635 37.4619 30.3646C37.0211 32.8234 36.0345 34.9748 34.5022 36.8189C32.9813 38.6629 31.0762 40.0935 28.7869 41.1105C26.4976 42.1276 23.9779 42.6361 21.2279 42.6361ZM22.4546 35.5951C23.3977 35.5951 24.272 35.3827 25.0774 34.958C25.8941 34.5333 26.5749 33.9522 27.1196 33.2145C27.6757 32.4769 28.0344 31.6387 28.1957 30.6999C28.3817 29.7499 28.3313 28.9117 28.0445 28.1852C27.771 27.4476 27.304 26.8664 26.6435 26.4417C25.9943 26.017 25.1982 25.8047 24.255 25.8047C23.5618 25.8047 22.8971 25.9276 22.261 26.1735C21.6383 26.4082 21.0699 26.7491 20.5559 27.1961C20.0439 27.632 19.6075 28.1517 19.2465 28.7552C18.8989 29.3476 18.6547 29.9958 18.5139 30.6999C18.3526 31.6387 18.4143 32.4769 18.6992 33.2145C18.984 33.9522 19.451 34.5333 20.1001 34.958C20.7493 35.3827 21.5341 35.5951 22.4546 35.5951Z" fill="#00FFFF" style="mix-blend-mode:multiply"/>
<path d="M23.2279 42.6361C21.1938 42.6361 19.3196 42.3232 17.6051 41.6973C15.9041 41.0602 14.4744 40.06 13.316 38.6965C12.1577 37.333 11.3765 35.5559 10.9725 33.3654C10.5799 31.1749 10.676 28.5205 11.2608 25.4023C11.7839 22.6195 12.6079 20.116 13.7328 17.8919C14.8691 15.6678 16.2459 13.7735 17.8631 12.2088C19.4918 10.6441 21.314 9.44827 23.3297 8.62123C25.3475 7.78301 27.4984 7.3639 29.7825 7.3639C32.3507 7.3639 34.5226 7.85007 36.2984 8.8224C38.0741 9.79473 39.3915 11.0968 40.2505 12.7285C41.123 14.349 41.4759 16.1372 41.3095 18.0931H31.9686C31.9314 17.1208 31.562 16.4111 30.8601 15.964C30.1716 15.5058 29.3274 15.2767 28.3274 15.2767C26.3387 15.2767 24.7223 16.1261 23.4781 17.8249C22.2452 19.5236 21.3626 21.7589 20.8302 24.5306H21.0347C21.6711 23.48 22.507 22.5803 23.5424 21.8315C24.5779 21.0827 25.7292 20.5072 26.9963 20.1048C28.2635 19.7025 29.5619 19.5013 30.8914 19.5013C33.005 19.5013 34.7653 19.9707 36.1722 20.9095C37.5905 21.8483 38.5928 23.1336 39.1791 24.7653C39.7654 26.397 39.8596 28.2635 39.4619 30.3646C39.0211 32.8234 38.0345 34.9748 36.5022 36.8189C34.9813 38.6629 33.0762 40.0935 30.7869 41.1105C28.4976 42.1276 25.9779 42.6361 23.2279 42.6361ZM24.4546 35.5951C25.3977 35.5951 26.272 35.3827 27.0774 34.958C27.8941 34.5333 28.5749 33.9522 29.1196 33.2145C29.6757 32.4769 30.0344 31.6387 30.1957 30.6999C30.3817 29.7499 30.3313 28.9117 30.0445 28.1852C29.771 27.4476 29.304 26.8664 28.6435 26.4417C27.9943 26.017 27.1982 25.8047 26.255 25.8047C25.5618 25.8047 24.8971 25.9276 24.261 26.1735C23.6383 26.4082 23.0699 26.7491 22.5559 27.1961C22.0439 27.632 21.6075 28.1517 21.2465 28.7552C20.8989 29.3476 20.6547 29.9958 20.5139 30.6999C20.3526 31.6387 20.4143 32.4769 20.6992 33.2145C20.984 33.9522 21.451 34.5333 22.1001 34.958C22.7493 35.3827 23.5341 35.5951 24.4546 35.5951Z" fill="#FF0000" style="mix-blend-mode:multiply"/>
</svg>
