<svg width="74" height="74" viewBox="0 0 74 74" fill="none" xmlns="http://www.w3.org/2000/svg">
<g id="Property 1=7">
<path id="Vector" d="M14.5524 70.1644L14.1937 70.8868H15.0002H16.1936H17.0002H27.6002H27.9147H29.6002H29.9147L30.0508 70.6034L56.5881 15.3695L56.6171 15.3092L56.6292 15.2434L58.6801 4.09043L58.7887 3.5H58.1884H56.7888H56.1885H25.3384H24.9219H23.3385H22.922L22.8467 3.90957L20.6492 15.8592L20.5407 16.4496H21.141H22.5406H23.1409H41.2288L14.5524 70.1644Z" fill="white" stroke="#D5DDE2"/>
<g id="Vector_2">
<path d="M15 70.3868L44.5848 10.8157L47.5107 15.9496H21.1407L23.3382 4H56.1882L54.1372 15.153L27.6 70.3868H15Z" fill="#00FFFF" style="mix-blend-mode:multiply"/>
<path d="M16.9999 70.3868L46.5848 10.8157L49.5107 15.9496H23.1407L25.3381 4H58.1881L56.1372 15.153L29.5999 70.3868H16.9999Z" fill="#FF0000" style="mix-blend-mode:multiply"/>
</g>
</g>
</svg>
