<svg width="50" height="50" viewBox="0 0 50 50" fill="none" xmlns="http://www.w3.org/2000/svg">
<path d="M19.8228 43.2114H20.3451H21.8228H22.3451L22.6435 42.7827L41.3612 15.8927L41.4848 15.7151L41.5239 15.5022L42.8927 8.05885L43.1099 6.87799H41.9092H41.1099H39.9092H16.0001H15.1673H14.0001H13.1673L13.0166 7.69713L11.6478 15.1405L11.4307 16.3214H12.6313H13.4307H14.6313H26.909L9.25252 41.6394L8.15621 43.2114H10.0728H10.1562H12.0728H19.8228Z" fill="white" stroke="white" stroke-width="2"/>
<path d="M12.0728 42.2114L30.6853 15.5225L30.7223 15.3214H14.6314L16.0002 7.87798H41.9093L40.5405 15.3214L21.8228 42.2114H12.0728Z" fill="#00FFFF" style="mix-blend-mode:multiply"/>
<path d="M10.0728 42.2114L28.6853 15.5225L28.7223 15.3214H12.6314L14.0002 7.87798H39.9093L38.5405 15.3214L19.8228 42.2114H10.0728Z" fill="#FF0000" style="mix-blend-mode:multiply"/>
</svg>
