<svg width="74" height="74" viewBox="0 0 74 74" fill="none" xmlns="http://www.w3.org/2000/svg">
<path d="M29.6264 70.5155H29.6281C29.9858 70.5155 30.3415 70.5107 30.6952 70.5012C31.0028 70.5096 31.3132 70.5144 31.6263 70.5155H31.6281C37.6502 70.5155 43.1039 69.1666 47.9778 66.4606L47.9782 66.4603C52.8746 63.7348 56.9784 59.809 60.2912 54.6965C63.6056 49.5816 65.9153 43.4405 67.2313 36.2853C68.5603 29.175 68.5115 23.0872 67.0485 18.0429C65.5855 12.9982 62.8785 9.13308 58.9189 6.48277C54.9686 3.8151 49.968 2.5 43.9519 2.5C43.6154 2.5 43.2807 2.50408 42.9477 2.51224C42.6189 2.50408 42.287 2.5 41.952 2.5C35.9325 2.5 30.4781 3.80571 25.5996 6.42579L25.5988 6.42623C20.7415 9.04654 16.6662 12.8677 13.3717 17.876L13.3708 17.8773C10.0959 22.8886 7.79767 28.9677 6.46433 36.1015C5.1352 43.2125 5.17504 49.3505 6.61695 54.4967C8.05916 59.6439 10.744 63.6136 14.6823 66.3702C18.6179 69.125 23.6112 70.4943 29.6264 70.5155ZM40.2621 50.778L40.2616 50.7786C38.0778 53.483 35.7406 54.9404 33.2484 55.2465C31.7752 55.0583 30.5385 54.4369 29.517 53.386C28.2994 52.1115 27.4813 50.0955 27.1251 47.2591C26.7748 44.4181 27.0112 40.7661 27.856 36.2869C29.1104 29.6964 30.971 24.9522 33.3948 21.9878C35.543 19.3604 37.861 17.9408 40.3516 17.642C41.8255 17.827 43.0546 18.4398 44.0616 19.474L44.0648 19.4773C45.2884 20.7111 46.1163 22.6643 46.4872 25.4158C46.8558 28.1501 46.6475 31.7066 45.8391 36.103L45.8388 36.1045C44.6213 42.8404 42.7478 47.7097 40.2621 50.778Z" fill="white" stroke="#D5DDE2"/>
<path d="M29.6279 70.0155C23.6872 69.9945 18.8008 68.6429 14.9687 65.9606C11.1367 63.2783 8.51319 59.412 7.09816 54.3618C5.68313 49.3115 5.6356 43.2554 6.95557 36.1934C8.27939 29.1105 10.5573 23.0963 13.7891 18.1508C17.0423 13.2053 21.0579 9.4438 25.8359 6.86628C30.6352 4.28876 36.0071 3 41.9517 3C47.8963 3 52.7923 4.29924 56.6398 6.89771C60.4911 9.47523 63.1339 13.2367 64.5682 18.1822C66.0025 23.1277 66.0596 29.1314 64.7397 36.1934C63.4333 43.2973 61.1439 49.3744 57.8714 54.4246C54.5989 59.4749 50.5534 63.3412 45.7349 66.0235C40.9415 68.6848 35.5725 70.0155 29.6279 70.0155ZM32.2406 55.8077C35.3088 55.8077 38.112 54.236 40.6503 51.0927C43.2137 47.9285 45.1072 42.962 46.3306 36.1934C47.1437 31.7718 47.361 28.157 46.9825 25.349C46.604 22.5409 45.7497 20.4664 44.4196 19.1252C43.0934 17.7631 41.4076 17.0821 39.3621 17.0821C36.2939 17.0821 33.5091 18.6118 31.0075 21.6713C28.506 24.7308 26.625 29.5715 25.3647 36.1934C24.5148 40.6988 24.2695 44.4079 24.6288 47.3207C24.9919 50.2126 25.8346 52.35 27.157 53.7331C28.5006 55.1162 30.1952 55.8077 32.2406 55.8077Z" fill="#00FFFF" style="mix-blend-mode:multiply"/>
<path d="M31.6278 70.0155C25.6871 69.9945 20.8007 68.6429 16.9687 65.9606C13.1366 63.2783 10.5131 59.412 9.09808 54.3618C7.68305 49.3115 7.63552 43.2554 8.95549 36.1934C10.2793 29.1105 12.5572 23.0963 15.7891 18.1508C19.0423 13.2053 23.0579 9.4438 27.8358 6.86628C32.6351 4.28876 38.007 3 43.9516 3C49.8962 3 54.7923 4.29924 58.6397 6.89771C62.491 9.47523 65.1338 13.2367 66.5681 18.1822C68.0024 23.1277 68.0596 29.1314 66.7396 36.1934C65.4332 43.2973 63.1438 49.3744 59.8713 54.4246C56.5989 59.4749 52.5533 63.3412 47.7348 66.0235C42.9414 68.6848 37.5724 70.0155 31.6278 70.0155ZM34.2406 55.8077C37.3087 55.8077 40.112 54.236 42.6502 51.0927C45.2137 47.9285 47.1071 42.962 48.3305 36.1934C49.1436 31.7718 49.3609 28.157 48.9824 25.349C48.6039 22.5409 47.7496 20.4664 46.4195 19.1252C45.0933 17.7631 43.4075 17.0821 41.362 17.0821C38.2938 17.0821 35.509 18.6118 33.0074 21.6713C30.5059 24.7308 28.6249 29.5715 27.3646 36.1934C26.5148 40.6988 26.2695 44.4079 26.6287 47.3207C26.9918 50.2126 27.8345 52.35 29.1569 53.7331C30.5005 55.1162 32.1951 55.8077 34.2406 55.8077Z" fill="#FF0000" style="mix-blend-mode:multiply"/>
</svg>
