<svg width="74" height="74" viewBox="0 0 74 74" fill="none" xmlns="http://www.w3.org/2000/svg">
<path d="M38.49 4.5H36.6167H36.49L36.3787 4.56027L18.4904 14.2417L18.2799 14.3556L18.2366 14.591L15.5082 29.4274L15.3212 30.4443L16.2345 29.9595L17.5375 29.2677L17.5082 29.4274L17.3212 30.4443L18.2344 29.9595L31.3972 22.9712L22.8804 69.2847L22.7718 69.8751H23.3722H24.7717H25.3721H41.142H41.5585H43.142H43.5584L43.6337 69.4655L55.472 5.09043L55.5806 4.5H54.9802H53.5806H52.9803H38.6166H38.49Z" fill="white" stroke="#D5DDE2"/>
<path d="M52.9803 5L41.142 69.3751H23.3722L32.2509 21.0938H31.8673L16 29.5179L18.7284 14.6814L36.6167 5H52.9803Z" fill="#00FFFF" style="mix-blend-mode:multiply"/>
<path d="M54.9802 5L43.142 69.3751H25.3721L34.2508 21.0938H33.8673L17.9999 29.5179L20.7283 14.6814L38.6166 5H54.9802Z" fill="#FF0000" style="mix-blend-mode:multiply"/>
</svg>
