<svg width="74" height="74" viewBox="0 0 74 74" fill="none" xmlns="http://www.w3.org/2000/svg">
<path d="M6.39979 69.7552L6.50837 69.1648L8.82053 56.5915L8.85734 56.3914L9.02345 56.2738L37.0939 36.4083L6.39979 69.7552ZM6.39979 69.7552H7.00012M6.39979 69.7552H7.00012M7.00012 69.7552H8.39971H9.00004H57.2416H57.658M7.00012 69.7552H57.658M57.658 69.7552H59.2415H59.658L59.7333 69.3457L62.2998 55.3893L62.4084 54.7989H61.808H60.4084H59.8081H37.3435L43.6605 50.2997C49.4055 46.2078 53.9166 42.6743 57.1867 39.7008C60.4542 36.7295 62.8618 34.0005 64.3871 31.514L64.3878 31.5128C65.91 29.0162 66.9098 26.4969 67.3771 23.9562C68.1288 19.8681 67.7134 16.2614 66.0895 13.1674C64.4893 10.0779 61.8495 7.70235 58.2115 6.02972C54.5958 4.33484 50.1325 3.5 44.8425 3.5C44.517 3.5 44.1934 3.50359 43.8718 3.51076C43.5323 3.50358 43.1892 3.5 42.8426 3.5C37.713 3.5 33.0615 4.39051 28.8961 6.18103C24.7314 7.97121 21.2834 10.5333 18.5618 13.8682C15.8358 17.2083 14.0531 21.1855 13.2069 25.787L13.0983 26.3775H13.6987H15.0983H15.6986H30.5737H30.9901H32.5736H32.99L33.0653 25.9679C33.3857 24.2261 33.9829 22.769 34.8448 21.582C35.7105 20.39 36.7803 19.4918 38.0575 18.8793C39.0776 18.3982 40.1772 18.1033 41.3601 17.9976C42.4984 18.1029 43.4707 18.3953 44.288 18.862L44.288 18.8621L44.2948 18.8658C45.3397 19.4413 46.0748 20.2569 46.5174 21.3228L46.5174 21.3229L46.5204 21.3299C46.9789 22.3877 47.0858 23.6958 46.7937 25.2841C46.529 26.7234 45.9846 28.0287 45.16 29.2053L45.16 29.2053L45.1567 29.2101C44.3415 30.4025 43.2576 31.5749 41.8972 32.7253L41.8971 32.7254C40.548 33.8665 38.9476 35.0941 37.0943 36.4081L57.658 69.7552Z" fill="white" stroke="#D5DDE2"/>
<path d="M7 69.2552L9.31216 56.682L37.383 36.8162C39.2451 35.496 40.8574 34.2597 42.2199 33.1071C43.6076 31.9336 44.7241 30.7287 45.5693 29.4923C46.4359 28.2559 47.0079 26.8833 47.2854 25.3745C47.5898 23.7191 47.4877 22.3046 46.9791 21.1311C46.4917 19.9576 45.6773 19.0565 44.5358 18.4278C43.3982 17.7782 42.0091 17.4534 40.3684 17.4534C38.7278 17.4534 37.2192 17.7782 35.8427 18.4278C34.4874 19.0774 33.3533 20.0309 32.4402 21.2882C31.5272 22.5456 30.905 24.0753 30.5736 25.8775H13.6986C14.5309 21.3511 16.2811 17.4534 18.949 14.1843C21.6169 10.9153 24.9984 8.40064 29.0934 6.64039C33.1884 4.88013 37.7714 4 42.8425 4C48.0839 4 52.4701 4.82774 56.0009 6.48322C59.5568 8.11775 62.1052 10.4228 63.6461 13.3985C65.2082 16.3742 65.6213 19.8633 64.8853 23.8658C64.4305 26.3385 63.4557 28.8008 61.9608 31.2525C60.4698 33.6834 58.0996 36.3761 54.8503 39.3309C51.6009 42.2856 47.1076 45.8061 41.3704 49.8924L34.3092 54.9217L34.2398 55.2989H59.808L57.2415 69.2552H7Z" fill="#00FFFF" style="mix-blend-mode:multiply"/>
<path d="M8.99992 69.2552L11.3121 56.682L39.3829 36.8162C41.245 35.496 42.8573 34.2597 44.2198 33.1071C45.6075 31.9336 46.724 30.7287 47.5692 29.4923C48.4358 28.2559 49.0078 26.8833 49.2853 25.3745C49.5897 23.7191 49.4876 22.3046 48.979 21.1311C48.4917 19.9576 47.6773 19.0565 46.5358 18.4278C45.3981 17.7782 44.009 17.4534 42.3684 17.4534C40.7277 17.4534 39.2191 17.7782 37.8426 18.4278C36.4873 19.0774 35.3532 20.0309 34.4401 21.2882C33.5271 22.5456 32.9049 24.0753 32.5735 25.8775H15.6985C16.5308 21.3511 18.281 17.4534 20.9489 14.1843C23.6168 10.9153 26.9983 8.40064 31.0933 6.64039C35.1883 4.88013 39.7713 4 44.8424 4C50.0838 4 54.47 4.82774 58.0008 6.48322C61.5567 8.11775 64.1051 10.4228 65.646 13.3985C67.2082 16.3742 67.6212 19.8633 66.8852 23.8658C66.4305 26.3385 65.4556 28.8008 63.9607 31.2525C62.4697 33.6834 60.0995 36.3761 56.8502 39.3309C53.6008 42.2856 49.1076 45.8061 43.3703 49.8924L36.3091 54.9217L36.2397 55.2989H61.8079L59.2414 69.2552H8.99992Z" fill="#FF0000" style="mix-blend-mode:multiply"/>
</svg>
