<svg width="74" height="74" viewBox="0 0 74 74" fill="none" xmlns="http://www.w3.org/2000/svg">
<path d="M17.6579 67.977L17.6612 67.9786C21.429 69.7566 25.9266 70.6354 31.1377 70.6354C31.4835 70.6354 31.8275 70.6319 32.1695 70.6251C32.4894 70.6319 32.8121 70.6354 33.1376 70.6354C38.5375 70.6354 43.4699 69.7995 47.9289 68.12C52.403 66.4429 56.0952 64.1219 58.9908 61.1488C61.9129 58.1703 63.7283 54.7398 64.42 50.8643C65.2088 46.8086 64.4838 43.3792 62.1843 40.6445C60.1575 38.2117 56.9411 36.6635 52.6171 35.9385C55.9737 35.3344 58.9581 34.0204 61.561 31.9931C64.6357 29.615 66.5049 26.5526 67.1476 22.8232C67.853 19.1016 67.3923 15.7635 65.734 12.8394C64.1069 9.90475 61.5206 7.61801 58.0117 5.96817C54.5182 4.31551 50.3177 3.5 45.4274 3.5C45.0931 3.5 44.7606 3.50388 44.4299 3.51165C44.099 3.50388 43.7649 3.5 43.4275 3.5C38.4253 3.5 33.8227 4.36967 29.6258 6.11588C25.4348 7.85963 21.9325 10.2679 19.1291 13.3447L19.1278 13.3461C16.3389 16.4308 14.5595 19.9929 13.7964 24.0242L13.6842 24.6172H14.2877H15.6841H16.2876H31.2905H31.7003H33.2904H33.7002L33.7807 24.2154C34.0228 23.0067 34.5653 21.9356 35.4158 20.9949C36.2711 20.0488 37.3431 19.3042 38.6415 18.7643C39.6594 18.3478 40.7482 18.0907 41.9101 17.9954C42.9189 18.0877 43.779 18.3306 44.5003 18.7126L44.5041 18.7145C45.469 19.215 46.1418 19.8943 46.5519 20.7499C46.9581 21.5977 47.0622 22.5945 46.8267 23.7673L46.8251 23.7752L46.8238 23.7832C46.6234 24.9792 46.0867 26.0421 45.1993 26.9797L45.1993 26.9797L45.1954 26.9838C44.3238 27.9259 43.192 28.672 41.785 29.2143L41.7827 29.2152C40.4018 29.7554 38.8573 30.0296 37.1426 30.0296H32.4948H32.0783H30.4948H30.0784L30.0031 30.4392L27.7834 42.5095L27.6748 43.0999H28.2752H29.6748H30.2751H34.9229C36.7934 43.0999 38.3668 43.3761 39.6572 43.9106C40.951 44.4464 41.8529 45.1729 42.41 46.0699L42.4099 46.0699L42.414 46.0763C42.982 46.9608 43.1609 47.9784 42.9231 49.1655L42.9216 49.1733L42.9202 49.181C42.7143 50.4089 42.1983 51.4979 41.3658 52.4564C40.5282 53.4206 39.4642 54.1843 38.1631 54.744C37.1417 55.1683 36.0324 55.4272 34.8321 55.5173C33.62 55.4292 32.5687 55.1802 31.6708 54.7794C30.5277 54.2693 29.7094 53.578 29.1813 52.718C28.6829 51.8453 28.5177 50.8556 28.7064 49.7231L28.8035 49.1409H28.2132H26.8035H26.2133H10.3155H9.89688H8.31558H7.89696L7.82337 49.553C7.09166 53.6506 7.5988 57.3121 9.37655 60.5084C11.1475 63.6924 13.9188 66.179 17.6579 67.977ZM51.256 36.2456C52.1163 36.3526 52.9338 36.4891 53.7083 36.6549C53.0204 36.4444 52.2946 36.262 51.5314 36.1074C51.4463 36.1186 51.361 36.1294 51.2754 36.1397L51.256 36.2456ZM51.2902 36.0597L51.3386 35.7965C51.3817 35.7873 51.4247 35.7779 51.4677 35.7685C51.3104 35.7482 51.1518 35.7289 50.9918 35.7106L51.2902 36.0597Z" fill="white" stroke="#D5DDE2"/>
<path d="M31.1377 70.1354C25.9814 70.1354 21.5604 69.2657 17.8745 67.5264C14.2139 65.7661 11.5269 63.3458 9.81351 60.2653C8.10016 57.1849 7.60085 53.6434 8.31558 49.6409H26.2133C26.0073 50.8773 26.1865 51.9879 26.7512 52.9729C27.3409 53.9368 28.2462 54.6912 29.4671 55.236C30.6879 55.7809 32.1506 56.0533 33.8551 56.0533C35.4958 56.0533 36.9966 55.7704 38.3578 55.2046C39.7228 54.6179 40.8513 53.8111 41.7432 52.7843C42.6352 51.7574 43.1919 50.5839 43.4134 49.2637C43.6736 47.9645 43.4807 46.812 42.8347 45.8061C42.21 44.8002 41.2146 44.0144 39.8485 43.4486C38.4824 42.8828 36.8405 42.5999 34.9229 42.5999H28.2752L30.4948 30.5296H37.1426C38.911 30.5296 40.5185 30.2467 41.9648 29.6809C43.4325 29.1151 44.6317 28.3293 45.5624 27.3234C46.5144 26.3175 47.0993 25.165 47.3169 23.8658C47.5694 22.6084 47.4647 21.4978 47.0028 20.5338C46.5408 19.5699 45.7847 18.8155 44.7343 18.2707C43.7052 17.7258 42.4449 17.4534 40.9535 17.4534C39.3342 17.4534 37.8333 17.7363 36.4508 18.3021C35.0897 18.8679 33.9544 19.6537 33.045 20.6596C32.1356 21.6654 31.5508 22.818 31.2905 24.1172H14.2877C15.0335 20.1776 16.7705 16.699 19.4987 13.6814C22.2482 10.6638 25.6879 8.29586 29.8178 6.57752C33.9478 4.85917 38.4843 4 43.4275 4C48.2641 4 52.3878 4.80678 55.7984 6.42035C59.2304 8.03392 61.7303 10.2552 63.2981 13.0842C64.8911 15.8922 65.3436 19.1089 64.6557 22.7342C64.0355 26.3385 62.235 29.2932 59.2543 31.5983C56.2949 33.9034 52.8271 35.2655 48.8508 35.6846L48.7584 36.1875C53.9384 36.7533 57.6192 38.346 59.8009 40.9654C61.9864 43.5639 62.6956 46.8329 61.9285 50.7725C61.2562 54.5445 59.491 57.8869 56.6329 60.7997C53.7961 63.7125 50.1694 65.9967 45.7527 67.6521C41.3574 69.3076 36.4857 70.1354 31.1377 70.1354Z" fill="#00FFFF" style="mix-blend-mode:multiply"/>
<path d="M33.1376 70.1354C27.9813 70.1354 23.5603 69.2657 19.8745 67.5264C16.2138 65.7661 13.5268 63.3458 11.8134 60.2653C10.1001 57.1849 9.60077 53.6434 10.3155 49.6409H28.2132C28.0072 50.8773 28.1865 51.9879 28.7511 52.9729C29.3409 53.9368 30.2462 54.6912 31.467 55.236C32.6878 55.7809 34.1505 56.0533 35.8551 56.0533C37.4957 56.0533 38.9966 55.7704 40.3577 55.2046C41.7227 54.6179 42.8512 53.8111 43.7431 52.7843C44.6351 51.7574 45.1918 50.5839 45.4133 49.2637C45.6735 47.9645 45.4806 46.812 44.8346 45.8061C44.21 44.8002 43.2145 44.0144 41.8484 43.4486C40.4823 42.8828 38.8404 42.5999 36.9228 42.5999H30.2751L32.4948 30.5296H39.1425C40.911 30.5296 42.5184 30.2467 43.9648 29.6809C45.4324 29.1151 46.6316 28.3293 47.5623 27.3234C48.5144 26.3175 49.0992 25.165 49.3168 23.8658C49.5693 22.6084 49.4646 21.4978 49.0027 20.5338C48.5407 19.5699 47.7846 18.8155 46.7342 18.2707C45.7051 17.7258 44.4449 17.4534 42.9534 17.4534C41.3341 17.4534 39.8332 17.7363 38.4507 18.3021C37.0896 18.8679 35.9543 19.6537 35.0449 20.6596C34.1355 21.6654 33.5507 22.818 33.2904 24.1172H16.2876C17.0334 20.1776 18.7704 16.699 21.4986 13.6814C24.2481 10.6638 27.6878 8.29586 31.8178 6.57752C35.9477 4.85917 40.4842 4 45.4274 4C50.2641 4 54.3877 4.80678 57.7984 6.42035C61.2303 8.03392 63.7302 10.2552 65.2981 13.0842C66.8911 15.8922 67.3436 19.1089 66.6556 22.7342C66.0354 26.3385 64.2349 29.2932 61.2542 31.5983C58.2948 33.9034 54.827 35.2655 50.8508 35.6846L50.7583 36.1875C55.9383 36.7533 59.6192 38.346 61.8008 40.9654C63.9863 43.5639 64.6955 46.8329 63.9284 50.7725C63.2561 54.5445 61.4909 57.8869 58.6328 60.7997C55.796 63.7125 52.1693 65.9967 47.7526 67.6521C43.3573 69.3076 38.4856 70.1354 33.1376 70.1354Z" fill="#FF0000" style="mix-blend-mode:multiply"/>
</svg>
