<svg width="74" height="74" viewBox="0 0 74 74" fill="none" xmlns="http://www.w3.org/2000/svg">
<path d="M6.50825 59.2261L6.39967 59.8165H7H8.39959H8.99992H38.2321L36.4909 69.2847L36.3823 69.8751H36.9827H38.3822H38.9826H53.9855H54.4019H55.9854H56.4019L56.4772 69.4655L58.2516 59.8165H63.3778H63.7943H65.3778H65.7942L65.8695 59.4069L68.3667 45.8278L68.4752 45.2374H67.8749H66.4753H65.875H60.9326L68.3154 5.09043L68.424 4.5H67.8237H66.4241H65.8238H58.4524H57.8521H56.4525H55.8522H51.2044H50.7879H49.2045H48.788H45.3237H45.089H43.3238H43.0891L42.9391 4.68058L9.11246 45.4179L9.02901 45.5185L9.00538 45.6469L6.50825 59.2261ZM41.2966 45.2374H29.7496L44.608 27.2305L41.2966 45.2374Z" fill="white" stroke="#D5DDE2"/>
<path d="M7.00024 59.3165L9.49738 45.7374L43.324 5H55.8524L52.5229 23.1055H45.3638L27.1041 45.2344L27.0116 45.7374H65.8752L63.3781 59.3165H7.00024ZM36.9829 69.3751L39.5956 55.1673L41.0659 49.2579L49.2047 5H65.824L53.9857 69.3751H36.9829Z" fill="#00FFFF" style="mix-blend-mode:multiply"/>
<path d="M9.00016 59.3165L11.4973 45.7374L45.3239 5H57.8523L54.5228 23.1055H47.3637L29.104 45.2344L29.0115 45.7374H67.8751L65.378 59.3165H9.00016ZM38.9828 69.3751L41.5956 55.1673L43.0658 49.2579L51.2046 5H67.8239L55.9857 69.3751H38.9828Z" fill="#FF0000" style="mix-blend-mode:multiply"/>
</svg>
