<svg width="74" height="74" viewBox="0 0 74 74" fill="none" xmlns="http://www.w3.org/2000/svg">
<path d="M17.3573 67.0943L17.3606 67.096C21.0236 68.8759 25.406 69.7552 30.4907 69.7552C30.8267 69.7552 31.1608 69.7514 31.4929 69.7437C31.8224 69.7514 32.155 69.7552 32.4907 69.7552C37.8794 69.7552 42.7645 68.7691 47.1373 66.7874L47.139 66.7866C51.5085 64.7868 55.1281 62.0271 57.9887 58.506C60.8767 54.9613 62.7306 50.9021 63.5489 46.3366C64.3341 42.1823 64.1156 38.4812 62.8597 35.2539C61.6328 32.0155 59.6009 29.468 56.7695 27.6276C53.9539 25.7836 50.5451 24.8745 46.5686 24.8745C46.2321 24.8745 45.8984 24.8811 45.5674 24.8941C45.2386 24.8811 44.9057 24.8745 44.5687 24.8745C41.1784 24.8745 38.0666 25.5375 35.2411 26.8706C34.2049 27.3525 33.2593 27.8832 32.406 28.4634L35.1467 18.4563H62.1687H62.5851H64.1686H64.585L64.6604 18.0467L67.2268 4.09043L67.3354 3.5H66.7351H65.3355H64.7352H22.7578H22.3697H20.7579H20.3698L20.2735 3.876L11.1964 39.3326L11.0657 39.8432L11.5824 39.9468L26.6241 42.9644L26.9547 43.0307L27.1401 42.7491C27.1561 42.7248 27.1722 42.7006 27.1884 42.6764L28.624 42.9644L28.9546 43.0307L29.14 42.7491C30.1251 41.2529 31.4445 40.0848 33.1082 39.2426L33.1098 39.2418C34.4921 38.5355 35.9039 38.1195 37.348 37.9893C38.641 38.1075 39.7392 38.46 40.6559 39.0321L40.6559 39.0321L40.6617 39.0356C41.8091 39.7302 42.6256 40.7194 43.1174 42.0221L43.1188 42.0256C43.6102 43.2983 43.6987 44.8328 43.3433 46.6533L43.3432 46.6533L43.3413 46.6641C43.0319 48.458 42.3767 50.0179 41.3809 51.3538C40.3798 52.6968 39.1527 53.7352 37.6965 54.4748C36.5346 55.0496 35.2826 55.3958 33.9363 55.5106C32.1493 55.3504 30.6956 54.7404 29.5465 53.7031C28.2505 52.5144 27.7371 50.9217 28.0604 48.8375L28.1498 48.2608H27.5663H26.1499H25.5664H10.3078H9.88695H8.30785H7.88703L7.81519 48.6755C7.10596 52.7692 7.5907 56.427 9.30107 59.6212L9.30234 59.6236C11.0286 62.8064 13.7234 65.2946 17.3573 67.0943Z" fill="white" stroke="#D5DDE2"/>
<path d="M30.4907 69.2552C25.4623 69.2552 21.1585 68.3856 17.5792 66.6463C14.025 64.886 11.4126 62.4657 9.74186 59.3852C8.09243 56.3048 7.61443 52.7633 8.30785 48.7608H25.5664C25.2218 50.9821 25.7698 52.7528 27.2102 54.073C28.672 55.3932 30.5748 56.0533 32.9185 56.0533C34.7296 56.0533 36.397 55.6761 37.9206 54.9217C39.4482 54.1464 40.7352 53.0567 41.7817 51.6527C42.8283 50.2486 43.5124 48.6141 43.834 46.7491C44.2022 44.8631 44.1192 43.2286 43.5852 41.8455C43.0551 40.4415 42.1669 39.3623 40.9207 38.6079C39.6783 37.8326 38.1516 37.4449 36.3405 37.4449C34.4655 37.4449 32.6461 37.8954 30.8824 38.7965C29.1439 39.6766 27.7572 40.9025 26.7225 42.4742L11.6808 39.4566L20.7579 4H64.7352L62.1687 17.9563H32.7653L28.8741 32.1641H29.2576C30.6387 30.2152 32.7039 28.6017 35.4532 27.3234C38.2063 26.0242 41.2448 25.3745 44.5687 25.3745C48.4679 25.3745 51.7771 26.2652 54.4964 28.0464C57.237 29.8276 59.2026 32.2898 60.393 35.4332C61.6086 38.5555 61.83 42.1598 61.0572 46.2462C60.2539 50.7306 58.435 54.7122 55.6007 58.1908C52.7916 61.6484 49.235 64.3621 44.931 66.3319C40.6309 68.2808 35.8174 69.2552 30.4907 69.2552Z" fill="#00FFFF" style="mix-blend-mode:multiply"/>
<path d="M32.4907 69.2552C27.4622 69.2552 23.1584 68.3856 19.5791 66.6463C16.025 64.886 13.4125 62.4657 11.7418 59.3852C10.0924 56.3048 9.61435 52.7633 10.3078 48.7608H27.5663C27.2217 50.9821 27.7697 52.7528 29.2101 54.073C30.6719 55.3932 32.5747 56.0533 34.9184 56.0533C36.7295 56.0533 38.3969 55.6761 39.9206 54.9217C41.4481 54.1464 42.7351 53.0567 43.7817 51.6527C44.8282 50.2486 45.5123 48.6141 45.834 46.7491C46.2021 44.8631 46.1192 43.2286 45.5851 41.8455C45.055 40.4415 44.1668 39.3623 42.9206 38.6079C41.6782 37.8326 40.1515 37.4449 38.3404 37.4449C36.4654 37.4449 34.6461 37.8954 32.8824 38.7965C31.1438 39.6766 29.7571 40.9025 28.7224 42.4742L13.6807 39.4566L22.7578 4H66.7351L64.1686 17.9563H34.7652L30.874 32.1641H31.2576C32.6387 30.2152 34.7039 28.6017 37.4531 27.3234C40.2063 26.0242 43.2448 25.3745 46.5686 25.3745C50.4678 25.3745 53.777 26.2652 56.4963 28.0464C59.237 29.8276 61.2025 32.2898 62.3929 35.4332C63.6085 38.5555 63.8299 42.1598 63.0571 46.2462C62.2538 50.7306 60.4349 54.7122 57.6006 58.1908C54.7915 61.6484 51.2349 64.3621 46.9309 66.3319C42.6308 68.2808 37.8174 69.2552 32.4907 69.2552Z" fill="#FF0000" style="mix-blend-mode:multiply"/>
</svg>
