<svg width="74" height="74" viewBox="0 0 74 74" fill="none" xmlns="http://www.w3.org/2000/svg">
<path d="M19.7045 68.8434L19.7085 68.8448C22.9839 70.0405 26.5569 70.6354 30.4227 70.6354C30.7677 70.6354 31.1109 70.6311 31.4522 70.6227C31.7736 70.6311 32.0971 70.6354 32.4226 70.6354C37.6419 70.6354 42.4363 69.6699 46.7986 67.7319C51.1581 65.7951 54.7937 63.0669 57.6971 59.5469C60.6269 56.0207 62.5117 51.9073 63.353 47.217C64.111 43.211 63.9371 39.6189 62.8015 36.4585C61.6666 33.3 59.7205 30.8025 56.9699 28.9816C54.2315 27.1546 50.8284 26.2576 46.7916 26.2576C46.462 26.2576 46.1333 26.2641 45.8056 26.277C45.4722 26.2641 45.1342 26.2576 44.7917 26.2576C42.2475 26.2576 39.762 26.6427 37.3371 27.4126C34.9125 28.1825 32.7056 29.2852 30.7194 30.7217C30.3237 31.0078 29.9429 31.3056 29.5772 31.6149C30.5268 28.5797 31.7684 26.0136 33.2956 23.909C35.3217 21.1431 37.8688 19.6455 40.9615 19.3796C42.3266 19.5039 43.4865 19.8962 44.4559 20.5414L44.4559 20.5415L44.4643 20.5469C45.617 21.2811 46.2472 22.4452 46.3117 24.1363L46.3301 24.6172H46.8113H48.33H48.8113H64.3255H64.7848H66.3255H66.7847L66.8237 24.1596C67.1434 20.4032 66.4655 16.953 64.7814 13.8238C63.1205 10.6698 60.576 8.16124 57.1698 6.29613C53.7495 4.42328 49.5896 3.5 44.7124 3.5C44.3837 3.5 44.0563 3.50457 43.7304 3.5137C43.3947 3.50456 43.0554 3.5 42.7125 3.5C38.3674 3.5 34.2693 4.29755 30.4227 5.89532C26.5833 7.47074 23.1144 9.74819 20.0173 12.7236L20.016 12.7248C16.94 15.7008 14.3269 19.2987 12.1741 23.5125L12.1732 23.5144C10.04 27.7318 8.48127 32.4716 7.49287 37.7297L7.49283 37.7299C6.38956 43.6128 6.20129 48.6545 6.95167 52.841L6.95166 52.841L6.95212 52.8435C7.72161 57.0159 9.216 60.4346 11.4568 63.0723C13.6848 65.6948 16.4366 67.6195 19.7045 68.8434ZM37.4097 55.2954L37.4072 55.2967C36.2653 55.8989 35.0454 56.2623 33.7434 56.3858C32.5231 56.263 31.4733 55.9038 30.5817 55.3206C29.4539 54.5827 28.6447 53.5772 28.1476 52.2898C27.6528 51.0085 27.5366 49.5331 27.8253 47.8464C28.079 46.5816 28.5169 45.4217 29.1375 44.3636C29.7874 43.2774 30.5706 42.346 31.4867 41.5662L31.4907 41.5627C32.4107 40.7625 33.4253 40.1545 34.536 39.7359L34.5399 39.7344C35.3676 39.4144 36.2224 39.2111 37.1054 39.1246C38.3524 39.2479 39.4138 39.6076 40.3031 40.1894L40.3065 40.1915C41.4537 40.9291 42.2597 41.9321 42.7349 43.2138L42.7348 43.2138L42.7386 43.2236C43.2339 44.4777 43.3314 45.949 42.9965 47.6588L42.9964 47.6588L42.9944 47.6703C42.7051 49.3545 42.0635 50.8515 41.0703 52.1689L41.0674 52.1729C40.0914 53.4944 38.8738 54.5341 37.4097 55.2954Z" fill="white" stroke="#D5DDE2"/>
<path d="M30.4224 70.1354C26.6085 70.1354 23.0943 69.5486 19.8797 68.3751C16.6902 67.1806 14.0096 65.3051 11.8377 62.7486C9.66575 60.192 8.20106 56.8601 7.44358 52.7528C6.70741 48.6456 6.88756 43.6686 7.98402 37.8221C8.96487 32.6042 10.5099 27.9102 12.6191 23.74C14.7496 19.5699 17.3311 16.0179 20.3635 13.0842C23.4172 10.1504 26.8338 7.90819 30.6132 6.35748C34.3966 4.78583 38.4296 4 42.7123 4C47.5276 4 51.6 4.91156 54.9295 6.73468C58.259 8.55781 60.7291 10.9991 62.3398 14.0586C63.9756 17.0971 64.6375 20.45 64.3253 24.1172H46.8111C46.7415 22.2941 46.0487 20.9634 44.7327 20.1252C43.4418 19.266 41.8589 18.8364 39.9839 18.8364C36.2552 18.8364 33.2244 20.4291 30.8915 23.6143C28.5799 26.7995 26.925 30.9906 25.9266 36.1875H26.3102C27.5034 34.2177 29.0707 32.5308 31.0121 31.1268C32.9536 29.7228 35.1122 28.6436 37.4882 27.8892C39.8641 27.1348 42.2986 26.7576 44.7915 26.7576C48.7545 26.7576 52.055 27.6377 54.693 29.398C57.3522 31.1582 59.2315 33.5681 60.3308 36.6276C61.4301 39.6871 61.6069 43.1867 60.8611 47.1263C60.0346 51.7365 58.1848 55.7704 55.3118 59.2281C52.46 62.6857 48.8879 65.368 44.5955 67.2749C40.303 69.1819 35.5787 70.1354 30.4224 70.1354ZM32.7224 56.9334C34.4908 56.9334 36.1301 56.5353 37.6402 55.739C39.1716 54.9427 40.4479 53.853 41.4693 52.4699C42.512 51.0869 43.1846 49.5152 43.487 47.755C43.8358 45.9737 43.7413 44.4021 43.2034 43.04C42.6907 41.6569 41.8151 40.5672 40.5766 39.7709C39.3594 38.9746 37.8666 38.5765 36.0981 38.5765C34.7984 38.5765 33.5522 38.807 32.3595 39.268C31.1919 39.7081 30.1262 40.3472 29.1624 41.1854C28.2024 42.0027 27.384 42.9771 26.7072 44.1087C26.0555 45.2193 25.5976 46.4348 25.3335 47.755C25.0312 49.5152 25.147 51.0869 25.681 52.4699C26.215 53.853 27.0906 54.9427 28.3078 55.739C29.525 56.5353 30.9965 56.9334 32.7224 56.9334Z" fill="#00FFFF" style="mix-blend-mode:multiply"/>
<path d="M32.4224 70.1354C28.6084 70.1354 25.0942 69.5486 21.8796 68.3751C18.6902 67.1806 16.0095 65.3051 13.8376 62.7486C11.6657 60.192 10.201 56.8601 9.4435 52.7528C8.70733 48.6456 8.88748 43.6686 9.98394 37.8221C10.9648 32.6042 12.5098 27.9102 14.619 23.74C16.7495 19.5699 19.331 16.0179 22.3634 13.0842C25.4171 10.1504 28.8337 7.90819 32.6132 6.35748C36.3965 4.78583 40.4295 4 44.7122 4C49.5275 4 53.5999 4.91156 56.9295 6.73468C60.259 8.55781 62.7291 10.9991 64.3397 14.0586C65.9756 17.0971 66.6374 20.45 66.3252 24.1172H48.811C48.7414 22.2941 48.0487 20.9634 46.7326 20.1252C45.4418 19.266 43.8588 18.8364 41.9838 18.8364C38.2551 18.8364 35.2243 20.4291 32.8914 23.6143C30.5798 26.7995 28.9249 30.9906 27.9266 36.1875H28.3101C29.5033 34.2177 31.0706 32.5308 33.012 31.1268C34.9535 29.7228 37.1122 28.6436 39.4881 27.8892C41.864 27.1348 44.2985 26.7576 46.7914 26.7576C50.7544 26.7576 54.0549 27.6377 56.6929 29.398C59.3521 31.1582 61.2314 33.5681 62.3307 36.6276C63.43 39.6871 63.6068 43.1867 62.861 47.1263C62.0345 51.7365 60.1848 55.7704 57.3117 59.2281C54.4599 62.6857 50.8878 65.368 46.5954 67.2749C42.303 69.1819 37.5786 70.1354 32.4224 70.1354ZM34.7223 56.9334C36.4908 56.9334 38.13 56.5353 39.6401 55.739C41.1715 54.9427 42.4479 53.853 43.4692 52.4699C44.5119 51.0869 45.1845 49.5152 45.4869 47.755C45.8357 45.9737 45.7412 44.4021 45.2034 43.04C44.6907 41.6569 43.8151 40.5672 42.5765 39.7709C41.3593 38.9746 39.8665 38.5765 38.0981 38.5765C36.7983 38.5765 35.5521 38.807 34.3594 39.268C33.1918 39.7081 32.1261 40.3472 31.1623 41.1854C30.2024 42.0027 29.384 42.9771 28.7071 44.1087C28.0554 45.2193 27.5976 46.4348 27.3335 47.755C27.0311 49.5152 27.1469 51.0869 27.6809 52.4699C28.2149 53.853 29.0905 54.9427 30.3077 55.739C31.5249 56.5353 32.9964 56.9334 34.7223 56.9334Z" fill="#FF0000" style="mix-blend-mode:multiply"/>
</svg>
