<svg width="74" height="74" viewBox="0 0 74 74" fill="none" xmlns="http://www.w3.org/2000/svg">
<path d="M7.58988 69.0891L7.04173 69.8751H8H9.04165H9.99992H26.2812H26.5424H28.2812H28.5423L28.6915 69.6608L63.7872 19.242L63.849 19.1532L63.8686 19.0467L66.4351 5.09043L66.5436 4.5H65.9433H64.5437H63.9434H17.3638H16.9473H15.3638H14.9474L14.8721 4.90957L12.3056 18.8659L12.197 19.4563H12.7973H14.1969H14.7973H42.2032L7.58988 69.0891Z" fill="white" stroke="#D5DDE2"/>
<path d="M8 69.3751L42.8984 19.3335L42.9678 18.9563H12.7973L15.3638 5H63.9434L61.3769 18.9563L26.2812 69.3751H8Z" fill="#00FFFF" style="mix-blend-mode:multiply"/>
<path d="M9.99992 69.3751L44.8983 19.3335L44.9677 18.9563H14.7973L17.3638 5H65.9433L63.3768 18.9563L28.2812 69.3751H9.99992Z" fill="#FF0000" style="mix-blend-mode:multiply"/>
</svg>
