<svg width="74" height="74" viewBox="0 0 74 74" fill="none" xmlns="http://www.w3.org/2000/svg">
<path d="M52.7844 36.3495C55.1405 36.8262 57.2196 37.7152 59.0217 39.0165C61.0569 40.4625 62.554 42.2856 63.513 44.4859C64.472 46.6862 64.7068 49.1171 64.2174 51.7784C63.5777 55.257 61.8104 58.3794 58.9153 61.1455C56.0416 63.9116 52.3789 66.1014 47.9274 67.715L52.7844 36.3495ZM52.7844 36.3495C52.6483 36.3064 52.5111 36.2647 52.373 36.2247M17.4488 68.1759L17.4497 68.1763C21.3828 69.8212 26.0224 70.6354 31.356 70.6354C31.6915 70.6354 32.0254 70.6321 32.3576 70.6257C32.6876 70.6321 33.0204 70.6354 33.3559 70.6354C38.691 70.6354 43.6067 69.8207 48.0978 68.1851C52.6026 66.5522 56.3286 64.329 59.2612 61.5065C62.2216 58.6778 64.048 55.4641 64.7092 51.8688C65.2142 49.1225 64.9751 46.589 63.9714 44.2861C62.9748 41.9996 61.4183 40.1062 59.3128 38.6101C57.5453 37.3341 55.5252 36.4454 53.2593 35.9394C56.6425 35.1697 59.6698 33.5826 62.335 31.1841C65.3217 28.4963 67.1683 25.2878 67.8525 21.5673C68.4897 18.1022 67.9358 14.9847 66.1689 12.2481C64.417 9.50783 61.7398 7.37566 58.1753 5.83613C54.608 4.27273 50.3841 3.5 45.5178 3.5C45.1809 3.5 44.8458 3.50365 44.5125 3.51096C44.184 3.50365 43.8525 3.5 43.5179 3.5C38.6498 3.5 34.1578 4.26281 30.0472 5.79466C25.9422 7.3244 22.525 9.43425 19.8086 12.1316C17.0877 14.8163 15.396 17.9031 14.7554 21.3864C14.0751 25.086 14.7139 28.34 16.7042 31.1046L16.7042 31.1046L16.7071 31.1087C18.479 33.5184 20.9317 35.1119 24.0336 35.9005C21.5123 36.3968 19.1195 37.2908 16.8571 38.5814C14.2375 40.0571 12.0204 41.9208 10.2107 44.1727L10.2089 44.175C8.41299 46.4369 7.25896 48.9429 6.75416 51.688C6.09248 55.2861 6.72188 58.5425 8.65576 61.4241L8.65725 61.4263C10.6012 64.29 13.5447 66.534 17.4488 68.1759Z" fill="white" stroke="#D5DDE2"/>
<path d="M31.3562 70.1354C26.0721 70.1354 21.501 69.3286 17.6429 67.715C13.8061 66.1014 10.9489 63.9116 9.07118 61.1455C7.2148 58.3794 6.60646 55.257 7.24616 51.7784C7.73557 49.1171 8.85375 46.6862 10.6007 44.4859C12.369 42.2856 14.5366 40.4625 17.1037 39.0165C19.6745 37.5497 22.4154 36.6067 25.3263 36.1875L25.4188 35.6846C21.8057 35.056 19.0362 33.4319 17.1102 30.8125C15.2094 28.1721 14.5885 25.0602 15.2474 21.4768C15.8679 18.103 17.5056 15.1064 20.1606 12.487C22.8194 9.84657 26.1732 7.77198 30.222 6.26319C34.2708 4.7544 38.7028 4 43.5182 4C48.3335 4 52.4862 4.76487 55.9762 6.29462C59.47 7.80341 62.0608 9.878 63.7486 12.5184C65.4402 15.1378 65.9777 18.124 65.3611 21.4768C64.6983 25.0812 62.9115 28.1931 60.0008 30.8125C57.0902 33.4319 53.7446 35.056 49.9642 35.6846L49.8718 36.1875C52.6072 36.6067 54.9906 37.5497 57.022 39.0165C59.0572 40.4625 60.5543 42.2856 61.5134 44.4859C62.4724 46.6862 62.7072 49.1171 62.2178 51.7784C61.5781 55.257 59.8107 58.3794 56.9156 61.1455C54.0419 63.9116 50.3793 66.1014 45.9277 67.715C41.4975 69.3286 36.6403 70.1354 31.3562 70.1354ZM33.5759 58.065C35.2591 58.065 36.8122 57.7297 38.2353 57.0592C39.6583 56.3886 40.8506 55.4665 41.8121 54.293C42.7988 53.0986 43.429 51.7574 43.7026 50.2696C43.9762 48.7818 43.8355 47.4616 43.2804 46.309C42.7466 45.1565 41.8895 44.2554 40.7093 43.6058C39.5329 42.9352 38.1031 42.5999 36.4198 42.5999C34.7579 42.5999 33.2048 42.9352 31.7604 43.6058C30.3413 44.2554 29.1422 45.1565 28.1632 46.309C27.2055 47.4616 26.5898 48.7818 26.3162 50.2696C26.0426 51.7574 26.1708 53.0881 26.7007 54.2616C27.252 55.4351 28.1139 56.3676 29.2864 57.0592C30.4841 57.7297 31.9139 58.065 33.5759 58.065ZM38.6395 30.5296C40.131 30.5296 41.5079 30.2257 42.7702 29.618C44.0325 29.0103 45.0922 28.1721 45.9493 27.1034C46.8063 26.0346 47.3581 24.8297 47.6048 23.4886C47.8514 22.1474 47.7389 20.9634 47.2672 19.9366C46.7994 18.8888 46.0441 18.0716 45.0014 17.4848C43.9626 16.8771 42.6975 16.5733 41.206 16.5733C39.7358 16.5733 38.3589 16.8771 37.0753 17.4848C35.8168 18.0716 34.761 18.8888 33.9078 19.9366C33.0585 20.9634 32.5105 22.1474 32.2639 23.4886C32.0172 24.8297 32.1259 26.0346 32.5899 27.1034C33.0577 28.1511 33.8091 28.9894 34.8441 29.618C35.9042 30.2257 37.1693 30.5296 38.6395 30.5296Z" fill="#00FFFF" style="mix-blend-mode:multiply"/>
<path d="M33.3561 70.1354C28.072 70.1354 23.5009 69.3286 19.6428 67.715C15.806 66.1014 12.9488 63.9116 11.0711 61.1455C9.21472 58.3794 8.60638 55.257 9.24608 51.7784C9.73549 49.1171 10.8537 46.6862 12.6006 44.4859C14.3689 42.2856 16.5365 40.4625 19.1036 39.0165C21.6745 37.5497 24.4153 36.6067 27.3262 36.1875L27.4187 35.6846C23.8056 35.056 21.0361 33.4319 19.1101 30.8125C17.2093 28.1721 16.5884 25.0602 17.2474 21.4768C17.8678 18.103 19.5055 15.1064 22.1605 12.487C24.8194 9.84657 28.1732 7.77198 32.2219 6.26319C36.2707 4.7544 40.7028 4 45.5181 4C50.3334 4 54.4861 4.76487 57.9761 6.29462C61.4699 7.80341 64.0607 9.878 65.7485 12.5184C67.4401 15.1378 67.9776 18.124 67.361 21.4768C66.6982 25.0812 64.9114 28.1931 62.0008 30.8125C59.0901 33.4319 55.7445 35.056 51.9642 35.6846L51.8717 36.1875C54.6071 36.6067 56.9905 37.5497 59.0219 39.0165C61.0571 40.4625 62.5543 42.2856 63.5133 44.4859C64.4723 46.6862 64.7071 49.1171 64.2177 51.7784C63.578 55.257 61.8106 58.3794 58.9156 61.1455C56.0418 63.9116 52.3792 66.1014 47.9276 67.715C43.4974 69.3286 38.6402 70.1354 33.3561 70.1354ZM35.5758 58.065C37.259 58.065 38.8122 57.7297 40.2352 57.0592C41.6582 56.3886 42.8505 55.4665 43.8121 54.293C44.7988 53.0986 45.4289 51.7574 45.7025 50.2696C45.9761 48.7818 45.8354 47.4616 45.2803 46.309C44.7465 45.1565 43.8895 44.2554 42.7092 43.6058C41.5328 42.9352 40.103 42.5999 38.4198 42.5999C36.7578 42.5999 35.2047 42.9352 33.7603 43.6058C32.3412 44.2554 31.1421 45.1565 30.1631 46.309C29.2054 47.4616 28.5898 48.7818 28.3162 50.2696C28.0425 51.7574 28.1707 53.0881 28.7006 54.2616C29.2519 55.4351 30.1138 56.3676 31.2863 57.0592C32.484 57.7297 33.9139 58.065 35.5758 58.065ZM40.6394 30.5296C42.1309 30.5296 43.5078 30.2257 44.7701 29.618C46.0325 29.0103 47.0921 28.1721 47.9492 27.1034C48.8062 26.0346 49.3581 24.8297 49.6047 23.4886C49.8513 22.1474 49.7388 20.9634 49.2671 19.9366C48.7993 18.8888 48.044 18.0716 47.0014 17.4848C45.9626 16.8771 44.6974 16.5733 43.2059 16.5733C41.7358 16.5733 40.3589 16.8771 39.0752 17.4848C37.8168 18.0716 36.7609 18.8888 35.9077 19.9366C35.0584 20.9634 34.5104 22.1474 34.2638 23.4886C34.0172 24.8297 34.1258 26.0346 34.5898 27.1034C35.0576 28.1511 35.809 28.9894 36.844 29.618C37.9041 30.2257 39.1693 30.5296 40.6394 30.5296Z" fill="#FF0000" style="mix-blend-mode:multiply"/>
</svg>
