<svg width="74" height="74" viewBox="0 0 74 74" fill="none" xmlns="http://www.w3.org/2000/svg">
<path d="M41.9056 3.51272C42.249 3.50424 42.5943 3.5 42.9415 3.5C46.8076 3.5 50.3689 4.10543 53.6203 5.32285C56.8917 6.52527 59.6373 8.42868 61.8484 11.0307C64.0938 13.6478 65.5815 17.046 66.3336 21.1975C67.1133 25.3417 66.9671 30.3308 65.9183 36.1503C64.9611 41.4726 63.4031 46.2663 61.2401 50.5272C61.2401 50.5273 61.2401 50.5273 61.24 50.5274L60.7942 50.301C58.6811 54.4921 56.0958 58.065 53.0383 61.0197L41.9056 3.51272ZM41.9056 3.51272C41.5864 3.50424 41.2651 3.5 40.9416 3.5C35.7013 3.5 30.8963 4.46536 26.5336 6.40348C22.1745 8.34006 18.5408 11.0576 15.6411 14.5568C12.736 18.0626 10.8673 22.1455 10.0339 26.7951L10.0339 26.7955C9.32639 30.7606 9.52664 34.3303 10.6613 37.4882L10.6619 37.4898C11.8007 40.6264 13.7376 43.1126 16.466 44.9333L16.4686 44.935C19.21 46.7399 22.6035 47.6263 26.6189 47.6263C26.9484 47.6263 27.277 47.6198 27.6045 47.6069C27.9381 47.6198 28.2762 47.6263 28.6188 47.6263C31.163 47.6263 33.6485 47.2412 36.0734 46.4712C38.498 45.7014 40.7048 44.5987 42.6911 43.1622C43.1009 42.8659 43.4947 42.5571 43.8724 42.2358C42.9084 45.4126 41.638 48.0731 40.0685 50.2266L40.0679 50.2274C38.0611 52.9926 35.5158 54.4907 32.4055 54.756C31.0405 54.6321 29.8806 54.2403 28.9111 53.5957C27.7895 52.8276 27.1626 51.5823 27.0988 49.7493L27.0821 49.2667H26.5991H25.0821H24.5992H9.08493H8.62694H7.08501H6.62702L6.58693 49.7229C6.24793 53.581 6.8999 57.104 8.55477 60.2766C10.2115 63.4528 12.7546 65.9732 16.1624 67.8392C19.583 69.7122 23.7537 70.6354 28.6518 70.6354C28.9818 70.6354 29.3103 70.6309 29.6373 70.6219C29.9719 70.6309 30.31 70.6354 30.6517 70.6354C35.0173 70.6354 39.1238 69.8486 42.9667 68.2719L42.9678 68.2714C46.8327 66.6749 50.3061 64.3761 53.3864 61.3787L41.9056 3.51272ZM16.4111 15.1949C18.7099 12.4209 21.4889 10.1525 24.7529 8.39019C22.0292 10.0679 19.6576 12.1233 17.641 14.5568C14.7359 18.0626 12.8672 22.1455 12.0339 26.7951L12.0338 26.7955C11.3263 30.7606 11.5266 34.3303 12.6612 37.4882L12.6618 37.4898C13.7974 40.6175 15.7266 43.0985 18.4428 44.9178C17.9476 44.6716 17.4731 44.399 17.0194 44.1003C14.473 42.4007 12.6694 40.0887 11.6021 37.1492C10.5385 34.1884 10.335 30.8013 11.0183 26.9714C11.8225 22.4845 13.6205 18.5624 16.4111 15.1949ZM38.8682 34.1796C38.0463 34.4835 37.1962 34.6773 36.3167 34.7605C35.0655 34.6383 34.0008 34.2786 33.109 33.6956C32.0015 32.9577 31.2003 31.9619 30.6993 30.6948C30.2211 29.432 30.1106 27.9855 30.393 26.3392C30.6745 24.6975 31.2994 23.232 32.2675 21.9353C33.2619 20.632 34.4795 19.6012 35.9238 18.8393C37.0837 18.2364 38.3146 17.8729 39.6202 17.7495C40.8408 17.8723 41.8908 18.2314 42.7825 18.8148C43.9126 19.5541 44.7236 20.551 45.2238 21.8176C45.7221 23.0796 45.843 24.5247 45.5608 26.1702L45.5605 26.1722C45.3572 27.3879 44.9361 28.5224 44.2959 29.5789L44.2937 29.5825C43.6746 30.624 42.8941 31.5458 41.9501 32.3491L41.95 32.3492C41.0344 33.1287 40.0079 33.7387 38.8682 34.1796Z" fill="white" stroke="#D5DDE2"/>
<path d="M40.9416 4C44.7555 4 48.2572 4.59723 51.4467 5.79169C54.6399 6.9652 57.3138 8.81975 59.4683 11.3554C61.644 13.891 63.1019 17.2019 63.8419 21.2882C64.6071 25.3536 64.4686 30.2781 63.4263 36.0618C62.4765 41.3426 60.9325 46.089 58.7943 50.301C56.6812 54.4921 54.0959 58.065 51.0384 61.0197C48.0021 63.9745 44.5816 66.2376 40.777 67.8093C36.9975 69.36 32.9558 70.1354 28.6518 70.1354C23.8152 70.1354 19.7321 69.2238 16.4026 67.4007C13.0731 65.5775 10.6049 63.1258 8.99809 60.0453C7.39127 56.9649 6.75358 53.5386 7.08501 49.7667H24.5992C24.667 51.7155 25.3443 53.13 26.6314 54.0101C27.9222 54.8693 29.5052 55.2989 31.3802 55.2989C35.1302 55.2989 38.161 53.7063 40.4726 50.5211C42.8093 47.3149 44.4797 43.04 45.4837 37.6963H45.1001C43.9069 39.6662 42.3396 41.3531 40.3982 42.7571C38.4568 44.1611 36.2981 45.2403 33.9221 45.9947C31.5462 46.7491 29.1118 47.1263 26.6189 47.1263C22.6771 47.1263 19.3853 46.2566 16.7435 44.5173C14.1056 42.7571 12.235 40.3577 11.1319 37.3191C10.0326 34.2596 9.83064 30.781 10.5261 26.8833C11.3449 22.3151 13.1782 18.3126 16.0261 14.8759C18.874 11.4392 22.4442 8.76736 26.7366 6.86042C31.0291 4.95347 35.7641 4 40.9416 4ZM38.6417 17.2019C36.8732 17.2019 35.2233 17.6001 33.6919 18.3964C32.1819 19.1927 30.9074 20.2719 29.8686 21.634C28.851 22.9961 28.1949 24.5363 27.9002 26.2547C27.6055 27.973 27.7165 29.5132 28.233 30.8753C28.7709 32.2374 29.6378 33.3167 30.8337 34.113C32.0509 34.9093 33.5437 35.3074 35.3122 35.3074C36.6119 35.3074 37.8562 35.0874 39.0451 34.6473C40.2378 34.1863 41.3142 33.5472 42.2741 32.7299C43.2592 31.8917 44.0757 30.9277 44.7235 29.8381C45.3965 28.7274 45.8399 27.533 46.0536 26.2547C46.3483 24.5363 46.2267 22.9961 45.6889 21.634C45.151 20.2719 44.2735 19.1927 43.0563 18.3964C41.8391 17.6001 40.3675 17.2019 38.6417 17.2019Z" fill="#00FFFF" style="mix-blend-mode:multiply"/>
<path d="M42.9415 4C46.7555 4 50.2571 4.59723 53.4466 5.79169C56.6399 6.9652 59.3137 8.81975 61.4682 11.3554C63.6439 13.891 65.1018 17.2019 65.8419 21.2882C66.6071 25.3536 66.4685 30.2781 65.4262 36.0618C64.4764 41.3426 62.9324 46.089 60.7942 50.301C58.6811 54.4921 56.0958 58.065 53.0383 61.0197C50.002 63.9745 46.5816 66.2376 42.7769 67.8093C38.9974 69.36 34.9557 70.1354 30.6517 70.1354C25.8151 70.1354 21.732 69.2238 18.4025 67.4007C15.073 65.5775 12.6048 63.1258 10.998 60.0453C9.39119 56.9649 8.7535 53.5386 9.08493 49.7667H26.5991C26.6669 51.7155 27.3443 53.13 28.6313 54.0101C29.9221 54.8693 31.5051 55.2989 33.3801 55.2989C37.1301 55.2989 40.1609 53.7063 42.4725 50.5211C44.8092 47.3149 46.4796 43.04 47.4836 37.6963H47.1001C45.9069 39.6662 44.3395 41.3531 42.3981 42.7571C40.4567 44.1611 38.298 45.2403 35.922 45.9947C33.5461 46.7491 31.1117 47.1263 28.6188 47.1263C24.677 47.1263 21.3852 46.2566 18.7434 44.5173C16.1055 42.7571 14.2349 40.3577 13.1318 37.3191C12.0325 34.2596 11.8306 30.781 12.526 26.8833C13.3448 22.3151 15.1781 18.3126 18.026 14.8759C20.8739 11.4392 24.4441 8.76736 28.7365 6.86042C33.029 4.95347 37.764 4 42.9415 4ZM40.6416 17.2019C38.8732 17.2019 37.2232 17.6001 35.6918 18.3964C34.1818 19.1927 32.9073 20.2719 31.8685 21.634C30.851 22.9961 30.1948 24.5363 29.9002 26.2547C29.6055 27.973 29.7164 29.5132 30.233 30.8753C30.7708 32.2374 31.6377 33.3167 32.8336 34.113C34.0508 34.9093 35.5436 35.3074 37.3121 35.3074C38.6118 35.3074 39.8561 35.0874 41.045 34.6473C42.2377 34.1863 43.3141 33.5472 44.274 32.7299C45.2591 31.8917 46.0756 30.9277 46.7234 29.8381C47.3964 28.7274 47.8398 27.533 48.0536 26.2547C48.3483 24.5363 48.2267 22.9961 47.6888 21.634C47.1509 20.2719 46.2734 19.1927 45.0562 18.3964C43.839 17.6001 42.3675 17.2019 40.6416 17.2019Z" fill="#FF0000" style="mix-blend-mode:multiply"/>
</svg>
