<svg width="74" height="74" viewBox="0 0 74 74" fill="none" xmlns="http://www.w3.org/2000/svg">
<path d="M24.4274 70.2964L24.3188 70.8868H24.9191H26.3187H26.9191H37.0691H37.4856H39.0691H39.4855L39.5608 70.4773L51.769 4.09043L51.8776 3.5H51.2773H49.8777H49.2774H39.1273H38.7108H37.1274H36.7109L36.6356 3.90957L36.4565 4.88324C36.0971 6.83797 35.1988 8.3472 33.7685 9.44547C32.3379 10.5439 30.4842 11.1124 28.1675 11.1124H27.1974H26.781H25.1975H24.781L24.7057 11.5219L22.5082 23.4716L22.3997 24.062H23H24.3996H24.9999H32.9297L24.4274 70.2964Z" fill="white" stroke="#D5DDE2"/>
<path d="M24.9191 70.3868L33.53 23.562H23L25.1975 11.6124H28.1675C30.5675 11.6124 32.536 11.0223 34.073 9.84204C35.6101 8.66183 36.5685 7.03904 36.9483 4.97368L37.1274 4H49.2774L37.0691 70.3868H24.9191Z" fill="#00FFFF" style="mix-blend-mode:multiply"/>
<path d="M26.9191 70.3868L35.5299 23.562H24.9999L27.1974 11.6124H30.1674C32.5674 11.6124 34.5359 11.0223 36.073 9.84204C37.61 8.66183 38.5684 7.03904 38.9482 4.97368L39.1273 4H51.2773L39.0691 70.3868H26.9191Z" fill="#FF0000" style="mix-blend-mode:multiply"/>
</svg>
