<svg width="74" height="74" viewBox="0 0 74 74" fill="none" xmlns="http://www.w3.org/2000/svg">
<path d="M13.5082 70.7126L13.3997 71.3031H14H15.3996H15.9999H47.3H47.7164H49.2999H49.7164L49.7917 70.8935L51.9892 58.9439L52.0977 58.3534H51.4974H50.0978H49.4975H31.6677L31.8033 57.6161C32.1629 55.6609 32.9449 53.9878 34.1451 52.584L34.1476 52.581C35.3839 51.1123 36.8633 49.7692 38.5888 48.5526C40.3683 47.3193 42.2353 46.1001 44.1899 44.8953C46.171 43.674 48.0706 42.3189 49.8885 40.8301C51.7567 39.3249 53.3786 37.5787 54.7534 35.5928L54.7548 35.5907C56.1539 33.5474 57.106 31.119 57.6212 28.3174L59.249 19.4658C60.1731 14.4405 59.3967 10.3235 56.8255 7.19782C54.2559 4.03773 50.3176 2.5 45.1186 2.5C44.7818 2.5 44.4481 2.50652 44.1175 2.51955C43.7899 2.50651 43.4569 2.5 43.1187 2.5C37.9416 2.5 33.4982 4.03972 29.8169 7.13142L29.8169 7.13144C26.1725 10.1925 23.8909 14.2533 22.9655 19.285L22.3144 22.8256L22.2059 23.416H22.8062H24.2058H24.8061H34.9562H35.3726H36.9561H37.3725L37.4479 23.0065L38.099 19.4658C38.3248 18.2379 38.8585 17.2822 39.6892 16.568L39.6892 16.568L39.6949 16.563C40.3001 16.0265 41.0316 15.6786 41.9054 15.5309C42.7043 15.6761 43.2596 16.0105 43.6253 16.4915L43.6252 16.4915L43.6319 16.5C44.1485 17.1497 44.3426 18.0503 44.1155 19.285L42.4878 28.1366C42.1918 29.7458 41.4572 31.1451 40.2735 32.3439C39.0585 33.5502 37.5541 34.7069 35.7548 35.8116L35.7517 35.8135C33.954 36.9356 32.0353 38.1461 29.9955 39.4451C27.9319 40.7591 25.9208 42.2955 23.9618 44.0532L23.9616 44.0534C22.015 45.8024 20.2938 47.9378 18.7954 50.4542C17.2828 52.9945 16.2022 56.0631 15.5429 59.6482L13.5082 70.7126Z" fill="white" stroke="#D5DDE2"/>
<path d="M14 70.8031L16.0347 59.7386C16.6858 56.198 17.7492 53.1884 19.225 50.71C20.7008 48.2316 22.391 46.1367 24.2957 44.4254C26.2359 42.6846 28.2253 41.165 30.264 39.8668C32.3028 38.5686 34.2202 37.3589 36.0164 36.2377C37.8426 35.1165 39.3796 33.9363 40.6275 32.697C41.8808 31.4283 42.6648 29.9383 42.9795 28.227L44.6073 19.3754C44.8515 18.0477 44.6568 16.9855 44.0233 16.1888C43.3952 15.3627 42.3612 14.9496 40.9212 14.9496C39.4812 14.9496 38.2952 15.3627 37.3633 16.1888C36.4368 16.9855 35.8515 18.0477 35.6073 19.3754L34.9562 22.916H22.8062L23.4573 19.3754C24.3634 14.448 26.5905 10.4943 30.1385 7.5143C33.7219 4.50477 38.0487 3 43.1187 3C48.2187 3 51.9919 4.50477 54.4385 7.5143C56.8905 10.4943 57.6634 14.448 56.7573 19.3754L55.1295 28.227C54.6249 30.971 53.6959 33.3314 52.3423 35.3083C50.9942 37.2556 49.4045 38.9669 47.5732 40.4422C45.7719 41.9174 43.8901 43.2599 41.9276 44.4696C39.9651 45.6794 38.09 46.9038 36.3021 48.143C34.5442 49.3823 33.0319 50.7543 31.7652 52.259C30.5039 53.7343 29.686 55.4898 29.3116 57.5257L28.0745 64.2529L23.5775 58.8534H49.4975L47.3 70.8031H14Z" fill="#00FFFF" style="mix-blend-mode:multiply"/>
<path d="M15.9999 70.8031L18.0346 59.7386C18.6857 56.198 19.7492 53.1884 21.2249 50.71C22.7007 48.2316 24.3909 46.1367 26.2956 44.4254C28.2358 42.6846 30.2252 41.165 32.2639 39.8668C34.3027 38.5686 36.2201 37.3589 38.0163 36.2377C39.8425 35.1165 41.3795 33.9363 42.6274 32.697C43.8807 31.4283 44.6648 29.9383 44.9795 28.227L46.6072 19.3754C46.8514 18.0477 46.6567 16.9855 46.0232 16.1888C45.3951 15.3627 44.3611 14.9496 42.9211 14.9496C41.4811 14.9496 40.2951 15.3627 39.3632 16.1888C38.4367 16.9855 37.8514 18.0477 37.6072 19.3754L36.9561 22.916H24.8061L25.4572 19.3754C26.3633 14.448 28.5904 10.4943 32.1384 7.5143C35.7219 4.50477 40.0486 3 45.1186 3C50.2186 3 53.9919 4.50477 56.4384 7.5143C58.8904 10.4943 59.6633 14.448 58.7572 19.3754L57.1295 28.227C56.6248 30.971 55.6958 33.3314 54.3422 35.3083C52.9941 37.2556 51.4044 38.9669 49.5731 40.4422C47.7718 41.9174 45.89 43.2599 43.9275 44.4696C41.9651 45.6794 40.0899 46.9038 38.302 48.143C36.5441 49.3823 35.0318 50.7543 33.7651 52.259C32.5038 53.7343 31.6859 55.4898 31.3116 57.5257L30.0745 64.2529L25.5774 58.8534H51.4974L49.2999 70.8031H15.9999Z" fill="#FF0000" style="mix-blend-mode:multiply"/>
</svg>
