<svg width="74" height="74" viewBox="0 0 74 74" fill="none" xmlns="http://www.w3.org/2000/svg">
<path d="M33.7447 70.2964L33.6361 70.8868H34.2365H35.6361H36.2364H46.3865H46.8029H48.3864H48.8028L48.8781 70.4773L50.8864 59.5568H53.6H54.0164H55.5999H56.0164L56.0917 59.1472L58.2892 47.1976L58.3977 46.6072H57.7974H56.3978H55.7975H53.2677L61.0864 4.09043L61.1949 3.5H60.5946H59.195H58.5947H49.9746H49.7177H47.9747H47.7178L47.5682 3.70881L15.4817 48.4978L15.4167 48.5886L15.3965 48.6985L13.5082 58.9664L13.3997 59.5568H14H15.3996H15.9999H35.7197L33.7447 70.2964ZM38.101 46.6072H31.834L40.4103 34.0499L38.101 46.6072Z" fill="white" stroke="#D5DDE2"/>
<path d="M34.2365 70.3868L36.32 59.0568H14L15.8882 48.789L47.9747 4H58.5947L50.6675 47.1072H55.7975L53.6 59.0568H48.47L46.3865 70.3868H34.2365ZM25.5622 51.9755L23.3975 47.1072H38.5175L42.066 27.8107L25.5622 51.9755Z" fill="#00FFFF" style="mix-blend-mode:multiply"/>
<path d="M36.2364 70.3868L38.3199 59.0568H15.9999L17.8881 48.789L49.9746 4H60.5946L52.6674 47.1072H57.7974L55.5999 59.0568H50.4699L48.3864 70.3868H36.2364ZM27.5621 51.9755L25.3974 47.1072H40.5174L44.0659 27.8107L27.5621 51.9755Z" fill="#FF0000" style="mix-blend-mode:multiply"/>
</svg>
