<svg width="74" height="74" viewBox="0 0 74 74" fill="none" xmlns="http://www.w3.org/2000/svg">
<g id="Property 1=6">
<path id="Vector" d="M18.2946 67.0204L18.2965 67.0227C20.895 70.1805 24.8313 71.7193 30.0024 71.7193C30.3412 71.7193 30.6767 71.7128 31.009 71.6998C31.3349 71.7128 31.666 71.7193 32.0023 71.7193C37.2086 71.7193 41.6531 70.1801 45.3057 67.0866C48.9536 63.997 51.2354 59.9373 52.1555 54.9343L54.4343 42.5421C55.0483 39.2033 54.9038 36.247 53.9661 33.694C53.0371 31.1202 51.4786 29.1126 49.2918 27.6928C47.1051 26.273 44.4607 25.5763 41.3839 25.5763C41.052 25.5763 40.7271 25.5851 40.4093 25.603C40.0731 25.5852 39.7313 25.5763 39.384 25.5763C38.2967 25.5763 37.285 25.6713 36.3513 25.8646L37.7118 18.4658C37.9377 17.2379 38.4714 16.2822 39.3021 15.568L39.3021 15.568L39.3078 15.563C39.913 15.0265 40.6445 14.6786 41.5183 14.5309C42.3171 14.6761 42.8725 15.0105 43.2381 15.4915L43.238 15.4915L43.2448 15.5C43.7614 16.1497 43.9555 17.0503 43.7284 18.285L43.0773 21.8256L42.9687 22.416H43.5691H44.9687H45.569H55.7191H56.1355H57.719H58.1354L58.2107 22.0065L58.8618 18.4658C59.786 13.4405 59.0095 9.32349 56.4384 6.19782C53.8688 3.03773 49.9304 1.5 44.7315 1.5C44.3946 1.5 44.0609 1.50652 43.7303 1.51955C43.4028 1.50651 43.0698 1.5 42.7315 1.5C37.5545 1.5 33.1111 3.03972 29.4298 6.13142L29.4298 6.13144C25.7853 9.19248 23.5037 13.2533 22.5784 18.285L15.872 54.7535C14.9529 59.7514 15.7309 63.8667 18.2946 67.0204ZM35.4208 57.6981C34.82 58.2138 34.0901 58.5492 33.215 58.6916C32.4125 58.5517 31.8532 58.2293 31.4843 57.7678C30.9676 57.0853 30.7791 56.1651 31.0055 54.9343L33.2843 42.5421C33.5101 41.3142 34.0439 40.3585 34.8746 39.6443L34.8746 39.6443L34.8803 39.6393C35.4855 39.1028 36.217 38.7549 37.0908 38.6072C37.8896 38.7523 38.445 39.0868 38.8106 39.5677L38.8105 39.5678L38.8173 39.5763C39.3339 40.226 39.528 41.1266 39.3009 42.3613L37.022 54.7535C36.7965 55.9799 36.2604 56.9527 35.4208 57.6981Z" fill="white" stroke="#D5DDE2"/>
<g id="Vector_2">
<path d="M30.0022 71.2193C24.9322 71.2193 21.1589 69.7146 18.6823 66.705C16.2358 63.6955 15.4628 59.7418 16.3635 54.8439L23.0699 18.3754C23.976 13.448 26.2031 9.49433 29.7511 6.5143C33.3346 3.50477 37.6613 2 42.7313 2C47.8313 2 51.6046 3.50477 54.0511 6.5143C56.5031 9.49433 57.276 13.448 56.3699 18.3754L55.7188 21.916H43.5688L44.2199 18.3754C44.4641 17.0477 44.2694 15.9855 43.6359 15.1888C43.0078 14.3627 41.9738 13.9496 40.5338 13.9496C39.0938 13.9496 37.9078 14.3627 36.9759 15.1888C36.0494 15.9855 35.4641 17.0477 35.2199 18.3754L32.5667 32.8035L30.7964 29.7054C31.8943 28.4662 33.1275 27.5515 34.496 26.9614C35.8645 26.3713 37.4938 26.0763 39.3838 26.0763C42.3838 26.0763 44.929 26.7549 47.0194 28.1122C49.1098 29.4694 50.6021 31.3872 51.4963 33.8657C52.396 36.3146 52.5447 39.1766 51.9424 42.4517L49.6635 54.8439C48.7629 59.7418 46.5358 63.6955 42.9823 66.705C39.4289 69.7146 35.1022 71.2193 30.0022 71.2193ZM32.1997 59.2697C33.6397 59.2697 34.8229 58.8714 35.7494 58.0747C36.6813 57.2486 37.2694 56.1716 37.5135 54.8439L39.7924 42.4517C40.0366 41.124 39.8419 40.0618 39.2084 39.2651C38.5803 38.439 37.5463 38.0259 36.1063 38.0259C34.6663 38.0259 33.4803 38.439 32.5484 39.2651C31.6219 40.0618 31.0366 41.124 30.7924 42.4517L28.5135 54.8439C28.2694 56.1716 28.4613 57.2486 29.0894 58.0747C29.7229 58.8714 30.7597 59.2697 32.1997 59.2697Z" fill="#00FFFF" style="mix-blend-mode:multiply"/>
<path d="M32.0021 71.2193C26.9321 71.2193 23.1588 69.7146 20.6823 66.705C18.2357 63.6955 17.4628 59.7418 18.3635 54.8439L25.0698 18.3754C25.976 13.448 28.203 9.49433 31.751 6.5143C35.3345 3.50477 39.6612 2 44.7312 2C49.8312 2 53.6045 3.50477 56.051 6.5143C58.503 9.49433 59.276 13.448 58.3698 18.3754L57.7187 21.916H45.5687L46.2198 18.3754C46.464 17.0477 46.2693 15.9855 45.6358 15.1888C45.0078 14.3627 43.9737 13.9496 42.5337 13.9496C41.0937 13.9496 39.9078 14.3627 38.9758 15.1888C38.0493 15.9855 37.464 17.0477 37.2198 18.3754L34.5666 32.8035L32.7963 29.7054C33.8942 28.4662 35.1274 27.5515 36.4959 26.9614C37.8644 26.3713 39.4937 26.0763 41.3837 26.0763C44.3837 26.0763 46.9289 26.7549 49.0193 28.1122C51.1097 29.4694 52.602 31.3872 53.4963 33.8657C54.3959 36.3146 54.5446 39.1766 53.9423 42.4517L51.6635 54.8439C50.7628 59.7418 48.5357 63.6955 44.9823 66.705C41.4288 69.7146 37.1021 71.2193 32.0021 71.2193ZM34.1996 59.2697C35.6396 59.2697 36.8228 58.8714 37.7493 58.0747C38.6813 57.2486 39.2693 56.1716 39.5135 54.8439L41.7923 42.4517C42.0365 41.124 41.8418 40.0618 41.2083 39.2651C40.5803 38.439 39.5462 38.0259 38.1062 38.0259C36.6662 38.0259 35.4803 38.439 34.5483 39.2651C33.6218 40.0618 33.0365 41.124 32.7923 42.4517L30.5135 54.8439C30.2693 56.1716 30.4613 57.2486 31.0893 58.0747C31.7228 58.8714 32.7596 59.2697 34.1996 59.2697Z" fill="#FF0000" style="mix-blend-mode:multiply"/>
</g>
</g>
</svg>
