<svg width="74" height="74" viewBox="0 0 74 74" fill="none" xmlns="http://www.w3.org/2000/svg">
<g id="Property 1=8">
<path id="Vector" d="M18.2944 67.0204L18.2963 67.0227C20.8948 70.1805 24.8311 71.7193 30.0022 71.7193C30.3409 71.7193 30.6765 71.7128 31.0088 71.6998C31.3346 71.7128 31.6657 71.7193 32.0021 71.7193C37.2083 71.7193 41.6528 70.1801 45.3054 67.0866C48.9534 63.997 51.2352 59.9373 52.1552 54.9343L53.7341 46.3483C54.2489 43.5491 54.2112 41.0092 53.6002 38.7398C53.3371 37.7122 52.9781 36.7599 52.5226 35.8844C53.3006 35.03 54.0108 34.0923 54.6535 33.0719C56.0771 30.859 57.0442 28.3485 57.5594 25.5471L58.8616 18.4658C59.7857 13.4405 59.0093 9.32352 56.4382 6.19786C53.8686 3.03775 49.9302 1.5 44.7312 1.5C44.3944 1.5 44.0607 1.50652 43.7301 1.51955C43.4025 1.50651 43.0696 1.5 42.7313 1.5C37.5542 1.5 33.1108 3.03972 29.4296 6.13142L29.4296 6.13144C25.7851 9.19248 23.5035 13.2533 22.5782 18.285L21.276 25.3662C20.7614 28.1646 20.7864 30.6898 21.373 32.9301L21.3729 32.9301L21.3747 32.9364C21.6536 33.9481 22.0255 34.8819 22.4912 35.7363C21.7025 36.6102 20.9788 37.5643 20.32 38.5981L20.3174 38.6022C18.9199 40.8433 17.9657 43.3669 17.4507 46.1674L15.8718 54.7535C14.9527 59.7514 15.7306 63.8667 18.2944 67.0204ZM44.6591 66.3235C43.5881 67.2306 42.4445 67.9978 41.2274 68.6246C41.9463 68.1636 42.6391 67.651 43.3055 67.0866C46.9534 63.997 49.2353 59.9373 50.1553 54.9343L51.7342 46.3483C52.249 43.5491 52.2113 41.0092 51.6003 38.7398C51.4689 38.2267 51.3136 37.7323 51.1343 37.2569C51.3564 37.0595 51.5739 36.8565 51.7868 36.6479C52.1354 37.3701 52.4173 38.1507 52.6322 38.9907L52.6321 38.9907L52.6338 38.9969C53.1989 41.0936 53.2449 43.48 52.7506 46.1674L51.1717 54.7535C50.2903 59.5462 48.118 63.394 44.6591 66.3235ZM50.3182 37.9407C50.4352 38.2798 50.5399 38.6298 50.6323 38.9907L50.6322 38.9907L50.6339 38.9969C51.199 41.0936 51.2449 43.48 50.7507 46.1674L49.1718 54.7535C48.2904 59.5462 46.1181 63.394 42.6592 66.3235C39.4394 69.0504 35.564 70.513 31.0085 70.699C26.5492 70.5132 23.264 69.0547 21.0693 66.3885C18.7407 63.5232 17.973 59.7315 18.8552 54.9343L20.4341 46.3483C20.9282 43.6617 21.8397 41.2587 23.1646 39.1334C23.4374 38.7054 23.7216 38.2921 24.0171 37.8935C24.1988 38.0944 24.3881 38.2887 24.5851 38.4764L25.2545 39.1144L25.4218 38.2049L25.5748 37.3727C25.8857 37.7628 26.2224 38.1308 26.585 38.4764L27.2544 39.1144L27.4217 38.2049L28.2844 33.5135L28.5117 32.2774L27.4974 33.0196C27.0437 33.3516 26.6052 33.7024 26.1818 34.072L26.2845 33.5135L26.5118 32.2774L25.4975 33.0196C25.2112 33.2291 24.9309 33.446 24.6567 33.6705C24.5399 33.3488 24.4341 33.0165 24.3395 32.6737C23.799 30.607 23.765 28.2354 24.2594 25.5471L25.5616 18.4658C26.4485 13.6428 28.6211 9.7962 32.0726 6.89719C35.3215 4.16859 39.1999 2.70632 43.7307 2.52033C48.2157 2.70622 51.4973 4.16553 53.6631 6.82971L53.665 6.83199C55.9971 9.66623 56.7662 13.4562 55.8782 18.285L54.576 25.3662C54.0821 28.0519 53.159 30.4386 51.8112 32.5329L51.8086 32.5371C51.5603 32.9314 51.3017 33.3124 51.0328 33.68C50.852 33.4701 50.6632 33.2667 50.4664 33.0697L49.7932 32.3958L49.6209 33.3327L49.4601 34.2069C49.1551 33.8067 48.824 33.4276 48.4665 33.0697L47.7933 32.3958L47.621 33.3327L46.7583 38.024L46.5365 39.2299L47.5383 38.5229C47.993 38.202 48.4317 37.8613 48.8544 37.5007L48.7582 38.024L48.5364 39.2299L49.5382 38.5229C49.8037 38.3356 50.0636 38.1415 50.3182 37.9407ZM51.2899 35.7313C51.1039 35.9198 50.9141 36.1034 50.7206 36.2823C50.6568 36.148 50.5908 36.0153 50.5227 35.8844C50.6925 35.6978 50.8592 35.5073 51.0226 35.3128C51.1147 35.4497 51.2038 35.5892 51.2899 35.7313ZM48.4219 34.5066C48.7048 34.85 48.9659 35.2123 49.2051 35.5936L49.1549 35.8667C48.7769 36.2412 48.3838 36.5964 47.9758 36.9324L48.4219 34.5066ZM51.9959 34.9734C51.892 34.811 51.7843 34.6517 51.6728 34.4954C52.0156 34.0403 52.3425 33.5658 52.6535 33.0719C54.0772 30.859 55.0443 28.3485 55.5595 25.5471L56.8617 18.4658C57.7858 13.4405 57.0094 9.32352 54.4383 6.19786C53.7226 5.31771 52.9007 4.56341 51.975 3.93314C53.4442 4.64134 54.6708 5.60906 55.6631 6.82971L55.6649 6.83199C57.997 9.66623 58.7661 13.4562 57.8781 18.285L56.5759 25.3662C56.082 28.0519 55.1589 30.4386 53.8111 32.5329L53.8085 32.5371C53.2554 33.4155 52.6512 34.2275 51.9959 34.9734ZM30.0727 6.89719C31.1448 5.99677 32.2855 5.23425 33.4955 4.60999C32.7821 5.0667 32.0934 5.57382 31.4295 6.13142L31.4295 6.13144C27.785 9.19248 25.5034 13.2533 24.5781 18.285L23.2759 25.3662C22.7613 28.1646 22.7863 30.6898 23.3729 32.9301L23.3729 32.9301L23.3746 32.9364C23.5112 33.432 23.6702 33.9089 23.8516 34.3669C23.6365 34.5634 23.4255 34.7648 23.2186 34.9713C22.861 34.2663 22.5678 33.5009 22.3396 32.6737C21.7991 30.607 21.7651 28.2354 22.2595 25.5471L23.5617 18.4658C24.4486 13.6428 26.6211 9.7962 30.0727 6.89719ZM23.7325 35.8739C23.9122 35.6894 24.0951 35.5091 24.2812 35.3329C24.3489 35.4693 24.4189 35.6037 24.4911 35.7363C24.3282 35.9168 24.168 36.1008 24.0106 36.2883C23.9149 36.153 23.8222 36.0149 23.7325 35.8739ZM26.6153 37.0607C26.3307 36.7318 26.067 36.3836 25.8243 36.0157L25.8775 35.7266C26.258 35.3442 26.6526 34.9802 27.0615 34.6345L26.6153 37.0607ZM25.0616 34.6345L25.0596 34.645C25.0586 34.6429 25.0577 34.6408 25.0567 34.6386C25.0583 34.6373 25.0599 34.6359 25.0616 34.6345ZM23.3634 37.0986C22.9991 37.5783 22.6513 38.0781 22.3199 38.5981L22.3173 38.6022C20.9199 40.8433 19.9656 43.3669 19.4506 46.1674L17.8717 54.7535C16.9526 59.7514 17.7305 63.8667 20.2943 67.0204L20.2962 67.0227C21.0175 67.8992 21.8418 68.651 22.767 69.2798C21.3017 68.5721 20.0718 67.6063 19.0694 66.3885C16.7407 63.5232 15.9731 59.7316 16.8553 54.9343L18.4342 46.3483C18.9283 43.6617 19.8398 41.2587 21.1647 39.1334C21.7375 38.2347 22.3604 37.401 23.0332 36.6318C23.1395 36.7906 23.2496 36.9462 23.3634 37.0986ZM36.0754 58.4539L36.0754 58.4539L36.0811 58.4489C37.1037 57.5423 37.7428 56.362 38.0053 54.9343L39.5842 46.3483C39.8451 44.9297 39.6508 43.7075 38.9032 42.7644C38.8235 42.6598 38.7386 42.5614 38.6489 42.469C39.3109 42.635 39.7855 42.9466 40.1104 43.3739L40.1103 43.374L40.117 43.3825C40.6336 44.0321 40.8277 44.9327 40.6006 46.1674L39.0217 54.7535C38.7962 55.9799 38.2601 56.9527 37.4205 57.6981C37.0184 58.0432 36.5586 58.3075 36.036 58.4874C36.0492 58.4763 36.0623 58.4651 36.0754 58.4539ZM37.4063 41.3321C37.0568 41.3321 36.7191 41.355 36.3939 41.4011C36.0821 41.3547 35.7524 41.3321 35.4064 41.3321C33.8659 41.3321 32.5567 41.7766 31.5197 42.6946C30.499 43.5734 29.863 44.7412 29.6007 46.1674L28.0218 54.7535C27.7603 56.1755 27.9544 57.4079 28.6914 58.3773L28.6913 58.3774L28.6981 58.3859C29.4612 59.3456 30.6736 59.7697 32.1997 59.7697C32.5491 59.7697 32.8866 59.7476 33.2116 59.703C33.5238 59.7479 33.8536 59.7697 34.1996 59.7697C35.7367 59.7697 37.0424 59.342 38.0753 58.4539L38.0754 58.4539L38.081 58.4489C39.1037 57.5423 39.7427 56.362 40.0052 54.9343L41.5842 46.3483C41.845 44.9297 41.6507 43.7075 40.9031 42.7644C40.1471 41.7732 38.9357 41.3321 37.4063 41.3321ZM30.9097 58.6268C30.268 58.4642 29.8044 58.1684 29.4842 57.7678C28.9675 57.0854 28.779 56.1651 29.0053 54.9343L30.5842 46.3483C30.81 45.1204 31.3438 44.1647 32.1745 43.4504L32.1745 43.4505L32.1802 43.4455C32.5983 43.0748 33.0766 42.7942 33.6206 42.6074C33.5866 42.636 33.5529 42.6651 33.5196 42.6946C32.4989 43.5734 31.8629 44.7412 31.6006 46.1674L30.0217 54.7535C29.7602 56.1755 29.9543 57.4079 30.6913 58.3773L30.6912 58.3774L30.698 58.3859C30.7651 58.4703 30.8357 58.5506 30.9097 58.6268ZM33.2147 58.6916C32.4123 58.5517 31.853 58.2293 31.4841 57.7678C30.9674 57.0854 30.7789 56.1651 31.0052 54.9343L32.5841 46.3483C32.81 45.1204 33.3437 44.1647 34.1744 43.4504L34.1744 43.4505L34.1801 43.4455C34.7853 42.909 35.5168 42.5611 36.3906 42.4134C37.1894 42.5585 37.7448 42.8929 38.1104 43.3739L38.1103 43.374L38.1171 43.3825C38.6337 44.0321 38.8278 44.9327 38.6007 46.1674L37.0218 54.7535C36.7963 55.9799 36.2602 56.9527 35.4206 57.6981C34.8198 58.2138 34.0899 58.5492 33.2147 58.6916ZM41.4796 29.0666L41.4796 29.0667L41.4853 29.0617C42.5079 28.1551 43.1469 26.9748 43.4095 25.5471L44.7117 18.4658C44.9726 17.0472 44.7783 15.825 44.0306 14.8819C43.9509 14.7773 43.8661 14.6789 43.7764 14.5865C44.4384 14.7525 44.913 15.0641 45.2378 15.4915L45.2377 15.4915L45.2445 15.5001C45.7611 16.1497 45.9552 17.0503 45.7281 18.285L44.4259 25.3662C44.2004 26.5927 43.6642 27.5655 42.8246 28.3109C42.4225 28.656 41.9627 28.9203 41.4402 29.1001C41.4534 29.089 41.4665 29.0779 41.4796 29.0666ZM42.5337 13.4496C42.1842 13.4496 41.8466 13.4725 41.5214 13.5186C41.2095 13.4722 40.8798 13.4496 40.5338 13.4496C38.9933 13.4496 37.6841 13.8941 36.647 14.8122C35.6264 15.691 34.9904 16.8588 34.7282 18.285L33.426 25.3662C33.1645 26.7883 33.3586 28.0207 34.0956 28.9901L34.0955 28.9902L34.1022 28.9987C34.8654 29.9584 36.0778 30.3825 37.6038 30.3825C37.9533 30.3825 38.2907 30.3604 38.6158 30.3158C38.9279 30.3607 39.2578 30.3825 39.6038 30.3825C41.1409 30.3825 42.4466 29.9548 43.4795 29.0666L43.4795 29.0667L43.4852 29.0617C44.5078 28.1551 45.1468 26.9748 45.4094 25.5471L46.7116 18.4658C46.9725 17.0472 46.7782 15.825 46.0306 14.8819C45.2745 13.8908 44.0632 13.4496 42.5337 13.4496ZM36.3138 29.2395C35.6722 29.077 35.2085 28.7812 34.8883 28.3805C34.3716 27.6981 34.1831 26.7779 34.4095 25.5471L35.7117 18.4658C35.9375 17.2379 36.4712 16.2822 37.3019 15.568L37.3019 15.568L37.3076 15.563C37.7257 15.1923 38.2041 14.9117 38.748 14.7249C38.7141 14.7536 38.6803 14.7827 38.6469 14.8122C37.6263 15.691 36.9904 16.8588 36.7281 18.285L35.4259 25.3662C35.1644 26.7883 35.3585 28.0207 36.0955 28.9901L36.0954 28.9902L36.1022 28.9987C36.1693 29.0831 36.2399 29.1634 36.3138 29.2395ZM38.6189 29.3044C37.8164 29.1645 37.2571 28.8421 36.8882 28.3805C36.3716 27.6981 36.1831 26.7779 36.4094 25.5471L37.7116 18.4658C37.9374 17.2379 38.4711 16.2822 39.3018 15.568L39.3019 15.568L39.3075 15.563C39.9127 15.0265 40.6442 14.6786 41.5181 14.5309C42.3169 14.6761 42.8722 15.0105 43.2379 15.4915L43.2378 15.4915L43.2446 15.5001C43.7612 16.1497 43.9552 17.0503 43.7282 18.285L42.426 25.3662C42.2004 26.5927 41.6643 27.5655 40.8247 28.3109C40.2239 28.8265 39.494 29.162 38.6189 29.3044Z" fill="white" stroke="#D5DDE2"/>
<g id="Vector_2">
<path d="M30.0022 71.2193C24.9322 71.2193 21.1589 69.7146 18.6823 66.705C16.2358 63.6955 15.4628 59.7418 16.3635 54.8439L17.9425 46.2579C18.4471 43.5139 19.3801 41.0502 20.7417 38.8668C22.1332 36.6834 23.8169 34.8689 25.7927 33.4231L24.93 38.1144C23.475 36.7277 22.4506 34.9574 21.8567 32.8035C21.2928 30.6496 21.2631 28.2007 21.7677 25.4567L23.0699 18.3754C23.976 13.448 26.2031 9.49433 29.7511 6.5143C33.3346 3.50477 37.6613 2 42.7313 2C47.8313 2 51.6046 3.50477 54.0511 6.5143C56.5031 9.49433 57.276 13.448 56.3699 18.3754L55.0677 25.4567C54.5631 28.2007 53.6178 30.6496 52.2317 32.8035C50.8756 34.9574 49.215 36.7277 47.25 38.1144L48.1127 33.4231C49.5569 34.8689 50.5582 36.6834 51.1167 38.8668C51.7051 41.0502 51.7471 43.5139 51.2425 46.2579L49.6635 54.8439C48.7629 59.7418 46.5358 63.6955 42.9823 66.705C39.4289 69.7146 35.1022 71.2193 30.0022 71.2193ZM32.1997 59.2697C33.6397 59.2697 34.8229 58.8714 35.7494 58.0747C36.6813 57.2486 37.2694 56.1716 37.5135 54.8439L39.0925 46.2579C39.3366 44.9301 39.142 43.868 38.5085 43.0713C37.8804 42.2452 36.8464 41.8321 35.4064 41.8321C33.9664 41.8321 32.7804 42.2452 31.8485 43.0713C30.922 43.868 30.3366 44.9301 30.0925 46.2579L28.5135 54.8439C28.2694 56.1716 28.4613 57.2486 29.0894 58.0747C29.7229 58.8714 30.7597 59.2697 32.1997 59.2697ZM37.6038 29.8825C39.0438 29.8825 40.2271 29.4841 41.1536 28.6875C42.0855 27.8614 42.6736 26.7844 42.9177 25.4567L44.2199 18.3754C44.4641 17.0477 44.2694 15.9855 43.6359 15.1888C43.0078 14.3627 41.9738 13.9496 40.5338 13.9496C39.0938 13.9496 37.9078 14.3627 36.9759 15.1888C36.0494 15.9855 35.4641 17.0477 35.2199 18.3754L33.9177 25.4567C33.6736 26.7844 33.8655 27.8614 34.4936 28.6875C35.1271 29.4841 36.1638 29.8825 37.6038 29.8825Z" fill="#00FFFF" style="mix-blend-mode:multiply"/>
<path d="M32.0021 71.2193C26.9321 71.2193 23.1588 69.7146 20.6823 66.705C18.2357 63.6955 17.4628 59.7418 18.3635 54.8439L19.9424 46.2579C20.447 43.5139 21.3801 41.0502 22.7416 38.8668C24.1331 36.6834 25.8168 34.8689 27.7926 33.4231L26.9299 38.1144C25.475 36.7277 24.4505 34.9574 23.8566 32.8035C23.2927 30.6496 23.263 28.2007 23.7676 25.4567L25.0698 18.3754C25.976 13.448 28.203 9.49433 31.751 6.5143C35.3345 3.50477 39.6612 2 44.7312 2C49.8312 2 53.6045 3.50477 56.051 6.5143C58.503 9.49433 59.276 13.448 58.3698 18.3754L57.0676 25.4567C56.563 28.2007 55.6177 30.6496 54.2316 32.8035C52.8755 34.9574 51.215 36.7277 49.2499 38.1144L50.1127 33.4231C51.5568 34.8689 52.5581 36.6834 53.1166 38.8668C53.7051 41.0502 53.747 43.5139 53.2424 46.2579L51.6635 54.8439C50.7628 59.7418 48.5357 63.6955 44.9823 66.705C41.4288 69.7146 37.1021 71.2193 32.0021 71.2193ZM34.1996 59.2697C35.6396 59.2697 36.8228 58.8714 37.7493 58.0747C38.6813 57.2486 39.2693 56.1716 39.5135 54.8439L41.0924 46.2579C41.3366 44.9301 41.1419 43.868 40.5084 43.0713C39.8803 42.2452 38.8463 41.8321 37.4063 41.8321C35.9663 41.8321 34.7803 42.2452 33.8484 43.0713C32.9219 43.868 32.3366 44.9301 32.0924 46.2579L30.5135 54.8439C30.2693 56.1716 30.4613 57.2486 31.0893 58.0747C31.7228 58.8714 32.7596 59.2697 34.1996 59.2697ZM39.6038 29.8825C41.0438 29.8825 42.227 29.4841 43.1535 28.6875C44.0854 27.8614 44.6735 26.7844 44.9176 25.4567L46.2198 18.3754C46.464 17.0477 46.2693 15.9855 45.6358 15.1888C45.0078 14.3627 43.9737 13.9496 42.5337 13.9496C41.0937 13.9496 39.9078 14.3627 38.9758 15.1888C38.0493 15.9855 37.464 17.0477 37.2198 18.3754L35.9176 25.4567C35.6735 26.7844 35.8654 27.8614 36.4935 28.6875C37.127 29.4841 38.1638 29.8825 39.6038 29.8825Z" fill="#FF0000" style="mix-blend-mode:multiply"/>
</g>
</g>
</svg>
