<svg width="17" height="14" viewBox="0 0 17 14" fill="none" xmlns="http://www.w3.org/2000/svg">
<path d="M13.9398 0.940003C14.2216 0.671781 14.5965 0.523497 14.9855 0.526441C15.3744 0.529384 15.7471 0.683325 16.0247 0.955779C16.3024 1.22823 16.4633 1.59789 16.4736 1.98675C16.4839 2.37561 16.3427 2.75326 16.0798 3.04L8.09983 13.02C7.96261 13.1678 7.797 13.2864 7.61289 13.3687C7.42879 13.4511 7.22997 13.4954 7.02833 13.4992C6.82669 13.5029 6.62637 13.4659 6.43934 13.3905C6.25231 13.315 6.08242 13.2026 5.93983 13.06L0.647827 7.768C0.500453 7.63068 0.382249 7.46508 0.300265 7.28108C0.218281 7.09708 0.174197 6.89845 0.170644 6.69705C0.16709 6.49564 0.20414 6.29558 0.279582 6.10881C0.355024 5.92203 0.467313 5.75236 0.609751 5.60993C0.752188 5.46749 0.921856 5.3552 1.10863 5.27976C1.29541 5.20432 1.49547 5.16727 1.69687 5.17082C1.89828 5.17437 2.0969 5.21846 2.2809 5.30044C2.4649 5.38243 2.6305 5.50063 2.76783 5.648L6.95583 9.834L13.9018 0.984004L13.9398 0.940003Z" fill="black"/>
</svg>
