<svg width="50" height="50" viewBox="0 0 50 50" fill="none" xmlns="http://www.w3.org/2000/svg">
<path d="M13.0453 42.267L13.0471 42.2678C15.2546 43.191 17.8296 43.6361 20.7467 43.6361C21.0839 43.6361 21.4182 43.6301 21.7498 43.6182C22.0775 43.6301 22.4098 43.6361 22.7467 43.6361C25.6673 43.6361 28.375 43.19 30.8597 42.2851C33.3402 41.3859 35.4202 40.1513 37.0705 38.5633C38.745 36.9629 39.8056 35.1151 40.1897 33.0266C40.482 31.4372 40.3481 29.9355 39.7472 28.5568C39.1606 27.2109 38.2433 26.0981 37.0174 25.2264C36.583 24.913 36.1236 24.6408 35.6403 24.409C36.7379 23.9181 37.7564 23.2499 38.6928 22.4072C40.3972 20.8733 41.4699 19.0205 41.8661 16.8657C42.2362 14.8532 41.9168 12.9979 40.8639 11.3665C39.8355 9.75863 38.2812 8.53699 36.2764 7.67077C34.2604 6.78757 31.9032 6.36389 29.2331 6.36389C28.8944 6.36389 28.5588 6.37062 28.2262 6.38409C27.9002 6.3706 27.5691 6.36389 27.2331 6.36389C24.5592 6.36389 22.0757 6.78306 19.7926 7.63388C17.5208 8.48046 15.6054 9.65741 14.0722 11.1795C12.5243 12.7071 11.543 14.4858 11.1718 16.504C10.7776 18.6476 11.1446 20.5914 12.3372 22.2481L12.3372 22.2482L12.3432 22.2563C12.9578 23.0922 13.7087 23.7586 14.5835 24.26C13.9218 24.5094 13.2779 24.8126 12.6523 25.1694C11.1781 26.0001 9.92338 27.0535 8.8976 28.3299L8.89759 28.3299L8.89391 28.3346C7.86434 29.6313 7.19629 31.078 6.90448 32.6648C6.51934 34.7592 6.88591 36.6925 8.03099 38.3987L8.03098 38.3987L8.03396 38.4031C9.16791 40.0736 10.8643 41.3498 13.0453 42.267ZM25.5522 33.55L25.5497 33.5531C25.1345 34.0597 24.6189 34.4608 23.9893 34.7575C23.664 34.9108 23.3207 35.0251 22.9571 35.0989C22.6485 35.0297 22.3782 34.9265 22.141 34.795C21.6875 34.5252 21.3749 34.18 21.1721 33.7518C20.9895 33.3435 20.9271 32.8477 21.0422 32.2219C21.1571 31.5971 21.4113 31.0525 21.8094 30.572C22.233 30.0744 22.752 29.683 23.3785 29.3962L23.3785 29.3963L23.3834 29.394C23.7171 29.239 24.0651 29.1242 24.4292 29.0502C24.741 29.12 25.0091 29.2242 25.2398 29.3557L25.2463 29.3594L25.2528 29.363C25.7076 29.6134 26.0093 29.9397 26.1988 30.349L26.202 30.3558L26.2053 30.3626C26.3934 30.7533 26.4627 31.2359 26.3479 31.8601C26.2336 32.4819 25.9726 33.041 25.5522 33.55ZM28.3194 16.2711L28.3194 16.2711L28.3238 16.2808C28.473 16.6056 28.5312 17.0214 28.4291 17.5769C28.3276 18.1286 28.1035 18.6186 27.7495 19.0601C27.388 19.5108 26.9422 19.865 26.4004 20.1258C26.1662 20.2386 25.9211 20.3274 25.6638 20.3913C25.4596 20.3338 25.2777 20.2575 25.1151 20.1655C24.7344 19.9317 24.4804 19.6398 24.3199 19.2827C24.1658 18.9252 24.1128 18.4902 24.2143 17.9387C24.3157 17.3871 24.5365 16.9138 24.8781 16.5008L24.8781 16.5008L24.883 16.4948C25.24 16.0564 25.6812 15.7131 26.2194 15.4621L26.2194 15.4621L26.2248 15.4596C26.4665 15.3452 26.7165 15.2556 26.9756 15.1913C27.1817 15.2496 27.3617 15.3268 27.5192 15.4189L27.5264 15.4232L27.5337 15.4273C27.9113 15.6398 28.1613 15.917 28.3194 16.2711Z" fill="white" stroke="white" stroke-width="2"/>
<path d="M20.7464 42.6361C17.9282 42.6361 15.4903 42.2058 13.4326 41.3452C11.3864 40.4847 9.86249 39.3168 8.86106 37.8415C7.87099 36.3662 7.54654 34.701 7.88771 32.8457C8.14873 31.4263 8.7451 30.1299 9.67681 28.9564C10.6199 27.7829 11.776 26.8105 13.145 26.0394C14.5162 25.2571 15.978 24.7541 17.5305 24.5306L17.5798 24.2624C15.6528 23.9271 14.1757 23.0609 13.1485 21.6639C12.1348 20.2557 11.8036 18.596 12.1551 16.6849C12.486 14.8855 13.3594 13.2873 14.7754 11.8903C16.1935 10.4821 17.9822 9.37563 20.1415 8.57094C22.3008 7.76625 24.6646 7.3639 27.2328 7.3639C29.801 7.3639 32.0157 7.77184 33.8771 8.5877C35.7404 9.39239 37.1222 10.4988 38.0223 11.907C38.9245 13.3041 39.2112 14.8967 38.8823 16.6849C38.5288 18.6072 37.5759 20.2669 36.0235 21.6639C34.4712 23.0609 32.6869 23.9271 30.6707 24.2624L30.6214 24.5306C32.0803 24.7541 33.3514 25.2571 34.4348 26.0394C35.5203 26.8105 36.3187 27.7829 36.8302 28.9564C37.3417 30.1299 37.4669 31.4263 37.2059 32.8457C36.8647 34.701 35.9221 36.3662 34.3781 37.8415C32.8455 39.3168 30.892 40.4847 28.5179 41.3452C26.1551 42.2058 23.5646 42.6361 20.7464 42.6361ZM21.9302 36.1986C22.828 36.1986 23.6563 36.0198 24.4152 35.6621C25.1742 35.3045 25.8101 34.8127 26.3229 34.1869C26.8491 33.5498 27.1852 32.8345 27.3311 32.041C27.4771 31.2475 27.402 30.5434 27.106 29.9287C26.8213 29.314 26.3642 28.8334 25.7347 28.487C25.1073 28.1293 24.3447 27.9505 23.447 27.9505C22.5606 27.9505 21.7323 28.1293 20.962 28.487C20.2051 28.8334 19.5656 29.314 19.0435 29.9287C18.5327 30.5434 18.2043 31.2475 18.0584 32.041C17.9125 32.8345 17.9809 33.5442 18.2635 34.1701C18.5575 34.796 19.0172 35.2933 19.6425 35.6621C20.2813 36.0198 21.0439 36.1986 21.9302 36.1986ZM24.6308 21.513C25.4263 21.513 26.1606 21.351 26.8339 21.0268C27.5071 20.7027 28.0723 20.2557 28.5294 19.6857C28.9865 19.1157 29.2808 18.4731 29.4123 17.7578C29.5438 17.0425 29.4838 16.4111 29.2323 15.8634C28.9828 15.3046 28.58 14.8687 28.0239 14.5558C27.4698 14.2317 26.7951 14.0696 25.9996 14.0696C25.2155 14.0696 24.4812 14.2317 23.7966 14.5558C23.1254 14.8687 22.5623 15.3046 22.1073 15.8634C21.6543 16.4111 21.362 17.0425 21.2305 17.7578C21.099 18.4731 21.1569 19.1157 21.4044 19.6857C21.6539 20.2445 22.0546 20.6916 22.6066 21.0268C23.172 21.351 23.8467 21.513 24.6308 21.513Z" fill="#00FFFF" style="mix-blend-mode:multiply"/>
<path d="M22.7464 42.6361C19.9282 42.6361 17.4903 42.2058 15.4326 41.3452C13.3864 40.4847 11.8625 39.3168 10.8611 37.8415C9.87099 36.3662 9.54654 34.701 9.88771 32.8457C10.1487 31.4263 10.7451 30.1299 11.6768 28.9564C12.6199 27.7829 13.776 26.8105 15.145 26.0394C16.5162 25.2571 17.978 24.7541 19.5305 24.5306L19.5798 24.2624C17.6528 23.9271 16.1757 23.0609 15.1485 21.6639C14.1348 20.2557 13.8036 18.596 14.1551 16.6849C14.486 14.8855 15.3594 13.2873 16.7754 11.8903C18.1935 10.4821 19.9822 9.37563 22.1415 8.57094C24.3008 7.76625 26.6646 7.3639 29.2328 7.3639C31.801 7.3639 34.0157 7.77184 35.8771 8.5877C37.7404 9.39239 39.1222 10.4988 40.0223 11.907C40.9245 13.3041 41.2112 14.8967 40.8823 16.6849C40.5288 18.6072 39.5759 20.2669 38.0235 21.6639C36.4712 23.0609 34.6869 23.9271 32.6707 24.2624L32.6214 24.5306C34.0803 24.7541 35.3514 25.2571 36.4348 26.0394C37.5203 26.8105 38.3187 27.7829 38.8302 28.9564C39.3417 30.1299 39.4669 31.4263 39.2059 32.8457C38.8647 34.701 37.9221 36.3662 36.3781 37.8415C34.8455 39.3168 32.892 40.4847 30.5179 41.3452C28.1551 42.2058 25.5646 42.6361 22.7464 42.6361ZM23.9302 36.1986C24.828 36.1986 25.6563 36.0198 26.4152 35.6621C27.1742 35.3045 27.8101 34.8127 28.3229 34.1869C28.8491 33.5498 29.1852 32.8345 29.3311 32.041C29.4771 31.2475 29.402 30.5434 29.106 29.9287C28.8213 29.314 28.3642 28.8334 27.7347 28.487C27.1073 28.1293 26.3447 27.9505 25.447 27.9505C24.5606 27.9505 23.7323 28.1293 22.962 28.487C22.2051 28.8334 21.5656 29.314 21.0435 29.9287C20.5327 30.5434 20.2043 31.2475 20.0584 32.041C19.9125 32.8345 19.9809 33.5442 20.2635 34.1701C20.5575 34.796 21.0172 35.2933 21.6425 35.6621C22.2813 36.0198 23.0439 36.1986 23.9302 36.1986ZM26.6308 21.513C27.4263 21.513 28.1606 21.351 28.8339 21.0268C29.5071 20.7027 30.0723 20.2557 30.5294 19.6857C30.9865 19.1157 31.2808 18.4731 31.4123 17.7578C31.5438 17.0425 31.4838 16.4111 31.2323 15.8634C30.9828 15.3046 30.58 14.8687 30.0239 14.5558C29.4698 14.2317 28.7951 14.0696 27.9996 14.0696C27.2155 14.0696 26.4812 14.2317 25.7966 14.5558C25.1254 14.8687 24.5623 15.3046 24.1073 15.8634C23.6543 16.4111 23.362 17.0425 23.2305 17.7578C23.099 18.4731 23.1569 19.1157 23.4044 19.6857C23.6539 20.2445 24.0546 20.6916 24.6066 21.0268C25.172 21.351 25.8467 21.513 26.6308 21.513Z" fill="#FF0000" style="mix-blend-mode:multiply"/>
</svg>
