<svg width="50" height="50" viewBox="0 0 50 50" fill="none" xmlns="http://www.w3.org/2000/svg">
<path d="M20.6538 43.8708H20.6503C17.333 43.8591 14.5131 43.103 12.2621 41.5274C10.0059 39.9482 8.48406 37.6794 7.67501 34.792C6.86659 31.9067 6.85661 28.513 7.57891 24.6486M20.6538 43.8708L7.57891 24.6486M20.6538 43.8708C21.0035 43.8708 21.35 43.8625 21.6933 43.846C22.0075 43.8614 22.3265 43.8697 22.6503 43.8708H22.6538C25.9794 43.8708 29.0123 43.1247 31.7296 41.616L31.7306 41.6155C34.456 40.0983 36.7303 37.9173 38.5562 35.0995C40.3857 32.2761 41.6476 28.9063 42.3634 25.0139C43.0851 21.1519 43.0711 17.7825 42.249 14.9478C41.4265 12.1118 39.8887 9.89836 37.6181 8.37811C35.3603 6.85387 32.5399 6.12921 29.2265 6.12921C28.8881 6.12921 28.5528 6.1367 28.2205 6.1517C27.8943 6.13668 27.5629 6.12921 27.2265 6.12921C23.9063 6.12921 20.8763 6.85046 18.1582 8.31024L18.1566 8.31112C15.4497 9.77138 13.1886 11.8969 11.371 14.6601L11.371 14.6601L11.3694 14.6626C9.55963 17.4319 8.30398 20.7692 7.57891 24.6486M20.6538 43.8708L8.56188 24.8324L7.57891 24.6486M25.7554 32.1492L25.7544 32.1504C24.865 33.2518 23.9726 33.8816 23.0756 34.1454C22.686 34.014 22.351 33.7957 22.0561 33.493C21.5599 32.9723 21.1598 32.0748 20.9799 30.6435C20.8062 29.2334 20.9192 27.3691 21.3627 25.0182C22.0229 21.5499 22.9852 19.1616 24.1637 17.7202C25.0349 16.6548 25.917 16.0416 26.8134 15.7842C27.2041 15.9138 27.5366 16.1294 27.8262 16.4269L27.8262 16.427L27.8327 16.4335C28.3291 16.9341 28.7319 17.7977 28.9185 19.1822C29.1005 20.5325 29.0028 22.3437 28.5784 24.6515L28.5778 24.6545C27.9372 28.199 26.9671 30.6535 25.7554 32.1492Z" fill="white" stroke="white" stroke-width="2"/>
<path d="M20.6537 42.8708C17.4853 42.8596 14.8792 42.1388 12.8355 40.7082C10.7917 39.2777 9.39251 37.2156 8.63783 34.5222C7.88314 31.8287 7.8578 28.5988 8.56178 24.8324C9.26782 21.0548 10.4827 17.8472 12.2064 15.2096C13.9414 12.572 16.083 10.5659 18.6313 9.19124C21.1909 7.81656 24.0559 7.12922 27.2264 7.12922C30.3969 7.12922 33.0081 7.82215 35.06 9.208C37.114 10.5827 38.5235 12.5888 39.2885 15.2264C40.0535 17.864 40.0839 21.066 39.38 24.8324C38.6832 28.6211 37.4622 31.8622 35.7169 34.5557C33.9716 37.2492 31.814 39.3112 29.2441 40.7417C26.6876 42.1611 23.8241 42.8708 20.6537 42.8708ZM22.0472 35.2933C23.6835 35.2933 25.1786 34.4551 26.5323 32.7787C27.8995 31.0911 28.9093 28.4423 29.5618 24.8324C29.9954 22.4742 30.1113 20.5463 29.9095 19.0487C29.7076 17.5511 29.252 16.4446 28.5426 15.7293C27.8353 15.0029 26.9362 14.6397 25.8453 14.6397C24.2089 14.6397 22.7236 15.4555 21.3895 17.0872C20.0553 18.719 19.0521 21.3007 18.38 24.8324C17.9267 27.2353 17.7959 29.2135 17.9875 30.767C18.1811 32.3093 18.6306 33.4493 19.3358 34.1869C20.0525 34.9245 20.9562 35.2933 22.0472 35.2933Z" fill="#00FFFF" style="mix-blend-mode:multiply"/>
<path d="M22.6537 42.8708C19.4853 42.8596 16.8792 42.1388 14.8355 40.7082C12.7917 39.2777 11.3925 37.2156 10.6378 34.5222C9.88314 31.8287 9.8578 28.5988 10.5618 24.8324C11.2678 21.0548 12.4827 17.8472 14.2064 15.2096C15.9414 12.572 18.083 10.5659 20.6313 9.19124C23.1909 7.81656 26.0559 7.12922 29.2264 7.12922C32.3969 7.12922 35.0081 7.82215 37.06 9.208C39.114 10.5827 40.5235 12.5888 41.2885 15.2264C42.0535 17.864 42.0839 21.066 41.38 24.8324C40.6832 28.6211 39.4622 31.8622 37.7169 34.5557C35.9716 37.2492 33.814 39.3112 31.2441 40.7417C28.6876 42.1611 25.8241 42.8708 22.6537 42.8708ZM24.0472 35.2933C25.6835 35.2933 27.1786 34.4551 28.5323 32.7787C29.8995 31.0911 30.9093 28.4423 31.5618 24.8324C31.9954 22.4742 32.1113 20.5463 31.9095 19.0487C31.7076 17.5511 31.252 16.4446 30.5426 15.7293C29.8353 15.0029 28.9362 14.6397 27.8453 14.6397C26.2089 14.6397 24.7236 15.4555 23.3895 17.0872C22.0553 18.719 21.0521 21.3007 20.38 24.8324C19.9267 27.2353 19.7959 29.2135 19.9875 30.767C20.1811 32.3093 20.6306 33.4493 21.3358 34.1869C22.0525 34.9245 22.9562 35.2933 24.0472 35.2933Z" fill="#FF0000" style="mix-blend-mode:multiply"/>
</svg>
