<svg width="51" height="50" viewBox="0 0 51 50" fill="none" xmlns="http://www.w3.org/2000/svg">
<path d="M9.69727 36.8021L11.0291 29.5599L29.0699 7.83331H35.7518L33.976 17.4896H30.1578L20.4193 29.2917L20.37 29.5599H41.0973L39.7654 36.8021H9.69727ZM25.688 42.1667L27.0815 34.5892L27.8656 31.4375L32.2063 7.83331H41.0699L34.7562 42.1667H25.688Z" fill="white"/>
<path d="M7.69727 36.8021L9.02907 29.5599L27.0699 7.83331H33.7518L31.976 17.4896H28.1578L18.4193 29.2917L18.37 29.5599H39.0973L37.7654 36.8021H7.69727ZM23.688 42.1667L25.0815 34.5892L25.8656 31.4375L30.2063 7.83331H39.0699L32.7562 42.1667H23.688Z" fill="white"/>
<path fill-rule="evenodd" clip-rule="evenodd" d="M24.6745 36.8021L23.688 42.1667H34.7562L35.7427 36.8021H39.7654L41.0973 29.5599H37.0745L41.0699 7.83331H27.0699L9.02907 29.5599L7.69727 36.8021H24.6745ZM26.2109 29.5599L27.9352 20.1831L20.4193 29.2917L20.37 29.5599H26.2109ZM24.5451 27.5599H24.4412L24.5749 27.3979L24.5451 27.5599ZM26.131 5.83331L7.15652 28.6843L5.2959 38.8021H22.2732L21.2866 44.1667H36.4219L37.4084 38.8021H41.4312L43.4985 27.5599H39.4758L43.4712 5.83331H26.131Z" fill="white"/>
<path d="M7.69721 36.8021L9.02901 29.5599L27.0699 7.83331H33.7517L31.976 17.4896H28.1578L18.4192 29.2917L18.3699 29.5599H39.0972L37.7654 36.8021H7.69721ZM23.688 42.1667L25.0814 34.5892L25.8655 31.4375L30.2062 7.83331H39.0699L32.7561 42.1667H23.688Z" fill="#00FFFF" style="mix-blend-mode:multiply"/>
<path d="M9.69721 36.8021L11.029 29.5599L29.0699 7.83331H35.7517L33.976 17.4896H30.1578L20.4192 29.2917L20.3699 29.5599H41.0972L39.7654 36.8021H9.69721ZM25.688 42.1667L27.0814 34.5892L27.8655 31.4375L32.2062 7.83331H41.0699L34.7561 42.1667H25.688Z" fill="#FF0000" style="mix-blend-mode:multiply"/>
</svg>
