<svg width="28" height="28" viewBox="0 0 28 28" fill="none" xmlns="http://www.w3.org/2000/svg">
<path d="M15.248 3.616C16.368 3.616 17.3667 3.76533 18.244 4.064C19.14 4.344 19.8867 4.764 20.484 5.324C21.0813 5.884 21.5107 6.57467 21.772 7.396C22.0333 8.19867 22.0987 9.12267 21.968 10.168C21.856 10.9707 21.632 11.7733 21.296 12.576C20.96 13.3787 20.4747 14.1067 19.84 14.76C19.224 15.4133 18.44 15.936 17.488 16.328C16.5547 16.72 15.4253 16.916 14.1 16.916H11.16L10.264 24H7.016L9.508 3.616H15.248ZM14.436 13.78C15.4253 13.78 16.2093 13.584 16.788 13.192C17.3853 12.8 17.824 12.3333 18.104 11.792C18.384 11.2507 18.5427 10.7467 18.58 10.28C18.636 9.944 18.6267 9.58 18.552 9.188C18.496 8.77733 18.356 8.39467 18.132 8.04C17.908 7.66667 17.572 7.35867 17.124 7.116C16.6947 6.87333 16.1253 6.752 15.416 6.752H12.392L11.524 13.78H14.436ZM17.712 15.712L21.94 24H18.132L13.82 15.796L17.712 15.712Z" fill="#FF0000" style="mix-blend-mode:multiply"/>
<path d="M13.248 3.616C14.368 3.616 15.3667 3.76533 16.244 4.064C17.14 4.344 17.8867 4.764 18.484 5.324C19.0813 5.884 19.5107 6.57467 19.772 7.396C20.0333 8.19867 20.0987 9.12267 19.968 10.168C19.856 10.9707 19.632 11.7733 19.296 12.576C18.96 13.3787 18.4747 14.1067 17.84 14.76C17.224 15.4133 16.44 15.936 15.488 16.328C14.5547 16.72 13.4253 16.916 12.1 16.916H9.16L8.264 24H5.016L7.508 3.616H13.248ZM12.436 13.78C13.4253 13.78 14.2093 13.584 14.788 13.192C15.3853 12.8 15.824 12.3333 16.104 11.792C16.384 11.2507 16.5427 10.7467 16.58 10.28C16.636 9.944 16.6267 9.58 16.552 9.188C16.496 8.77733 16.356 8.39467 16.132 8.04C15.908 7.66667 15.572 7.35867 15.124 7.116C14.6947 6.87333 14.1253 6.752 13.416 6.752H10.392L9.524 13.78H12.436ZM15.712 15.712L19.94 24H16.132L11.82 15.796L15.712 15.712Z" fill="#00FFFF" style="mix-blend-mode:multiply"/>
</svg>
