<svg width="45" height="45" viewBox="0 0 45 45" fill="none" xmlns="http://www.w3.org/2000/svg">
<path fill-rule="evenodd" clip-rule="evenodd" d="M39.448 17.6417C40.1753 22.1986 40.1232 26.8459 39.2938 31.3853C38.9912 33.0414 37.6061 34.2828 35.9268 34.4029L32.8558 34.6226C26.4244 35.0828 19.9683 35.0828 13.5369 34.6226L10.6981 34.4195C8.88219 34.2896 7.38435 32.9472 7.05712 31.1562C6.25527 26.7676 6.118 22.2834 6.6499 17.8539L7.16081 13.5993C7.40744 11.5456 9.14974 10 11.2182 10H15.5149C17.3755 10 18.8839 11.5083 18.8839 13.3689C18.8839 13.4304 18.9337 13.4802 18.9952 13.4802L35.3317 13.4802C37.3204 13.4802 39.0144 14.9252 39.3278 16.8891L39.448 17.6417ZM24.6027 19.8438C24.6027 19.0671 23.9731 18.4375 23.1964 18.4375C22.4198 18.4375 21.7902 19.0671 21.7902 19.8438V23.125H18.5089C17.7323 23.125 17.1027 23.7546 17.1027 24.5312C17.1027 25.3079 17.7323 25.9375 18.5089 25.9375H21.7902V29.2188C21.7902 29.9954 22.4198 30.625 23.1964 30.625C23.9731 30.625 24.6027 29.9954 24.6027 29.2188V25.9375H27.8839C28.6606 25.9375 29.2902 25.3079 29.2902 24.5312C29.2902 23.7546 28.6606 23.125 27.8839 23.125H24.6027V19.8438Z" fill="#00FFFF"/>
</svg>
