<svg width="45" height="45" viewBox="0 0 45 45" fill="none" xmlns="http://www.w3.org/2000/svg">
<path d="M15.1611 10C10.3939 10 6.33252 13.585 6.33252 18.241C6.33252 21.453 7.82797 24.1572 9.80993 26.3973C11.7851 28.6297 14.3333 30.5035 16.637 32.0718L20.6118 34.7777C21.0471 35.0741 21.6179 35.0741 22.0532 34.7777L26.028 32.0718C28.3317 30.5035 30.88 28.6297 32.8551 26.3973C34.8371 24.1572 36.3325 21.453 36.3325 18.241C36.3325 13.585 32.2711 10 27.5039 10C25.0466 10 22.8842 11.1589 21.3325 12.6583C19.7808 11.1589 17.6185 10 15.1611 10Z" fill="#FF0090"/>
</svg>
