<svg width="16" height="16" viewBox="0 0 16 16" fill="none" xmlns="http://www.w3.org/2000/svg">
<g clip-path="url(#clip0_152_631)">
<path d="M15.9165 7.2101C15.8282 6.84891 15.6604 6.51179 15.4269 6.22284C15.1937 5.93433 14.897 5.70359 14.56 5.54862C14.2241 5.3887 13.8565 5.3064 13.4845 5.30783H9.92874L10.1374 4.50518C10.3311 3.7412 10.2574 2.93396 9.92874 2.21764C9.59367 1.50441 9.02818 0.924789 8.32345 0.572209L7.44054 0.13878C7.25585 0.0474894 7.0526 0 6.84658 0C6.64056 0 6.43731 0.0474894 6.25262 0.13878C6.06812 0.234196 5.90864 0.371672 5.78708 0.540103C5.66391 0.70508 5.5839 0.898209 5.55432 1.10196L4.79983 5.63691C4.67775 5.74836 4.56747 5.87209 4.47074 6.00613C4.28758 5.78445 4.05857 5.60509 3.79946 5.48039C3.54036 5.35568 3.25731 5.2886 2.96979 5.28375H2.02267C1.48622 5.28375 0.97175 5.49685 0.592426 5.87617C0.213102 6.2555 0 6.76997 0 7.30642V13.9604C0 14.4968 0.213102 15.0113 0.592426 15.3906C0.97175 15.7699 1.48622 15.983 2.02267 15.983H2.96979C3.26725 15.9843 3.56128 15.9194 3.83058 15.7931C4.09989 15.6668 4.33774 15.4822 4.52693 15.2526C4.99832 15.7211 5.63616 15.9838 6.30078 15.983H12.3367C12.9199 15.991 13.4877 15.7951 13.942 15.4292C14.4015 15.0635 14.7147 14.5452 14.8249 13.9684L15.9646 8.27762C16.0246 7.9224 16.0082 7.55848 15.9165 7.2101ZM3.77244 13.9925C3.77244 14.2053 3.68788 14.4095 3.53735 14.56C3.38682 14.7105 3.18267 14.7951 2.96979 14.7951H2.02267C1.80979 14.7951 1.60564 14.7105 1.45511 14.56C1.30459 14.4095 1.22002 14.2053 1.22002 13.9925V7.33852C1.22002 7.12565 1.30459 6.92149 1.45511 6.77096C1.60564 6.62044 1.80979 6.53587 2.02267 6.53587H2.96979C3.18267 6.53587 3.38682 6.62044 3.53735 6.77096C3.68788 6.92149 3.77244 7.12565 3.77244 7.33852V13.9925Z" fill="#FF0090"/>
</g>
<defs>
<clipPath id="clip0_152_631">
<rect width="16" height="16" fill="white"/>
</clipPath>
</defs>
</svg>
