<svg width="45" height="45" viewBox="0 0 45 45" fill="none" xmlns="http://www.w3.org/2000/svg">
<path d="M15.9888 10C10.7747 10 6.33252 13.8987 6.33252 18.9621C6.33252 22.4552 7.96817 25.396 10.1359 27.832C12.2963 30.2598 15.0834 32.2975 17.6031 34.0031L21.9505 36.9458C22.4266 37.2681 23.0509 37.2681 23.527 36.9458L27.8744 34.0031C30.3941 32.2975 33.1813 30.2598 35.3416 27.832C37.5094 25.396 39.145 22.4552 39.145 18.9621C39.145 13.8987 34.7029 10 29.4888 10C26.801 10 24.4359 11.2603 22.7388 12.8909C21.0416 11.2603 18.6765 10 15.9888 10Z" fill="#FF0F97"/>
</svg>
