<svg width="45" height="45" viewBox="0 0 45 45" fill="none" xmlns="http://www.w3.org/2000/svg">
<path fill-rule="evenodd" clip-rule="evenodd" d="M38.5002 17.6516C39.214 22.2144 39.1629 26.8677 38.3489 31.4129C38.0519 33.0712 36.6926 34.3142 35.0445 34.4345L32.0306 34.6545C25.7186 35.1152 19.3825 35.1152 13.0705 34.6545L10.2845 34.4511C8.5023 34.321 7.03229 32.9768 6.71114 31.1835C5.92419 26.7893 5.78946 22.2992 6.31149 17.8641L6.8129 13.604C7.05495 11.5476 8.76488 10 10.795 10H15.0118C16.8379 10 18.3182 11.5103 18.3182 13.3733C18.3182 13.4348 18.3671 13.4847 18.4274 13.4847L34.4605 13.4847C36.4122 13.4847 38.0747 14.9316 38.3823 16.898L38.5002 17.6516ZM23.9307 19.8565C23.9307 19.0788 23.3128 18.4484 22.5506 18.4484C21.7884 18.4484 21.1705 19.0788 21.1705 19.8565V23.142H17.9502C17.188 23.142 16.5701 23.7724 16.5701 24.55C16.5701 25.3277 17.188 25.9581 17.9502 25.9581H21.1705V29.2436C21.1705 30.0212 21.7884 30.6517 22.5506 30.6517C23.3128 30.6517 23.9307 30.0212 23.9307 29.2436V25.9581H27.151C27.9132 25.9581 28.5311 25.3277 28.5311 24.55C28.5311 23.7724 27.9132 23.142 27.151 23.142H23.9307V19.8565Z" fill="#00FFFF"/>
</svg>
