<svg width="45" height="45" viewBox="0 0 45 45" fill="none" xmlns="http://www.w3.org/2000/svg">
<path d="M16.8832 24.4068C16.8832 23.6835 17.4685 23.0971 18.1904 23.0971H21.2406V20.0411C21.2406 19.3178 21.8259 18.7314 22.5479 18.7314C23.2698 18.7314 23.8551 19.3178 23.8551 20.0411V23.0971H26.9053C27.6273 23.0971 28.2125 23.6835 28.2125 24.4068C28.2125 25.1302 27.6273 25.7165 26.9053 25.7165H23.8551V28.7725C23.8551 29.4959 23.2698 30.0823 22.5479 30.0823C21.8259 30.0823 21.2406 29.4959 21.2406 28.7725V25.7165H18.1904C17.4685 25.7165 16.8832 25.1302 16.8832 24.4068Z" fill="#00FFFF" fill-opacity="0.5"/>
<path fill-rule="evenodd" clip-rule="evenodd" d="M38.5157 17.8527C39.2074 22.1943 39.1578 26.6222 38.3691 30.9473C38.0163 32.8815 36.4017 34.3314 34.4441 34.4717L31.5894 34.6764C25.5694 35.1079 19.5264 35.1079 13.5064 34.6764L10.8675 34.4872C8.78287 34.3378 7.06342 32.7938 6.68777 30.7339C5.92668 26.5605 5.79638 22.2961 6.30125 18.0838L6.77619 14.1213C7.05804 11.7697 9.04922 10 11.4132 10H15.4073C17.3555 10 18.9787 11.3943 19.3369 13.2413L33.8288 13.2413C36.1057 13.2413 38.0452 14.8989 38.4041 17.1516L38.5157 17.8527ZM35.7972 30.4765C36.5327 26.4433 36.5789 22.3142 35.9339 18.2655L35.8223 17.5645C35.6659 16.583 34.8208 15.8607 33.8288 15.8607H18.6425C17.6227 15.8607 16.7961 15.0325 16.7961 14.0108C16.7961 13.2424 16.1743 12.6194 15.4073 12.6194H11.4132C10.3726 12.6194 9.49607 13.3985 9.372 14.4336L8.89706 18.3961C8.42345 22.3476 8.54568 26.348 9.25965 30.2631C9.42093 31.1474 10.1591 31.8103 11.0541 31.8745L13.693 32.0636C19.5887 32.4862 25.5071 32.4862 31.4028 32.0636L34.2576 31.859C35.0255 31.804 35.6588 31.2352 35.7972 30.4765Z" fill="#00FFFF" fill-opacity="0.5"/>
</svg>
