<svg width="16" height="16" viewBox="0 0 16 16" fill="none" xmlns="http://www.w3.org/2000/svg">
<g clip-path="url(#clip0_152_629)">
<path d="M2.99988 5.93197H2.05428C1.27028 5.93197 0.634277 6.56717 0.634277 7.35197V13.9792C0.634277 14.7632 1.27028 15.4 2.05428 15.4H3.00148C3.78548 15.4 4.42148 14.764 4.42148 13.9792V7.35197C4.42148 6.56797 3.78548 5.93197 3.00148 5.93197M15.3279 8.19437L14.1919 13.8752C14.1054 14.3112 13.8683 14.7028 13.5221 14.9816C13.1759 15.2604 12.7427 15.4085 12.2983 15.4H6.31428C5.81206 15.4 5.33042 15.2005 4.9753 14.8453C4.62018 14.4902 4.42068 14.0086 4.42068 13.5064V7.82557C4.43594 7.46095 4.52824 7.10371 4.6915 6.77733C4.85475 6.45096 5.08527 6.16285 5.36788 5.93197L6.15348 1.19757C6.17136 1.08724 6.21502 0.982696 6.28091 0.892421C6.3468 0.802146 6.43305 0.72869 6.53267 0.678024C6.63229 0.627357 6.74246 0.60091 6.85422 0.60083C6.96598 0.600751 7.07619 0.627042 7.17588 0.677566L8.05588 1.11277C8.63759 1.40031 9.10329 1.87839 9.37547 2.46745C9.64766 3.0565 9.70991 3.72101 9.55188 4.35037L9.15508 5.92237H13.4719C13.7527 5.92228 14.03 5.98465 14.2838 6.10496C14.5375 6.22527 14.7613 6.40051 14.939 6.61799C15.1166 6.83547 15.2437 7.08974 15.3109 7.36238C15.3782 7.63502 15.384 7.91921 15.3279 8.19437Z" stroke="#FF0090" stroke-opacity="0.5" stroke-width="1.5" stroke-linecap="round" stroke-linejoin="round"/>
</g>
<defs>
<clipPath id="clip0_152_629">
<rect width="16" height="16" fill="white"/>
</clipPath>
</defs>
</svg>
