<svg width="16" height="17" viewBox="0 0 16 17" fill="none" xmlns="http://www.w3.org/2000/svg">
<g clip-path="url(#clip0_152_629)">
<path d="M2.99988 6.64632H2.05428C1.27028 6.64632 0.634277 7.28152 0.634277 8.06632V14.6935C0.634277 15.4775 1.27028 16.1143 2.05428 16.1143H3.00148C3.78548 16.1143 4.42148 15.4783 4.42148 14.6935V8.06632C4.42148 7.28232 3.78548 6.64632 3.00148 6.64632M15.3279 8.90872L14.1919 14.5895C14.1054 15.0255 13.8683 15.4172 13.5221 15.6959C13.1759 15.9747 12.7427 16.1228 12.2983 16.1143H6.31428C5.81206 16.1143 5.33042 15.9148 4.9753 15.5597C4.62018 15.2046 4.42068 14.7229 4.42068 14.2207V8.53992C4.43594 8.17531 4.52824 7.81806 4.6915 7.49169C4.85475 7.16531 5.08527 6.8772 5.36788 6.64632L6.15348 1.91192C6.17136 1.8016 6.21502 1.69705 6.28091 1.60678C6.3468 1.5165 6.43305 1.44305 6.53267 1.39238C6.63229 1.34171 6.74246 1.31527 6.85422 1.31519C6.96598 1.31511 7.07619 1.3414 7.17588 1.39192L8.05588 1.82712C8.63759 2.11467 9.10329 2.59275 9.37547 3.1818C9.64766 3.77086 9.70991 4.43536 9.55188 5.06472L9.15508 6.63672H13.4719C13.7527 6.63663 14.03 6.699 14.2838 6.81932C14.5375 6.93963 14.7613 7.11487 14.939 7.33235C15.1166 7.54982 15.2437 7.80409 15.3109 8.07674C15.3782 8.34938 15.384 8.63357 15.3279 8.90872Z" stroke="#5A7687" stroke-width="1.5" stroke-linecap="round" stroke-linejoin="round"/>
</g>
<defs>
<clipPath id="clip0_152_629">
<rect width="16" height="16" fill="white" transform="translate(0 0.714355)"/>
</clipPath>
</defs>
</svg>
