<svg width="45" height="46" viewBox="0 0 45 46" fill="none" xmlns="http://www.w3.org/2000/svg">
<path fill-rule="evenodd" clip-rule="evenodd" d="M6.09375 19.3059C6.09375 14.2424 10.5359 10.3438 15.75 10.3438C18.4378 10.3438 20.8028 11.604 22.5 13.2347C24.1972 11.604 26.5622 10.3438 29.25 10.3438C34.4641 10.3438 38.9062 14.2424 38.9062 19.3059C38.9062 22.7744 37.4271 25.8246 35.3778 28.4029C33.3321 30.9767 30.6562 33.1612 28.094 34.9362C27.1154 35.6142 26.1254 36.2396 25.2193 36.701C24.3685 37.1343 23.3901 37.5312 22.5 37.5312C21.6099 37.5312 20.6316 37.1343 19.7807 36.701C18.8747 36.2396 17.8846 35.6142 16.906 34.9362C14.3438 33.1612 11.6679 30.9767 9.62216 28.4029C7.5729 25.8246 6.09375 22.7744 6.09375 19.3059ZM15.75 13.1562C11.8514 13.1562 8.90625 16.0233 8.90625 19.3059C8.90625 21.9374 10.0234 24.3875 11.8239 26.6529C13.628 28.9228 16.0555 30.9255 18.5076 32.6243C19.4355 33.2671 20.3095 33.8141 21.0571 34.1948C21.86 34.6037 22.325 34.7188 22.5 34.7188C22.675 34.7188 23.14 34.6037 23.9429 34.1948C24.6905 33.8141 25.5645 33.2671 26.4924 32.6243C28.9445 30.9255 31.372 28.9228 33.1761 26.6529C34.9767 24.3875 36.0938 21.9374 36.0938 19.3059C36.0938 16.0233 33.1486 13.1562 29.25 13.1562C27.011 13.1562 24.9202 14.4939 23.6148 16.1917C23.3486 16.5379 22.9367 16.7408 22.5 16.7408C22.0633 16.7408 21.6514 16.5379 21.3852 16.1917C20.0798 14.4939 17.989 13.1562 15.75 13.1562Z" fill="#FF0F97" fill-opacity="0.5"/>
</svg>
