<svg width="45" height="46" viewBox="0 0 45 46" fill="none" xmlns="http://www.w3.org/2000/svg">
<path d="M16.79 24.7188C16.79 23.9421 17.4196 23.3125 18.1962 23.3125H21.4775V20.0313C21.4775 19.2546 22.1071 18.625 22.8837 18.625C23.6604 18.625 24.29 19.2546 24.29 20.0313V23.3125H27.5712C28.3479 23.3125 28.9775 23.9421 28.9775 24.7188C28.9775 25.4954 28.3479 26.125 27.5712 26.125H24.29V29.4063C24.29 30.1829 23.6604 30.8125 22.8837 30.8125C22.1071 30.8125 21.4775 30.1829 21.4775 29.4063V26.125H18.1962C17.4196 26.125 16.79 25.4954 16.79 24.7188Z" fill="#00FFFF" fill-opacity="0.5"/>
<path fill-rule="evenodd" clip-rule="evenodd" d="M40.0611 17.6815C40.8052 22.3432 40.7519 27.0974 39.9034 31.7413C39.5239 33.8181 37.787 35.3749 35.6811 35.5255L32.6101 35.7452C26.1341 36.2086 19.6333 36.2086 13.1574 35.7452L10.3186 35.5421C8.07607 35.3817 6.22637 33.7239 5.82227 31.5122C5.00352 27.0311 4.86335 22.4524 5.40647 17.9297L5.91738 13.6751C6.22058 11.1502 8.36258 9.25 10.9056 9.25H15.2023C17.2981 9.25 19.0442 10.7471 19.4296 12.7302L35.0191 12.7302C37.4685 12.7302 39.5549 14.51 39.941 16.9288L40.0611 17.6815ZM37.1367 31.2358C37.9279 26.9053 37.9776 22.4719 37.2838 18.1248L37.1636 17.3721C36.9954 16.3182 36.0864 15.5427 35.0191 15.5427H18.6825C17.5855 15.5427 16.6962 14.6534 16.6962 13.5564C16.6962 12.7314 16.0274 12.0625 15.2023 12.0625H10.9056C9.78619 12.0625 8.84329 12.899 8.70981 14.0104L8.1989 18.265C7.68942 22.5078 7.8209 26.803 8.58896 31.0067C8.76245 31.9562 9.55656 32.6679 10.5193 32.7368L13.3581 32.9399C19.7004 33.3937 26.0671 33.3937 32.4094 32.9399L35.4804 32.7202C36.3065 32.6611 36.9878 32.0504 37.1367 31.2358Z" fill="#00FFFF" fill-opacity="0.5"/>
</svg>
