<svg width="45" height="46" viewBox="0 0 45 46" fill="none" xmlns="http://www.w3.org/2000/svg">
<path d="M16.8832 24.9068C16.8832 24.1835 17.4685 23.5971 18.1904 23.5971H21.2406V20.5411C21.2406 19.8178 21.8259 19.2314 22.5479 19.2314C23.2698 19.2314 23.8551 19.8178 23.8551 20.5411V23.5971H26.9053C27.6273 23.5971 28.2125 24.1835 28.2125 24.9068C28.2125 25.6302 27.6273 26.2165 26.9053 26.2165H23.8551V29.2725C23.8551 29.9959 23.2698 30.5823 22.5479 30.5823C21.8259 30.5823 21.2406 29.9959 21.2406 29.2725V26.2165H18.1904C17.4685 26.2165 16.8832 25.6302 16.8832 24.9068Z" fill="#00FFFF" fill-opacity="0.5"/>
<path fill-rule="evenodd" clip-rule="evenodd" d="M38.5157 18.3527C39.2074 22.6943 39.1578 27.1222 38.3691 31.4473C38.0163 33.3815 36.4017 34.8314 34.4441 34.9717L31.5894 35.1764C25.5694 35.6079 19.5264 35.6079 13.5064 35.1764L10.8675 34.9872C8.78287 34.8378 7.06342 33.2938 6.68777 31.2339C5.92668 27.0605 5.79638 22.7961 6.30125 18.5838L6.77619 14.6213C7.05804 12.2697 9.04922 10.5 11.4132 10.5H15.4073C17.3555 10.5 18.9787 11.8943 19.3369 13.7413L33.8288 13.7413C36.1057 13.7413 38.0452 15.3989 38.4041 17.6516L38.5157 18.3527ZM35.7972 30.9765C36.5327 26.9433 36.579 22.8142 35.9339 18.7655L35.8223 18.0645C35.6659 17.083 34.8208 16.3607 33.8288 16.3607H18.6425C17.6227 16.3607 16.7961 15.5325 16.7961 14.5108C16.7961 13.7424 16.1743 13.1194 15.4073 13.1194H11.4132C10.3726 13.1194 9.49607 13.8985 9.372 14.9336L8.89706 18.8961C8.42345 22.8476 8.54568 26.848 9.25965 30.7631C9.42093 31.6474 10.1591 32.3103 11.0541 32.3745L13.693 32.5636C19.5887 32.9862 25.507 32.9862 31.4028 32.5636L34.2576 32.359C35.0255 32.304 35.6588 31.7352 35.7972 30.9765Z" fill="#00FFFF" fill-opacity="0.5"/>
</svg>
