<svg width="45" height="45" viewBox="0 0 45 45" fill="none" xmlns="http://www.w3.org/2000/svg">
<path fill-rule="evenodd" clip-rule="evenodd" d="M6.09375 18.0848C6.09375 13.4288 10.1551 9.84375 14.9223 9.84375C17.3797 9.84375 19.5421 11.0026 21.0938 12.5021C22.6455 11.0026 24.8078 9.84375 27.2652 9.84375C32.0324 9.84375 36.0938 13.4288 36.0938 18.0848C36.0938 21.2742 34.7414 24.079 32.8678 26.4498C30.9974 28.8166 28.5508 30.8253 26.2083 32.4575C25.3135 33.0809 24.4084 33.656 23.5799 34.0803C22.802 34.4788 21.9076 34.8437 21.0938 34.8437C20.2799 34.8437 19.3855 34.4788 18.6076 34.0803C17.7791 33.656 16.874 33.0809 15.9792 32.4575C13.6367 30.8253 11.1901 28.8166 9.31973 26.4499C7.44612 24.079 6.09375 21.2742 6.09375 18.0848ZM14.9223 12.43C11.3579 12.43 8.66518 15.0663 8.66518 18.0848C8.66518 20.5046 9.68653 22.7575 11.3328 24.8407C12.9822 26.9279 15.2016 28.7695 17.4436 30.3316C18.292 30.9227 19.091 31.4257 19.7745 31.7758C20.5086 32.1518 20.9337 32.2575 21.0938 32.2575C21.2538 32.2575 21.6789 32.1518 22.413 31.7758C23.0965 31.4257 23.8956 30.9227 24.7439 30.3316C26.9859 28.7695 29.2053 26.9279 30.8547 24.8407C32.501 22.7575 33.5223 20.5046 33.5223 18.0848C33.5223 15.0663 30.8296 12.43 27.2652 12.43C25.2181 12.43 23.3065 13.66 22.113 15.2212C21.8696 15.5395 21.493 15.7261 21.0938 15.7261C20.6945 15.7261 20.3179 15.5395 20.0745 15.2212C18.881 13.66 16.9694 12.43 14.9223 12.43Z" fill="#FF0090" fill-opacity="0.5"/>
</svg>
