<svg width="45" height="45" viewBox="0 0 45 45" fill="none" xmlns="http://www.w3.org/2000/svg">
<path fill-rule="evenodd" clip-rule="evenodd" d="M27.2901 10.3138C27.0855 10.1129 26.808 10 26.5187 10C26.2294 10 25.9519 10.1129 25.7473 10.3138L12.3766 23.4458C12.2395 23.5804 12.1414 23.7484 12.0924 23.9326L10.6379 29.4018C10.54 29.7698 10.6482 30.1612 10.922 30.4302C11.1959 30.6992 11.5944 30.8054 11.9691 30.7092L17.5377 29.2807C17.7253 29.2326 17.8964 29.1362 18.0334 29.0016L31.4042 15.8697C31.8302 15.4512 31.8302 14.7728 31.4042 14.3544L27.2901 10.3138ZM14.1286 24.7555L26.5187 12.5867L29.09 15.112L16.6999 27.2808L13.2195 28.1737L14.1286 24.7555Z" fill="white" fill-opacity="0.5"/>
<path d="M11.0909 32.8571C10.4884 32.8571 10 33.3368 10 33.9286C10 34.5203 10.4884 35 11.0909 35H32.9091C33.5116 35 34 34.5203 34 33.9286C34 33.3368 33.5116 32.8571 32.9091 32.8571H11.0909Z" fill="white" fill-opacity="0.5"/>
</svg>
