<svg width="16" height="21" viewBox="0 0 16 21" fill="none" xmlns="http://www.w3.org/2000/svg">
<path fill-rule="evenodd" clip-rule="evenodd" d="M6.04183 2.32188C5.78243 2.35967 5.52837 2.42775 5.28483 2.52471C3.83507 3.10193 2.97498 4.60281 3.20993 6.14546L3.24247 6.35908C3.28278 6.62376 3.35229 6.88317 3.44972 7.13255L4.40862 9.58693C6.70313 9.4309 9.00627 9.44442 11.2993 9.62747L12.8674 9.75266C13.882 9.83366 14.7106 10.5964 14.8751 11.6009C15.2542 13.9161 15.2542 16.2775 14.8751 18.5927C14.7106 19.5972 13.882 20.3599 12.8674 20.4409L11.2993 20.5661C8.82349 20.7638 6.33589 20.7638 3.86011 20.5661L2.292 20.4409C1.27733 20.3599 0.448801 19.5972 0.284319 18.5927C-0.0947729 16.2775 -0.0947729 13.9161 0.284319 11.6009C0.448801 10.5964 1.27733 9.83366 2.292 9.75266L2.77055 9.71445L1.98535 7.70466C1.84567 7.34715 1.74602 6.97525 1.68823 6.59579L1.65569 6.38218C1.3106 4.11634 2.57388 1.91188 4.70328 1.06406C5.06098 0.921644 5.43415 0.821654 5.81514 0.76614C8.08316 0.43567 10.2794 1.71315 11.1135 3.84797L11.1921 4.04923C11.3318 4.40675 11.4314 4.77864 11.4892 5.1581L11.6374 6.13076C11.681 6.41689 11.4843 6.68417 11.1982 6.72775L10.6801 6.80665C10.394 6.85023 10.1267 6.6536 10.0831 6.36748L9.935 5.39482C9.89469 5.13014 9.82518 4.87073 9.72775 4.62135L9.64912 4.42009C9.08127 2.96663 7.58597 2.09688 6.04183 2.32188ZM7.57966 13.5246C6.71138 13.5246 6.0075 14.2285 6.0075 15.0968C6.0075 15.9651 6.71138 16.669 7.57966 16.669C8.44794 16.669 9.15183 15.9651 9.15183 15.0968C9.15183 14.2285 8.44794 13.5246 7.57966 13.5246Z" fill="#D5DDE2" fill-opacity="0.5"/>
</svg>
