<svg width="21" height="14" viewBox="0 0 21 14" fill="none" xmlns="http://www.w3.org/2000/svg">
<path d="M10.2308 4.57692C8.89254 4.57692 7.80769 5.66177 7.80769 7C7.80769 8.33823 8.89254 9.42308 10.2308 9.42308C11.569 9.42308 12.6538 8.33823 12.6538 7C12.6538 5.66177 11.569 4.57692 10.2308 4.57692Z" fill="#D5DDE2" fill-opacity="0.5"/>
<path fill-rule="evenodd" clip-rule="evenodd" d="M10.2308 0C7.41163 0 4.87632 1.13226 3.04943 2.53438C2.1348 3.23636 1.38431 4.01599 0.857759 4.77473C0.341234 5.51903 0 6.30165 0 7C0 7.69835 0.341234 8.48098 0.857759 9.22527C1.38431 9.98401 2.1348 10.7636 3.04943 11.4656C4.87632 12.8677 7.41163 14 10.2308 14C13.0499 14 15.5852 12.8677 17.4121 11.4656C18.3267 10.7636 19.0772 9.98401 19.6038 9.22527C20.1203 8.48098 20.4615 7.69835 20.4615 7C20.4615 6.30165 20.1203 5.51903 19.6038 4.77473C19.0772 4.01599 18.3267 3.23636 17.4121 2.53438C15.5852 1.13226 13.0499 0 10.2308 0ZM6.19231 7C6.19231 4.76962 8.00039 2.96154 10.2308 2.96154C12.4611 2.96154 14.2692 4.76962 14.2692 7C14.2692 9.23038 12.4611 11.0385 10.2308 11.0385C8.00039 11.0385 6.19231 9.23038 6.19231 7Z" fill="#D5DDE2" fill-opacity="0.5"/>
</svg>
