<svg width="21" height="19" viewBox="0 0 21 19" fill="none" xmlns="http://www.w3.org/2000/svg">
<path fill-rule="evenodd" clip-rule="evenodd" d="M19.4158 1.37871C19.7312 1.06331 19.7312 0.55195 19.4158 0.23655C19.1004 -0.0788499 18.5891 -0.0788499 18.2737 0.23655L1.04418 17.466C0.728782 17.7814 0.728782 18.2928 1.04418 18.6082C1.35958 18.9236 1.87095 18.9236 2.18634 18.6082L5.45458 15.34C6.87366 15.9946 8.49828 16.4218 10.23 16.4218C13.0489 16.4218 15.5841 15.2897 17.4108 13.8877C18.3254 13.1857 19.0758 12.4062 19.6023 11.6475C20.1188 10.9032 20.46 10.1207 20.46 9.42237C20.46 8.72407 20.1188 7.94151 19.6023 7.19727C19.0758 6.43858 18.3254 5.65901 17.4108 4.95709C17.1194 4.73345 16.81 4.51667 16.4843 4.31026L19.4158 1.37871ZM13.5991 7.19541L12.4168 8.37777C12.5681 8.69406 12.6529 9.04832 12.6529 9.42237C12.6529 10.7605 11.5681 11.8453 10.23 11.8453C9.85595 11.8453 9.50169 11.7605 9.1854 11.6091L8.00305 12.7915C8.64142 13.2143 9.40696 13.4605 10.23 13.4605C12.4602 13.4605 14.2682 11.6526 14.2682 9.42237C14.2682 8.59933 14.0219 7.83379 13.5991 7.19541Z" fill="#00DBDE"/>
<path d="M10.9609 5.45019C11.0447 5.4655 11.1313 5.44064 11.1915 5.38044L13.3205 3.2514C13.4529 3.11904 13.398 2.89409 13.2178 2.84331C12.2749 2.57755 11.2718 2.42289 10.23 2.42289C7.41107 2.42289 4.87595 3.55507 3.0492 4.95709C2.13464 5.65901 1.38421 6.43858 0.857694 7.19727C0.341209 7.94151 0 8.72407 0 9.42237C0 10.1207 0.341209 10.9032 0.857694 11.6475C1.30975 12.2989 1.92686 12.9656 2.67119 13.5855C2.76916 13.667 2.91293 13.659 3.00308 13.5688L6.18807 10.3838C6.24827 10.3236 6.27313 10.237 6.25782 10.1533C6.21448 9.91623 6.19184 9.67194 6.19184 9.42237C6.19184 7.19216 7.99979 5.38421 10.23 5.38421C10.4796 5.38421 10.7239 5.40685 10.9609 5.45019Z" fill="#00DBDE"/>
</svg>
