<svg width="51" height="50" viewBox="0 0 51 50" fill="none" xmlns="http://www.w3.org/2000/svg">
<path d="M9.88751 42.4014L11.1207 35.6957L26.0918 25.1006C27.0849 24.3965 27.9448 23.7371 28.6715 23.1224C29.4116 22.4966 30.007 21.8539 30.4578 21.1945C30.92 20.5351 31.2251 19.8031 31.373 18.9984C31.5354 18.1155 31.4809 17.3611 31.2097 16.7352C30.9498 16.1093 30.5154 15.6288 29.9066 15.2935C29.2999 14.947 28.559 14.7738 27.684 14.7738C26.809 14.7738 26.0044 14.947 25.2703 15.2935C24.5475 15.6399 23.9426 16.1484 23.4556 16.819C22.9687 17.4896 22.6368 18.3055 22.4601 19.2666H13.4601C13.904 16.8526 14.8374 14.7738 16.2603 13.0303C17.6832 11.2868 19.4867 9.94564 21.6707 9.00684C23.8547 8.06803 26.2989 7.59863 29.0035 7.59863C31.7989 7.59863 34.1382 8.04009 36.0213 8.92302C37.9178 9.79476 39.277 11.0241 40.0988 12.6112C40.9319 14.1982 41.1522 16.059 40.7597 18.1937C40.5171 19.5125 39.9972 20.8257 39.1999 22.1333C38.4047 23.4298 37.1406 24.8659 35.4076 26.4418C33.6747 28.0176 31.2783 29.8952 28.2184 32.0746L24.4524 34.7569L24.4154 34.958H38.0518L36.683 42.4014H9.88751Z" fill="white"/>
<path d="M7.88751 42.4014L9.12067 35.6957L24.0918 25.1006C25.0849 24.3965 25.9448 23.7371 26.6715 23.1224C27.4116 22.4966 28.007 21.8539 28.4578 21.1945C28.92 20.5351 29.2251 19.8031 29.373 18.9984C29.5354 18.1155 29.4809 17.3611 29.2097 16.7352C28.9498 16.1093 28.5154 15.6288 27.9066 15.2935C27.2999 14.947 26.559 14.7738 25.684 14.7738C24.809 14.7738 24.0044 14.947 23.2703 15.2935C22.5475 15.6399 21.9426 16.1484 21.4556 16.819C20.9687 17.4896 20.6368 18.3055 20.4601 19.2666H11.4601C11.904 16.8526 12.8374 14.7738 14.2603 13.0303C15.6832 11.2868 17.4867 9.94564 19.6707 9.00684C21.8547 8.06803 24.2989 7.59863 27.0035 7.59863C29.7989 7.59863 32.1382 8.04009 34.0213 8.92302C35.9178 9.79476 37.277 11.0241 38.0988 12.6112C38.9319 14.1982 39.1522 16.059 38.7597 18.1937C38.5171 19.5125 37.9972 20.8257 37.1999 22.1333C36.4047 23.4298 35.1406 24.8659 33.4076 26.4418C31.6747 28.0176 29.2783 29.8952 26.2184 32.0746L22.4524 34.7569L22.4154 34.958H36.0518L34.683 42.4014H7.88751Z" fill="white"/>
<path fill-rule="evenodd" clip-rule="evenodd" d="M36.683 42.4014L38.0518 34.958H24.4154L24.4524 34.7569L28.2184 32.0746C30.6698 30.3286 32.6953 28.7763 34.295 27.4177C34.6921 27.0804 35.063 26.7551 35.4076 26.4418C36.7631 25.2092 37.8317 24.0621 38.6135 23.0004C38.6144 22.9992 38.6153 22.998 38.6161 22.9968C38.8328 22.7024 39.0274 22.4146 39.1999 22.1333C39.9258 20.9429 40.4216 19.7479 40.6877 18.5483C40.7139 18.4301 40.7379 18.3119 40.7597 18.1937C40.8751 17.566 40.9375 16.9621 40.9469 16.3817C40.9486 16.2807 40.9486 16.1803 40.947 16.0807C40.927 14.8068 40.6443 13.6503 40.0988 12.6112C39.9568 12.3371 39.7988 12.0737 39.6248 11.8209C39.623 11.8182 39.6212 11.8156 39.6193 11.8129C38.7861 10.6059 37.5868 9.64261 36.0213 8.92302C35.491 8.67437 34.9244 8.46073 34.3218 8.2821C34.32 8.28159 34.3183 8.28108 34.3166 8.28057C32.7804 7.82594 31.0094 7.59863 29.0035 7.59863C28.6755 7.59863 28.3512 7.60554 28.0309 7.61935C27.6955 7.60554 27.3531 7.59863 27.0035 7.59863C24.9917 7.59863 23.124 7.85835 21.4002 8.37779C20.8066 8.55667 20.2301 8.76635 19.6707 9.00684C17.8982 9.76874 16.3763 10.7957 15.1052 12.0876C14.81 12.3875 14.5284 12.7018 14.2603 13.0303C13.2467 14.2723 12.4815 15.6844 11.9646 17.2666C11.7917 17.7959 11.6467 18.3442 11.5294 18.9116C11.5051 19.0291 11.482 19.1475 11.4601 19.2666H22.4601C22.5545 18.7531 22.6932 18.2811 22.8761 17.8506C23.0356 17.4752 23.2288 17.1314 23.4556 16.819C23.5624 16.672 23.6748 16.5327 23.793 16.4012C23.7948 16.3992 23.7966 16.3972 23.7983 16.3953C24.2177 15.9301 24.7084 15.5628 25.2703 15.2935C25.4058 15.2295 25.5437 15.1715 25.684 15.1193C26 15.0019 26.3283 14.9143 26.6687 14.8568C27.0382 14.9234 27.3766 15.0301 27.684 15.177C27.7601 15.2134 27.8343 15.2522 27.9066 15.2935C28.4743 15.6061 28.8903 16.0451 29.1546 16.6104C29.1587 16.6192 29.1628 16.6279 29.1668 16.6368C29.1816 16.6692 29.1959 16.702 29.2097 16.7352C29.3095 16.9654 29.3799 17.213 29.421 17.478C29.4225 17.4881 29.4241 17.4983 29.4256 17.5085C29.4499 17.6755 29.4628 17.8493 29.4641 18.03C29.4642 18.0525 29.4642 18.0752 29.464 18.0979C29.4625 18.2726 29.4504 18.4535 29.4278 18.6407C29.4136 18.7575 29.3954 18.8767 29.373 18.9984C29.2967 19.4135 29.1785 19.8093 29.0185 20.1858C29.0158 20.1922 29.0131 20.1986 29.0103 20.205C28.8617 20.5512 28.6775 20.8811 28.4578 21.1945C28.2581 21.4866 28.0301 21.7753 27.7737 22.0608C27.7736 22.0609 27.7737 22.0608 27.7737 22.0608C27.4512 22.4198 27.0837 22.7738 26.6715 23.1224C26.2875 23.4472 25.8663 23.7845 25.4079 24.1343C25.4076 24.1345 25.4073 24.1347 25.4071 24.1349C24.9982 24.4469 24.5598 24.7688 24.0918 25.1006L9.12067 35.6957L7.88751 42.4014H36.683ZM22.9358 23.4685C23.8942 22.789 24.7067 22.1648 25.3798 21.5955C26.0108 21.0618 26.4762 20.5492 26.8067 20.0658L26.8133 20.0562L26.82 20.0466C27.1145 19.6264 27.3091 19.1634 27.406 18.6367C27.5189 18.0225 27.4452 17.6935 27.3746 17.5306L27.3685 17.5164L27.3626 17.5022C27.2813 17.3066 27.1643 17.1679 26.9418 17.0454L26.9282 17.0379L26.9148 17.0303C26.8394 16.9872 26.7497 16.9456 26.6427 16.9089C26.4622 16.9594 26.2916 17.0234 26.1292 17.0996C25.7187 17.2974 25.3712 17.5848 25.0739 17.9942C24.7912 18.3835 24.5594 18.9087 24.427 19.6283L24.1258 21.2666H9.05871L9.49302 18.9049C9.99221 16.1903 11.0559 13.7934 12.7108 11.7657C14.3486 9.75887 16.4183 8.2279 18.8808 7.1694C21.3464 6.10955 24.0646 5.59863 27.0034 5.59863C27.35 5.59863 27.6919 5.60494 28.0291 5.61772C28.3511 5.60498 28.6759 5.59863 29.0034 5.59863C31.9934 5.59863 34.6411 6.06858 36.8634 7.10897C39.0886 8.13326 40.8129 9.64424 41.8719 11.6861C42.9522 13.7467 43.1822 16.0781 42.7266 18.5554C42.4341 20.1463 41.8142 21.6875 40.9075 23.1745L40.9047 23.1791C39.9728 24.6984 38.5591 26.2792 36.7531 27.9215C35.1452 29.3836 33.0262 31.0639 30.4159 32.958H40.4531L38.3487 44.4014H5.48615L7.30083 34.5334L22.9358 23.4685C22.936 23.4683 22.9355 23.4687 22.9358 23.4685Z" fill="white"/>
<path d="M7.88747 42.4014L9.12062 35.6957L24.0917 25.1006C25.0849 24.3965 25.9447 23.7371 26.6714 23.1224C27.4115 22.4966 28.007 21.8539 28.4578 21.1945C28.9199 20.5351 29.225 19.8031 29.373 18.9984C29.5354 18.1155 29.4809 17.3611 29.2096 16.7352C28.9497 16.1093 28.5154 15.6288 27.9066 15.2935C27.2998 14.947 26.559 14.7738 25.684 14.7738C24.809 14.7738 24.0044 14.947 23.2702 15.2935C22.5474 15.6399 21.9425 16.1485 21.4556 16.819C20.9686 17.4896 20.6368 18.3055 20.46 19.2666H11.46C11.904 16.8526 12.8374 14.7738 14.2603 13.0303C15.6832 11.2868 17.4866 9.94565 19.6706 9.00685C21.8546 8.06805 24.2989 7.59864 27.0034 7.59864C29.7989 7.59864 32.1382 8.04011 34.0213 8.92303C35.9178 9.79478 37.2769 11.0242 38.0987 12.6112C38.9319 14.1982 39.1522 16.0591 38.7596 18.1937C38.5171 19.5125 37.9972 20.8257 37.1999 22.1333C36.4047 23.4298 35.1406 24.8659 33.4076 26.4418C31.6746 28.0176 29.2782 29.8952 26.2183 32.0746L22.4524 34.7569L22.4154 34.9581H36.0517L34.6829 42.4014H7.88747Z" fill="#00FFFF" style="mix-blend-mode:multiply"/>
<path d="M9.88747 42.4014L11.1206 35.6957L26.0917 25.1006C27.0849 24.3965 27.9447 23.7371 28.6714 23.1224C29.4115 22.4966 30.007 21.8539 30.4578 21.1945C30.9199 20.5351 31.225 19.8031 31.373 18.9984C31.5354 18.1155 31.4809 17.3611 31.2096 16.7352C30.9497 16.1093 30.5154 15.6288 29.9066 15.2935C29.2998 14.947 28.559 14.7738 27.684 14.7738C26.809 14.7738 26.0044 14.947 25.2702 15.2935C24.5474 15.6399 23.9425 16.1485 23.4556 16.819C22.9686 17.4896 22.6368 18.3055 22.46 19.2666H13.46C13.904 16.8526 14.8374 14.7738 16.2603 13.0303C17.6832 11.2868 19.4866 9.94565 21.6706 9.00685C23.8546 8.06805 26.2989 7.59864 29.0034 7.59864C31.7989 7.59864 34.1382 8.04011 36.0213 8.92303C37.9178 9.79478 39.2769 11.0242 40.0987 12.6112C40.9319 14.1982 41.1522 16.0591 40.7596 18.1937C40.5171 19.5125 39.9972 20.8257 39.1999 22.1333C38.4047 23.4298 37.1406 24.8659 35.4076 26.4418C33.6746 28.0176 31.2782 29.8952 28.2183 32.0746L24.4524 34.7569L24.4154 34.9581H38.0517L36.6829 42.4014H9.88747Z" fill="#FF0000" style="mix-blend-mode:multiply"/>
</svg>
