<svg width="50" height="50" viewBox="0 0 50 50" fill="none" xmlns="http://www.w3.org/2000/svg">
<path d="M27.7242 6.38716C27.4061 6.37163 27.0845 6.36389 26.7594 6.36389C23.8726 6.36389 21.2071 6.89618 18.7774 7.97557C16.3547 9.05187 14.3236 10.5684 12.7012 12.5263C11.0678 14.4974 10.0194 16.7927 9.5535 19.3919L9.55336 19.3927C9.1584 21.6062 9.26275 23.6436 9.91979 25.4722L9.92092 25.4754C10.5805 27.2921 11.7109 28.7454 13.2987 29.805L13.3039 29.8084C13.9126 30.2091 14.5715 30.5294 15.2773 30.7728H10.7026H9.78658H8.70257H7.78658L7.7064 31.6853C7.5145 33.8693 7.88316 35.89 8.83624 37.7172C9.79313 39.5517 11.2592 40.9966 13.1917 42.0547C15.1496 43.1268 17.5024 43.6361 20.2049 43.6361C20.5369 43.6361 20.8664 43.6279 21.1935 43.6114C21.5249 43.6279 21.8621 43.6361 22.2049 43.6361C24.6234 43.6361 26.9087 43.1998 29.0512 42.3207L29.0534 42.3198C31.203 41.4318 33.1332 40.1535 34.8406 38.4922C36.5591 36.8313 38.0016 34.8328 39.1734 32.5087C40.3629 30.165 41.2141 27.5393 41.7355 24.6405C42.3042 21.4842 42.3935 18.7288 41.9563 16.4028C41.5376 14.093 40.7004 12.1527 39.4008 10.6374C38.1385 9.15237 36.569 8.06563 34.71 7.38191C32.8849 6.69885 30.8979 6.36389 28.7594 6.36389C28.4111 6.36389 28.066 6.37164 27.7242 6.38716ZM21.0429 31.738L21.0299 31.3643C21.0601 31.3645 21.0903 31.3646 21.1206 31.3646C22.5528 31.3646 23.9533 31.1476 25.3183 30.7142C25.7289 30.5838 26.1289 30.4363 26.5182 30.2716C26.2652 30.7483 25.9926 31.1862 25.7011 31.5861L25.6999 31.5878C24.8741 32.7258 23.8847 33.3902 22.6977 33.6255C22.3045 33.5383 21.971 33.3953 21.6868 33.2071C21.3308 32.9615 21.0709 32.5446 21.0429 31.738ZM23.9194 22.5895C23.4584 22.2817 23.1272 21.8727 22.9141 21.3365C22.7153 20.8083 22.6572 20.1743 22.7896 19.4021C22.9205 18.6389 23.208 17.9668 23.652 17.3711C24.1171 16.7624 24.683 16.2836 25.3569 15.9278C25.7202 15.7392 26.0984 15.6013 26.4939 15.5147C26.8168 15.5957 27.0964 15.7196 27.3398 15.8788C27.8147 16.1895 28.1497 16.6004 28.3612 17.136C28.569 17.6621 28.6324 18.2934 28.5002 19.064L28.4995 19.0681C28.4065 19.6246 28.2146 20.1418 27.9212 20.626L27.9212 20.6259L27.9169 20.6332C27.6287 21.1178 27.2653 21.5477 26.822 21.9249L26.8218 21.9251C26.3985 22.2855 25.9242 22.5681 25.3941 22.7738C25.1931 22.8479 24.9881 22.9077 24.779 22.9533C24.4465 22.8722 24.1627 22.7481 23.9194 22.5895Z" fill="white" stroke="white" stroke-width="2"/>
<path d="M28.7598 7.3639C30.7939 7.3639 32.6614 7.68243 34.3625 8.31947C36.0655 8.94534 37.4916 9.93444 38.6407 11.2868C39.8011 12.6391 40.5786 14.4049 40.9733 16.5843C41.3814 18.7525 41.3075 21.3789 40.7516 24.4635C40.245 27.2799 39.4216 29.8114 38.2812 32.0578C37.1542 34.293 35.7754 36.1986 34.1447 37.7744C32.5254 39.3503 30.7011 40.5573 28.672 41.3955C26.6563 42.2226 24.5007 42.6361 22.2052 42.6361C19.6257 42.6361 17.448 42.1499 15.6723 41.1776C13.8965 40.2053 12.5802 38.8976 11.7232 37.2547C10.8663 35.6118 10.5262 33.7845 10.7029 31.7728H20.0438C20.08 32.8122 20.4412 33.5666 21.1276 34.036C21.8161 34.4942 22.6603 34.7233 23.6603 34.7233C25.6603 34.7233 27.2768 33.8739 28.5096 32.1751C29.7559 30.4652 30.6467 28.1852 31.1822 25.3353H30.9777C30.3413 26.3859 29.5054 27.2855 28.4699 28.0343C27.4345 28.7832 26.2832 29.3587 25.016 29.7611C23.7489 30.1634 22.4505 30.3646 21.121 30.3646C19.0187 30.3646 17.2631 29.9008 15.8541 28.9731C14.4472 28.0343 13.4496 26.7547 12.8612 25.1341C12.2749 23.5024 12.1673 21.6471 12.5382 19.5683C12.9748 17.1319 13.9526 14.9973 15.4715 13.1644C16.9904 11.3315 18.8945 9.9065 21.1838 8.88946C23.4731 7.87242 25.9984 7.3639 28.7598 7.3639ZM27.5331 14.4049C26.59 14.4049 25.71 14.6173 24.8933 15.042C24.0879 15.4667 23.4082 16.0422 22.8541 16.7687C22.3115 17.4952 21.9615 18.3166 21.8044 19.2331C21.6472 20.1495 21.7064 20.971 21.9819 21.6974C22.2687 22.4239 22.7311 22.9995 23.3689 23.4241C24.018 23.8488 24.8142 24.0612 25.7574 24.0612C26.4506 24.0612 27.1142 23.9438 27.7483 23.7091C28.3844 23.4633 28.9585 23.1224 29.4704 22.6865C29.9958 22.2395 30.4313 21.7254 30.7768 21.1442C31.1357 20.5519 31.3722 19.9148 31.4862 19.2331C31.6434 18.3166 31.5785 17.4952 31.2916 16.7687C31.0048 16.0422 30.5368 15.4667 29.8876 15.042C29.2384 14.6173 28.4536 14.4049 27.5331 14.4049Z" fill="#FF0000" style="mix-blend-mode:multiply"/>
<path d="M26.7598 7.3639C28.7939 7.3639 30.6614 7.68243 32.3625 8.31947C34.0655 8.94534 35.4916 9.93444 36.6407 11.2868C37.8011 12.6391 38.5786 14.4049 38.9733 16.5843C39.3814 18.7525 39.3075 21.3789 38.7516 24.4635C38.245 27.2799 37.4216 29.8114 36.2812 32.0578C35.1542 34.293 33.7754 36.1986 32.1447 37.7744C30.5254 39.3503 28.7011 40.5573 26.672 41.3955C24.6563 42.2226 22.5007 42.6361 20.2052 42.6361C17.6257 42.6361 15.448 42.1499 13.6723 41.1776C11.8965 40.2053 10.5802 38.8976 9.72322 37.2547C8.86625 35.6118 8.52615 33.7845 8.70292 31.7728H18.0438C18.08 32.8122 18.4412 33.5666 19.1276 34.036C19.8161 34.4942 20.6603 34.7233 21.6603 34.7233C23.6603 34.7233 25.2768 33.8739 26.5096 32.1751C27.7559 30.4652 28.6467 28.1852 29.1822 25.3353H28.9777C28.3413 26.3859 27.5054 27.2855 26.4699 28.0343C25.4345 28.7832 24.2832 29.3587 23.016 29.7611C21.7489 30.1634 20.4505 30.3646 19.121 30.3646C17.0187 30.3646 15.2631 29.9008 13.8541 28.9731C12.4472 28.0343 11.4496 26.7547 10.8612 25.1341C10.2749 23.5024 10.1673 21.6471 10.5382 19.5683C10.9748 17.1319 11.9526 14.9973 13.4715 13.1644C14.9904 11.3315 16.8945 9.9065 19.1838 8.88946C21.4731 7.87242 23.9984 7.3639 26.7598 7.3639ZM25.5331 14.4049C24.59 14.4049 23.71 14.6173 22.8933 15.042C22.0879 15.4667 21.4082 16.0422 20.8541 16.7687C20.3115 17.4952 19.9615 18.3166 19.8044 19.2331C19.6472 20.1495 19.7064 20.971 19.9819 21.6974C20.2687 22.4239 20.7311 22.9995 21.3689 23.4241C22.018 23.8488 22.8142 24.0612 23.7574 24.0612C24.4506 24.0612 25.1142 23.9438 25.7483 23.7091C26.3844 23.4633 26.9585 23.1224 27.4704 22.6865C27.9958 22.2395 28.4313 21.7254 28.7768 21.1442C29.1357 20.5519 29.3722 19.9148 29.4862 19.2331C29.6434 18.3166 29.5785 17.4952 29.2916 16.7687C29.0048 16.0422 28.5368 15.4667 27.8876 15.042C27.2384 14.6173 26.4536 14.4049 25.5331 14.4049Z" fill="#00FFFF" style="mix-blend-mode:multiply"/>
</svg>
