<svg width="50" height="50" viewBox="0 0 50 50" fill="none" xmlns="http://www.w3.org/2000/svg">
<path d="M20.9894 43.4461C21.3273 43.4461 21.6618 43.439 21.9929 43.4249C22.3201 43.4391 22.6523 43.4461 22.9894 43.4461C25.9544 43.4461 28.6649 42.9031 31.1037 41.7978L31.1071 41.7963C33.5334 40.6858 35.5564 39.1465 37.1576 37.1756C38.7766 35.1882 39.8168 32.9094 40.2751 30.3557C40.7122 28.0403 40.5998 25.9244 39.8709 24.0494C39.163 22.1826 37.9821 20.6989 36.3387 19.6304C34.6959 18.5548 32.7318 18.0431 30.4977 18.0431C30.159 18.0431 29.8246 18.0549 29.4947 18.0785C29.1687 18.0548 28.8363 18.0431 28.4977 18.0431C26.9873 18.0431 25.5638 18.2775 24.2351 18.7535L24.9655 16.0867H37.8843H38.7172H39.8843H40.7172L40.8679 15.2675L42.2367 7.82417L42.4538 6.64331H41.2531H40.4538H39.2531H17.7986H17.0224H15.7986H15.0224L14.8298 7.3953L9.98871 26.3055L9.72729 27.3266L10.7608 27.534L18.783 29.1433L19.4441 29.276L19.6775 28.9216L20.783 29.1433L21.4441 29.276L21.8149 28.7128C22.2675 28.0254 22.8725 27.4872 23.65 27.0936L23.6533 27.092C24.1315 26.8476 24.6122 26.6784 25.0977 26.5809C25.4577 26.6612 25.7631 26.7872 26.0226 26.9492L26.0226 26.9493L26.0342 26.9563C26.5012 27.239 26.8314 27.6346 27.0376 28.1808L27.0376 28.1809L27.0403 28.1878C27.2399 28.7048 27.2952 29.3764 27.1244 30.2512L27.1223 30.262L27.1204 30.2729C26.9734 31.1253 26.6662 31.8478 26.2095 32.4604C25.7425 33.087 25.176 33.5656 24.504 33.9076C24.1305 34.092 23.735 34.2262 23.3146 34.3084C22.7428 34.1843 22.2846 33.9442 21.9129 33.6094C21.4332 33.1683 21.2101 32.5795 21.3513 31.669L21.5302 30.5157H20.3631H19.5302H18.3631H11.1586H10.3169H9.15857H8.31693L8.17325 31.345C7.7718 33.6622 8.04022 35.7836 9.0418 37.6541L9.04179 37.6541L9.04434 37.6589C10.0464 39.5064 11.6044 40.933 13.6595 41.9508L13.6594 41.9508L13.6662 41.9541C15.7424 42.963 18.195 43.4461 20.9894 43.4461Z" fill="white" stroke="white" stroke-width="2"/>
<path d="M20.9894 42.4461C18.3076 42.4461 16.0122 41.9823 14.1033 41.0546C12.2077 40.1158 10.8144 38.825 9.92336 37.1821C9.04366 35.5392 8.78873 33.6504 9.15855 31.5157H18.3631C18.1793 32.7004 18.4716 33.6448 19.2398 34.3489C20.0194 35.053 21.0342 35.4051 22.2842 35.4051C23.2501 35.4051 24.1394 35.2039 24.952 34.8015C25.7667 34.388 26.4531 33.8069 27.0113 33.0581C27.5694 32.3092 27.9343 31.4375 28.1059 30.4428C28.3022 29.437 28.258 28.5652 27.9731 27.8276C27.6904 27.0788 27.2167 26.5032 26.5521 26.1009C25.8895 25.6873 25.0752 25.4806 24.1093 25.4806C23.1093 25.4806 22.139 25.7209 21.1983 26.2014C20.2711 26.6708 19.5315 27.3246 18.9797 28.1629L10.9574 26.5535L15.7986 7.6433H39.2531L37.8843 15.0867H22.2025L20.1272 22.6642H20.3318C21.0684 21.6248 22.1698 20.7642 23.6361 20.0824C25.1044 19.3895 26.7249 19.0431 28.4977 19.0431C30.5772 19.0431 32.3421 19.518 33.7924 20.468C35.2541 21.418 36.3024 22.7312 36.9373 24.4077C37.5856 26.0729 37.7037 27.9952 37.2915 30.1746C36.8631 32.5663 35.893 34.6898 34.3814 36.545C32.8832 38.3891 30.9864 39.8364 28.6909 40.887C26.3975 41.9264 23.8303 42.4461 20.9894 42.4461Z" fill="#00FFFF" style="mix-blend-mode:multiply"/>
<path d="M22.9894 42.4461C20.3076 42.4461 18.0122 41.9823 16.1033 41.0546C14.2077 40.1158 12.8144 38.825 11.9234 37.1821C11.0437 35.5392 10.7887 33.6504 11.1586 31.5157H20.3631C20.1793 32.7004 20.4716 33.6448 21.2398 34.3489C22.0194 35.053 23.0342 35.4051 24.2842 35.4051C25.2501 35.4051 26.1394 35.2039 26.952 34.8015C27.7667 34.388 28.4531 33.8069 29.0113 33.0581C29.5694 32.3092 29.9343 31.4375 30.1059 30.4428C30.3022 29.437 30.258 28.5652 29.9731 27.8276C29.6904 27.0788 29.2167 26.5032 28.5521 26.1009C27.8895 25.6873 27.0752 25.4806 26.1093 25.4806C25.1093 25.4806 24.139 25.7209 23.1983 26.2014C22.2711 26.6708 21.5315 27.3246 20.9797 28.1629L12.9574 26.5535L17.7986 7.6433H41.2531L39.8843 15.0867H24.2025L22.1272 22.6642H22.3318C23.0684 21.6248 24.1698 20.7642 25.6361 20.0824C27.1044 19.3895 28.7249 19.0431 30.4977 19.0431C32.5772 19.0431 34.3421 19.518 35.7924 20.468C37.2541 21.418 38.3024 22.7312 38.9373 24.4077C39.5856 26.0729 39.7037 27.9952 39.2915 30.1746C38.8631 32.5663 37.893 34.6898 36.3814 36.545C34.8832 38.3891 32.9864 39.8364 30.6909 40.887C28.3975 41.9264 25.8303 42.4461 22.9894 42.4461Z" fill="#FF0000" style="mix-blend-mode:multiply"/>
</svg>
