<svg width="16" height="17" viewBox="0 0 16 17" fill="none" xmlns="http://www.w3.org/2000/svg">
<g clip-path="url(#clip0_152_631)">
<path d="M15.9165 7.92445C15.8282 7.56326 15.6604 7.22615 15.4269 6.9372C15.1937 6.64868 14.897 6.41794 14.56 6.26297C14.2241 6.10306 13.8565 6.02076 13.4845 6.02218H9.92874L10.1374 5.21953C10.3311 4.45556 10.2574 3.64831 9.92874 2.93199C9.59367 2.21876 9.02818 1.63914 8.32345 1.28656L7.44054 0.853135C7.25585 0.761845 7.0526 0.714355 6.84658 0.714355C6.64056 0.714355 6.43731 0.761845 6.25262 0.853135C6.06812 0.948551 5.90864 1.08603 5.78708 1.25446C5.66391 1.41944 5.5839 1.61256 5.55432 1.81631L4.79983 6.35127C4.67775 6.46272 4.56747 6.58644 4.47074 6.72048C4.28758 6.49881 4.05857 6.31945 3.79946 6.19474C3.54036 6.07004 3.25731 6.00295 2.96979 5.9981H2.02267C1.48622 5.9981 0.97175 6.2112 0.592426 6.59053C0.213102 6.96985 0 7.48432 0 8.02077V14.6747C0 15.2112 0.213102 15.7256 0.592426 16.105C0.97175 16.4843 1.48622 16.6974 2.02267 16.6974H2.96979C3.26725 16.6987 3.56128 16.6338 3.83058 16.5075C4.09989 16.3811 4.33774 16.1965 4.52693 15.967C4.99832 16.4355 5.63616 16.6981 6.30078 16.6974H12.3367C12.9199 16.7054 13.4877 16.5095 13.942 16.1436C14.4015 15.7778 14.7147 15.2596 14.8249 14.6827L15.9646 8.99197C16.0246 8.63675 16.0082 8.27284 15.9165 7.92445ZM3.77244 14.7068C3.77244 14.9197 3.68788 15.1239 3.53735 15.2744C3.38682 15.4249 3.18267 15.5095 2.96979 15.5095H2.02267C1.80979 15.5095 1.60564 15.4249 1.45511 15.2744C1.30459 15.1239 1.22002 14.9197 1.22002 14.7068V8.05288C1.22002 7.84 1.30459 7.63585 1.45511 7.48532C1.60564 7.33479 1.80979 7.25023 2.02267 7.25023H2.96979C3.18267 7.25023 3.38682 7.33479 3.53735 7.48532C3.68788 7.63585 3.77244 7.84 3.77244 8.05288V14.7068Z" fill="#FC00FF"/>
</g>
<defs>
<clipPath id="clip0_152_631">
<rect width="16" height="16" fill="white" transform="translate(0 0.714355)"/>
</clipPath>
</defs>
</svg>
