<svg width="45" height="45" viewBox="0 0 45 45" fill="none" xmlns="http://www.w3.org/2000/svg">
<path d="M26.5187 10C26.7116 10 26.8966 10.0763 27.0329 10.2122L31.147 14.3114C31.431 14.5944 31.431 15.0532 31.147 15.3362L17.7763 28.6585C17.6849 28.7495 17.5708 28.8147 17.4458 28.8472L11.8772 30.2965C11.6274 30.3615 11.3617 30.2897 11.1791 30.1078C10.9966 29.9259 10.9245 29.6612 10.9897 29.4123L12.4443 23.8638C12.4769 23.7392 12.5423 23.6256 12.6337 23.5345L26.0044 10.2122C26.1408 10.0763 26.3258 10 26.5187 10Z" fill="white"/>
<path d="M11.0909 32.8261C10.4884 32.8261 10 33.3127 10 33.913C10 34.5134 10.4884 35 11.0909 35H32.9091C33.5116 35 34 34.5134 34 33.913C34 33.3127 33.5116 32.8261 32.9091 32.8261H11.0909Z" fill="white"/>
</svg>
