<svg width="45" height="46" viewBox="0 0 45 46" fill="none" xmlns="http://www.w3.org/2000/svg">
<path fill-rule="evenodd" clip-rule="evenodd" d="M27.2901 10.8138C27.0855 10.6129 26.808 10.5 26.5187 10.5C26.2294 10.5 25.9519 10.6129 25.7473 10.8138L12.3766 23.9458C12.2395 24.0804 12.1414 24.2484 12.0924 24.4326L10.6379 29.9018C10.54 30.2698 10.6482 30.6612 10.922 30.9302C11.1959 31.1992 11.5944 31.3054 11.9691 31.2092L17.5377 29.7807C17.7253 29.7326 17.8964 29.6362 18.0334 29.5016L31.4042 16.3697C31.8302 15.9512 31.8302 15.2728 31.4042 14.8544L27.2901 10.8138ZM14.1286 25.2555L26.5187 13.0867L29.09 15.612L16.6999 27.7808L13.2195 28.6737L14.1286 25.2555Z" fill="white" fill-opacity="0.5"/>
<path d="M11.0909 33.3571C10.4884 33.3571 10 33.8368 10 34.4286C10 35.0203 10.4884 35.5 11.0909 35.5H32.9091C33.5116 35.5 34 35.0203 34 34.4286C34 33.8368 33.5116 33.3571 32.9091 33.3571H11.0909Z" fill="white" fill-opacity="0.5"/>
</svg>
