<svg width="45" height="46" viewBox="0 0 45 46" fill="none" xmlns="http://www.w3.org/2000/svg">
<path fill-rule="evenodd" clip-rule="evenodd" d="M6.09375 18.5848C6.09375 13.9288 10.1551 10.3438 14.9223 10.3438C17.3797 10.3438 19.5421 11.5026 21.0938 13.0021C22.6455 11.5026 24.8078 10.3438 27.2652 10.3438C32.0324 10.3438 36.0938 13.9288 36.0938 18.5848C36.0938 21.7742 34.7414 24.579 32.8678 26.9499C30.9974 29.3166 28.5508 31.3253 26.2083 32.9575C25.3135 33.5809 24.4084 34.156 23.5799 34.5803C22.802 34.9788 21.9076 35.3438 21.0938 35.3438C20.2799 35.3438 19.3855 34.9788 18.6076 34.5803C17.7791 34.156 16.874 33.5809 15.9792 32.9575C13.6367 31.3253 11.1901 29.3166 9.31973 26.9499C7.44612 24.579 6.09375 21.7742 6.09375 18.5848ZM14.9223 12.93C11.3579 12.93 8.66518 15.5663 8.66518 18.5848C8.66518 21.0046 9.68653 23.2575 11.3328 25.3407C12.9822 27.4279 15.2016 29.2695 17.4436 30.8316C18.292 31.4227 19.091 31.9257 19.7745 32.2758C20.5086 32.6518 20.9337 32.7575 21.0938 32.7575C21.2538 32.7575 21.6789 32.6518 22.413 32.2758C23.0965 31.9257 23.8955 31.4227 24.7439 30.8316C26.9859 29.2695 29.2053 27.4279 30.8547 25.3407C32.501 23.2575 33.5223 21.0046 33.5223 18.5848C33.5223 15.5663 30.8296 12.93 27.2652 12.93C25.2181 12.93 23.3065 14.16 22.113 15.7212C21.8696 16.0395 21.493 16.2261 21.0938 16.2261C20.6945 16.2261 20.3179 16.0395 20.0745 15.7212C18.881 14.16 16.9694 12.93 14.9223 12.93Z" fill="#FF0091" fill-opacity="0.5"/>
</svg>
