<svg width="16" height="21" viewBox="0 0 16 21" fill="none" xmlns="http://www.w3.org/2000/svg">
<path fill-rule="evenodd" clip-rule="evenodd" d="M2.65999 6.45883L3.01955 9.69485L2.29194 9.75293C1.2773 9.83393 0.44879 10.5967 0.284312 11.6012C-0.0947705 13.9163 -0.0947705 16.2776 0.284312 18.5927C0.44879 19.5972 1.2773 20.3599 2.29194 20.4409L3.86001 20.5661C6.33573 20.7638 8.82327 20.7638 11.299 20.5661L12.8671 20.4409C13.8817 20.3599 14.7102 19.5972 14.8747 18.5927C15.2538 16.2776 15.2538 13.9163 14.8747 11.6012C14.7102 10.5967 13.8817 9.83393 12.8671 9.75293L12.1393 9.69484L12.4989 6.45883C12.5413 6.07735 12.5413 5.69235 12.4989 5.31087L12.475 5.09612C12.2219 2.81823 10.4312 1.01588 8.15497 0.748094C7.77261 0.703109 7.38629 0.703109 7.00392 0.748094C4.72771 1.01588 2.93695 2.81823 2.68385 5.09612L2.65999 5.31087C2.61761 5.69235 2.61761 6.07735 2.65999 6.45883ZM7.97128 2.30945C7.71096 2.27882 7.44794 2.27882 7.18761 2.30945C5.63789 2.49177 4.41868 3.71887 4.24636 5.26973L4.2225 5.48448C4.19293 5.75057 4.19293 6.01912 4.2225 6.28521L4.58807 9.57535C6.58027 9.44758 8.57862 9.44758 10.5708 9.57534L10.9364 6.28521C10.966 6.01912 10.966 5.75057 10.9364 5.48448L10.9125 5.26973C10.7402 3.71887 9.52101 2.49177 7.97128 2.30945ZM7.57947 13.5248C6.71121 13.5248 6.00735 14.2287 6.00735 15.0969C6.00735 15.9652 6.71121 16.6691 7.57947 16.6691C8.44773 16.6691 9.15159 15.9652 9.15159 15.0969C9.15159 14.2287 8.44773 13.5248 7.57947 13.5248Z" fill="#00DBDE"/>
</svg>
